<svg xmlns="http://www.w3.org/2000/svg" xmlns:xlink="http://www.w3.org/1999/xlink" width="150" zoomAndPan="magnify" viewBox="0 0 112.5 112.499997" height="150" preserveAspectRatio="xMidYMid meet" version="1.0"><defs><clipPath id="a1e4327572"><path d="M 0 0 L 112.003906 0 L 112.003906 112.003906 L 0 112.003906 Z M 0 0 " clip-rule="nonzero"/></clipPath></defs><g clip-path="url(#a1e4327572)"><path fill="#f652a0" d="M 112.011719 56.011719 C 112.011719 86.9375 86.9375 112.011719 56.011719 112.011719 C 25.082031 112.011719 0.0117188 86.9375 0.0117188 56.011719 C 0.0117188 25.082031 25.082031 0.0117188 56.011719 0.0117188 C 86.9375 0.0117188 112.011719 25.082031 112.011719 56.011719 " fill-opacity="1" fill-rule="nonzero"/></g><path fill="#c9252a" d="M 56.21875 95.121094 C 56.21875 95.121094 29.660156 84.109375 20.332031 63.382812 C 11.007812 42.65625 18.519531 25.554688 32.511719 23.480469 C 46.5 21.410156 56.21875 33.328125 56.21875 33.328125 L 56.605469 33.878906 L 56.996094 33.328125 C 56.996094 33.328125 66.710938 21.410156 80.703125 23.480469 C 94.695312 25.554688 102.207031 42.65625 92.878906 63.382812 C 83.550781 84.109375 56.996094 95.121094 56.996094 95.121094 L 56.605469 95.253906 L 56.21875 95.121094 " fill-opacity="1" fill-rule="nonzero"/><path fill="#ffffff" d="M 74.121094 23.488281 C 74.121094 23.488281 86.28125 26.625 91.425781 38.945312 C 96.570312 51.269531 85.734375 68.039062 74.121094 79.160156 C 62.503906 90.285156 53.121094 93.679688 53.121094 93.679688 L 56.605469 95.253906 C 56.605469 95.253906 82.042969 82.4375 89.8125 68.992188 C 97.585938 55.546875 97.984375 42.296875 94.789062 34.546875 C 91.597656 26.796875 80.304688 21.691406 74.121094 23.488281 " fill-opacity="1" fill-rule="nonzero"/><path fill="#a41c22" d="M 56.21875 33.328125 C 56.21875 33.328125 40.945312 28.335938 38.207031 47.84375 C 35.46875 67.351562 58.226562 93.191406 58.226562 93.191406 C 58.226562 93.191406 54.230469 94.289062 52.148438 93.191406 C 50.066406 92.09375 28.28125 79.714844 21.265625 64.292969 C 14.246094 48.871094 17.671875 32.496094 23.488281 27.59375 C 29.308594 22.691406 39.664062 15.730469 56.21875 33.328125 " fill-opacity="1" fill-rule="nonzero"/><path fill="#ffffff" d="M 33.113281 72.976562 L 28.429688 47.472656 L 25.792969 55.71875 L 17.339844 55.71875 L 17.339844 53.664062 L 24.292969 53.664062 L 28.96875 39.042969 L 32.871094 60.289062 L 34.523438 48.859375 L 37.414062 54.824219 L 40.835938 44.277344 L 42.171875 53.207031 L 46.019531 43.054688 L 48.144531 53.664062 L 72.101562 53.664062 L 72.101562 55.71875 L 46.460938 55.71875 L 45.410156 50.460938 L 41.304688 61.292969 L 40.097656 53.214844 L 37.792969 60.3125 L 35.597656 55.785156 L 33.113281 72.976562 " fill-opacity="1" fill-rule="nonzero"/><path fill="#371416" d="M 35.785156 25.035156 C 34.785156 25.035156 33.773438 25.113281 32.773438 25.257812 C 27.644531 26.019531 23.390625 29.058594 20.789062 33.816406 C 16.679688 41.332031 17.109375 51.839844 21.972656 62.644531 C 30.367188 81.300781 53.683594 92.046875 56.605469 93.332031 C 59.527344 92.046875 82.847656 81.300781 91.242188 62.644531 C 96.101562 51.839844 96.535156 41.332031 92.425781 33.816406 C 89.824219 29.058594 85.566406 26.019531 80.4375 25.257812 C 79.441406 25.113281 78.429688 25.035156 77.429688 25.035156 C 66.582031 25.035156 58.992188 33.75 58.421875 34.421875 L 56.605469 36.992188 L 54.792969 34.425781 C 54.230469 33.765625 46.59375 25.035156 35.785156 25.035156 Z M 56.605469 97.15625 L 55.53125 96.78125 C 54.417969 96.320312 28.207031 85.253906 18.695312 64.121094 C 13.367188 52.277344 12.980469 40.605469 17.636719 32.089844 C 20.789062 26.320312 25.980469 22.632812 32.246094 21.703125 C 33.417969 21.53125 34.609375 21.441406 35.785156 21.441406 C 46.324219 21.441406 53.960938 28.3125 56.605469 31.074219 C 59.253906 28.3125 66.886719 21.441406 77.429688 21.441406 C 78.605469 21.441406 79.792969 21.53125 80.964844 21.703125 C 87.234375 22.632812 92.421875 26.320312 95.578125 32.089844 C 100.234375 40.605469 99.847656 52.277344 94.519531 64.121094 C 85.007812 85.253906 58.792969 96.320312 57.683594 96.78125 L 57.191406 96.953125 L 56.605469 97.15625 " fill-opacity="1" fill-rule="nonzero"/></svg>