<svg xmlns="http://www.w3.org/2000/svg" xmlns:xlink="http://www.w3.org/1999/xlink" width="150" zoomAndPan="magnify" viewBox="0 0 112.5 112.499997" height="150" preserveAspectRatio="xMidYMid meet" version="1.0"><defs><clipPath id="e3d73fa357"><path d="M 11 3.78125 L 77 3.78125 L 77 38 L 11 38 Z M 11 3.78125 " clip-rule="nonzero"/></clipPath><clipPath id="c30ad5e457"><path d="M 0 7 L 77 7 L 77 106.820312 L 0 106.820312 Z M 0 7 " clip-rule="nonzero"/></clipPath><clipPath id="f2c0ec5bf8"><path d="M 11 7 L 89 7 L 89 106.820312 L 11 106.820312 Z M 11 7 " clip-rule="nonzero"/></clipPath><clipPath id="ce26c9dd5d"><path d="M 64 31 L 110.507812 31 L 110.507812 87 L 64 87 Z M 64 31 " clip-rule="nonzero"/></clipPath></defs><g clip-path="url(#e3d73fa357)"><path fill="#fe5694" d="M 62.992188 23 C 63.617188 23.222656 64.246094 23.449219 64.875 23.691406 L 73.75 37.195312 C 75.058594 33.480469 76.144531 29.746094 77 26.019531 C 72.957031 19.871094 68.914062 13.722656 64.875 7.570312 C 64.859375 7.570312 64.855469 7.5625 64.847656 7.5625 C 58.039062 4.949219 51.230469 3.773438 44.429688 3.835938 C 37.613281 3.773438 30.796875 4.953125 23.984375 7.570312 C 19.933594 13.730469 15.886719 19.890625 11.839844 26.050781 C 12.691406 29.769531 13.78125 33.503906 15.089844 37.21875 L 23.984375 23.691406 C 24.601562 23.453125 25.222656 23.226562 25.839844 23.015625 C 32.039062 20.871094 38.230469 19.894531 44.429688 19.953125 C 50.613281 19.894531 56.800781 20.863281 62.992188 23 Z M 62.992188 23 " fill-opacity="1" fill-rule="evenodd"/></g><path fill="#ce4578" d="M 28.421875 6.066406 C 26.945312 6.5 25.460938 7.003906 23.984375 7.570312 C 19.933594 13.730469 15.886719 19.890625 11.835938 26.050781 C 12.691406 29.769531 13.78125 33.503906 15.089844 37.21875 L 23.984375 23.691406 C 24.601562 23.453125 25.222656 23.226562 25.839844 23.015625 C 27.257812 22.523438 28.679688 22.089844 30.101562 21.71875 C 29.234375 17.890625 28.65625 13.980469 28.480469 10.050781 C 28.441406 9.230469 28.421875 8.40625 28.421875 7.582031 Z M 28.421875 6.066406 " fill-opacity="1" fill-rule="evenodd"/><path fill="#ce4578" d="M 62.992188 23 C 63.617188 23.222656 64.246094 23.449219 64.875 23.691406 L 73.75 37.195312 C 75.058594 33.480469 76.144531 29.746094 77 26.019531 C 72.957031 19.871094 68.914062 13.722656 64.875 7.570312 C 64.859375 7.570312 64.855469 7.5625 64.847656 7.5625 C 63.363281 6.996094 61.886719 6.492188 60.402344 6.058594 L 60.410156 7.570312 C 60.410156 8.398438 60.390625 9.226562 60.351562 10.050781 C 60.175781 13.972656 59.597656 17.882812 58.730469 21.710938 C 60.152344 22.082031 61.574219 22.511719 62.992188 23 Z M 62.992188 23 " fill-opacity="1" fill-rule="evenodd"/><g clip-path="url(#c30ad5e457)"><path fill="#fe76a8" d="M 13.246094 105.761719 C 24.425781 100.878906 35.066406 93.152344 44.417969 83.679688 C 47.761719 80.285156 50.941406 76.664062 53.921875 72.875 C 62.453125 62.019531 69.332031 49.730469 73.75 37.195312 C 75.058594 33.480469 76.144531 29.746094 77 26.019531 C 72.957031 19.871094 68.914062 13.722656 64.875 7.570312 C 64.859375 7.570312 64.855469 7.5625 64.847656 7.5625 C 64.847656 8.472656 64.828125 9.378906 64.785156 10.257812 C 64.597656 14.4375 63.980469 18.707031 62.992188 23 C 59.917969 36.320312 53.242188 49.878906 44.417969 61.699219 C 41.46875 65.640625 38.28125 69.390625 34.910156 72.875 C 26.625 81.4375 17.226562 88.382812 7.5 92.625 C 5.207031 93.628906 2.671875 94.566406 0.03125 95.296875 L 10.726562 106.8125 C 11.5625 106.480469 12.398438 106.132812 13.246094 105.761719 Z M 13.246094 105.761719 " fill-opacity="1" fill-rule="evenodd"/></g><path fill="#fe5694" d="M 41.242188 86.777344 C 42.316406 85.765625 43.371094 84.738281 44.417969 83.679688 C 47.761719 80.285156 50.941406 76.664062 53.921875 72.875 C 54.847656 71.699219 55.75 70.503906 56.636719 69.296875 C 53.542969 66.058594 50.644531 62.628906 47.96875 59.039062 C 47.691406 58.667969 47.410156 58.285156 47.132812 57.90625 C 46.25 59.191406 45.347656 60.453125 44.417969 61.699219 C 41.46875 65.640625 38.28125 69.390625 34.910156 72.875 C 33.867188 73.949219 32.8125 75 31.734375 76.023438 C 34.710938 79.777344 37.878906 83.371094 41.242188 86.777344 Z M 41.242188 86.777344 " fill-opacity="1" fill-rule="evenodd"/><g clip-path="url(#f2c0ec5bf8)"><path fill="#fe93bb" d="M 25.839844 23.011719 C 24.851562 18.714844 24.234375 14.4375 24.039062 10.257812 C 24.003906 9.378906 23.984375 8.488281 23.984375 7.570312 C 19.933594 13.730469 15.886719 19.890625 11.839844 26.050781 C 12.691406 29.769531 13.78125 33.503906 15.089844 37.21875 C 19.507812 49.75 26.386719 62.023438 34.910156 72.875 C 37.890625 76.664062 41.066406 80.285156 44.414062 83.679688 C 53.757812 93.152344 64.402344 100.878906 75.585938 105.761719 C 76.429688 106.132812 77.269531 106.480469 78.105469 106.8125 L 88.800781 95.296875 C 86.160156 94.570312 83.625 93.632812 81.324219 92.625 C 71.605469 88.382812 62.203125 81.4375 53.921875 72.875 C 50.546875 69.394531 47.359375 65.640625 44.414062 61.699219 C 35.589844 49.878906 28.914062 36.328125 25.839844 23.011719 Z M 25.839844 23.011719 " fill-opacity="1" fill-rule="evenodd"/></g><g clip-path="url(#ce26c9dd5d)"><path fill="#5fd4f3" d="M 87.234375 31.972656 L 110.476562 41.507812 L 110.476562 62.609375 C 107.121094 75.414062 98.652344 82.738281 87.234375 86.90625 C 75.824219 82.738281 67.355469 75.414062 64 62.609375 L 64 41.507812 Z M 87.234375 31.972656 " fill-opacity="1" fill-rule="evenodd"/></g><path fill="#00aee3" d="M 82.953125 46.257812 L 91.523438 46.257812 L 91.523438 55.152344 L 100.414062 55.152344 L 100.414062 63.722656 L 91.523438 63.722656 L 91.523438 72.609375 L 82.953125 72.609375 L 82.953125 63.722656 L 74.058594 63.722656 L 74.058594 55.152344 L 82.953125 55.152344 Z M 82.953125 46.257812 " fill-opacity="1" fill-rule="evenodd"/><path fill="#009dcc" d="M 82.953125 46.257812 L 87.234375 46.257812 L 87.234375 72.609375 L 82.953125 72.609375 L 82.953125 63.722656 L 74.058594 63.722656 L 74.058594 55.152344 L 82.953125 55.152344 Z M 82.953125 46.257812 " fill-opacity="1" fill-rule="evenodd"/><path fill="#17c5fa" d="M 89.78125 85.90625 C 78.828125 81.324219 70.75 73.667969 67.40625 60.925781 L 67.40625 40.105469 L 64 41.507812 L 64 62.609375 C 67.355469 75.414062 75.824219 82.738281 87.234375 86.90625 C 88.101562 86.589844 88.953125 86.257812 89.78125 85.90625 Z M 89.78125 85.90625 " fill-opacity="1" fill-rule="evenodd"/></svg>