<svg xmlns="http://www.w3.org/2000/svg" xmlns:xlink="http://www.w3.org/1999/xlink" width="150" zoomAndPan="magnify" viewBox="0 0 112.5 112.499997" height="150" preserveAspectRatio="xMidYMid meet" version="1.0"><path fill="#daedf2" d="M 106.535156 102.03125 C 103.070312 104.691406 14.679688 105.523438 7.046875 101.621094 C 4.273438 100.203125 2.546875 90.453125 1.691406 78.03125 C 0.046875 54.160156 1.609375 20.414062 5.085938 16.917969 C 9.578125 12.40625 83.800781 9.9375 102.4375 14.625 C 104.339844 15.101562 105.660156 15.65625 106.273438 16.289062 C 111.972656 22.1875 110.574219 98.941406 106.535156 102.03125 Z M 106.535156 102.03125 " fill-opacity="1" fill-rule="nonzero"/><path fill="#cce1e5" d="M 106.535156 102.03125 C 103.070312 104.691406 14.679688 105.523438 7.046875 101.621094 C 4.273438 100.203125 2.546875 90.453125 1.691406 78.03125 C 32.769531 74.785156 63.035156 61.25 84.832031 40.3125 C 91.039062 34.351562 96.636719 27.746094 100.207031 20.289062 C 101.085938 18.445312 101.839844 16.554688 102.4375 14.625 C 104.339844 15.101562 105.660156 15.65625 106.273438 16.289062 C 111.972656 22.1875 110.574219 98.941406 106.535156 102.03125 Z M 106.535156 102.03125 " fill-opacity="1" fill-rule="nonzero"/><path fill="#daedf2" d="M 100.394531 105.273438 C 100.3125 106.625 100.144531 107.8125 99.9375 108.132812 C 99.433594 108.914062 92.328125 108.738281 91.828125 108.164062 C 91.65625 107.964844 91.519531 107.042969 91.433594 105.898438 C 91.265625 103.667969 91.304688 100.585938 91.703125 100.339844 C 92.246094 100.003906 99.152344 99.445312 100.035156 100.542969 C 100.441406 101.050781 100.507812 103.328125 100.394531 105.273438 Z M 100.394531 105.273438 " fill-opacity="1" fill-rule="nonzero"/><path fill="#cce1e5" d="M 100.394531 105.273438 C 100.199219 105.25 100.0625 105.234375 100.007812 105.230469 C 97.164062 105.007812 94.28125 105.222656 91.503906 105.878906 C 91.480469 105.882812 91.457031 105.890625 91.433594 105.898438 C 91.265625 103.667969 91.304688 100.585938 91.703125 100.339844 C 92.246094 100.003906 99.152344 99.445312 100.035156 100.542969 C 100.441406 101.050781 100.507812 103.328125 100.394531 105.273438 Z M 100.394531 105.273438 " fill-opacity="1" fill-rule="nonzero"/><path fill="#daedf2" d="M 24.511719 105.1875 C 24.4375 106.566406 24.269531 107.789062 24.0625 108.117188 C 23.566406 108.902344 16.457031 108.753906 15.953125 108.175781 C 15.769531 107.96875 15.621094 106.933594 15.53125 105.679688 C 15.382812 103.472656 15.417969 100.59375 15.804688 100.355469 C 16.34375 100.015625 23.25 99.433594 24.132812 100.527344 C 24.539062 101.03125 24.617188 103.257812 24.511719 105.1875 Z M 24.511719 105.1875 " fill-opacity="1" fill-rule="nonzero"/><path fill="#cce1e5" d="M 24.511719 105.1875 C 24.117188 105.136719 23.832031 105.105469 23.746094 105.097656 C 21.003906 104.882812 18.222656 105.078125 15.53125 105.679688 C 15.382812 103.472656 15.417969 100.59375 15.804688 100.355469 C 16.34375 100.015625 23.25 99.433594 24.132812 100.527344 C 24.539062 101.03125 24.617188 103.257812 24.511719 105.1875 Z M 24.511719 105.1875 " fill-opacity="1" fill-rule="nonzero"/><path fill="#fb74b4" d="M 99.90625 82.164062 C 97.472656 84.019531 18.816406 84.734375 12.511719 81.882812 C 6.453125 79.140625 6.707031 26.144531 10.777344 23.566406 C 14.964844 20.914062 95.273438 19.320312 100.304688 23.132812 C 104.617188 26.40625 102.671875 80.054688 99.90625 82.164062 Z M 99.90625 82.164062 " fill-opacity="1" fill-rule="nonzero"/><path fill="#fb74b4" d="M 24.179688 97.011719 C 23.65625 97.78125 16.558594 97.398438 16.070312 96.804688 C 15.953125 96.660156 15.863281 96.148438 15.804688 95.449219 C 15.613281 93.265625 15.714844 89.253906 16.179688 88.984375 C 16.730469 88.664062 23.652344 88.3125 24.5 89.429688 C 24.613281 89.578125 24.695312 89.871094 24.746094 90.261719 C 25.011719 92.171875 24.617188 96.375 24.179688 97.011719 Z M 24.179688 97.011719 " fill-opacity="1" fill-rule="nonzero"/><path fill="#fb74b4" d="M 40.183594 97.539062 C 39.660156 98.308594 32.5625 97.925781 32.074219 97.332031 C 31.929688 97.152344 31.824219 96.386719 31.765625 95.402344 C 31.636719 93.15625 31.757812 89.757812 32.183594 89.511719 C 32.734375 89.191406 39.65625 88.835938 40.503906 89.957031 C 40.511719 89.96875 40.519531 89.980469 40.527344 89.996094 C 41.160156 91 40.699219 96.78125 40.183594 97.539062 Z M 40.183594 97.539062 " fill-opacity="1" fill-rule="nonzero"/><path fill="#fb82bc" d="M 99.90625 82.164062 C 102.671875 80.054688 104.617188 26.40625 100.304688 23.132812 C 99.972656 22.882812 99.308594 22.65625 98.355469 22.449219 C 97.839844 23.429688 97.296875 24.410156 96.722656 25.378906 C 90.589844 35.738281 82.324219 44.78125 72.851562 52.183594 C 67.441406 56.410156 61.617188 60.117188 55.5 63.242188 C 41.316406 70.496094 25.832031 74.757812 9.996094 76.789062 C 10.664062 79.570312 11.5 81.421875 12.511719 81.882812 C 18.820312 84.734375 97.472656 84.015625 99.90625 82.164062 Z M 99.90625 82.164062 " fill-opacity="1" fill-rule="nonzero"/><path fill="#fb74b4" d="M 94.269531 92.496094 C 94.269531 95.210938 92.070312 97.410156 89.355469 97.410156 C 87.351562 97.410156 85.628906 96.214844 84.867188 94.496094 C 84.59375 93.886719 84.441406 93.207031 84.441406 92.496094 C 84.441406 89.78125 86.640625 87.582031 89.355469 87.582031 C 90.890625 87.582031 92.257812 88.285156 93.160156 89.386719 C 93.851562 90.230469 94.269531 91.316406 94.269531 92.496094 Z M 94.269531 92.496094 " fill-opacity="1" fill-rule="nonzero"/><path fill="#daedf2" d="M 76.457031 29.515625 C 61.191406 34.019531 49.445312 34.050781 34.664062 29.554688 C 32.976562 29.039062 31.1875 29.960938 30.617188 31.625 L 19.726562 63.449219 C 19.050781 65.425781 20.027344 67.601562 21.964844 68.390625 C 44.613281 77.597656 67.011719 77.546875 89.167969 68.402344 C 91.09375 67.605469 92.058594 65.441406 91.382812 63.46875 L 80.476562 31.597656 C 79.90625 29.941406 78.136719 29.023438 76.457031 29.515625 Z M 76.457031 29.515625 " fill-opacity="1" fill-rule="nonzero"/><path fill="#fb74b4" d="M 75.925781 52.074219 C 74.589844 51.152344 72.78125 50.4375 72.503906 48.839844 C 72.273438 47.5 73.324219 46.207031 74.230469 45.351562 C 74.46875 45.132812 74.691406 44.902344 74.894531 44.648438 C 76.617188 42.507812 76.003906 41.394531 74.386719 40.421875 C 73.128906 39.664062 69.714844 37.945312 69.285156 39.351562 C 69.0625 40.082031 70.550781 41.515625 70.058594 42.09375 C 69.601562 42.628906 64.820312 46.101562 64.695312 48.011719 C 64.398438 52.578125 67.226562 53.394531 66.050781 53.605469 C 65.492188 53.703125 64.820312 53.714844 64.085938 53.667969 C 64.023438 53.226562 63.863281 52.863281 63.78125 52.582031 C 63.226562 50.707031 62.203125 49.039062 60.957031 47.691406 C 60.636719 47.03125 60.386719 46.371094 60.277344 45.691406 C 59.925781 43.507812 61.085938 41.246094 61.988281 39.734375 C 62.246094 39.3125 62.515625 38.878906 62.777344 38.460938 C 63.777344 36.871094 64.8125 35.222656 65.328125 33.320312 C 66.253906 29.886719 64.835938 27.113281 63.132812 25.988281 L 62.085938 27.574219 C 63.734375 28.660156 63.972656 31.058594 63.492188 32.824219 C 63.054688 34.449219 62.140625 35.90625 61.167969 37.449219 C 60.898438 37.871094 60.621094 38.3125 60.359375 38.753906 C 59.300781 40.523438 57.949219 43.195312 58.402344 45.992188 C 58.410156 46.035156 58.417969 46.078125 58.425781 46.117188 C 58.074219 46.160156 57.707031 46.316406 57.414062 46.605469 C 56.714844 47.300781 56.742188 48.34375 56.882812 49.144531 C 57.050781 50.105469 57.277344 51.039062 57.550781 51.941406 C 56.785156 51.742188 56 51.585938 55.195312 51.476562 C 55.117188 51.464844 55.035156 51.453125 54.953125 51.445312 C 55.617188 48.085938 53.996094 44.890625 53.105469 43.660156 C 50.480469 40.046875 45.78125 37.015625 38.847656 40.019531 C 34.199219 42.03125 31.75 47.300781 31.996094 51.515625 C 32.269531 56.207031 36.488281 61.761719 40.242188 63.695312 C 48.714844 68.058594 64.128906 74.171875 76.160156 64.117188 C 77.957031 62.613281 79.175781 60.375 79.128906 58.035156 C 79.082031 55.691406 77.851562 53.40625 75.925781 52.074219 Z M 43.984375 54.796875 C 43.953125 55.019531 43.765625 55.179688 43.550781 55.179688 C 43.53125 55.179688 43.515625 55.179688 43.496094 55.175781 C 42.539062 55.054688 41.6875 54.625 41.101562 53.964844 C 40.453125 53.234375 40.171875 52.226562 40.363281 51.328125 C 40.574219 50.339844 41.355469 49.542969 42.300781 49.34375 C 42.535156 49.292969 42.765625 49.445312 42.816406 49.683594 C 42.867188 49.917969 42.714844 50.152344 42.476562 50.203125 C 41.875 50.328125 41.355469 50.867188 41.21875 51.515625 C 41.082031 52.144531 41.289062 52.863281 41.753906 53.386719 C 42.195312 53.882812 42.867188 54.21875 43.605469 54.3125 C 43.84375 54.339844 44.011719 54.558594 43.984375 54.796875 Z M 43.984375 54.796875 " fill-opacity="1" fill-rule="nonzero"/><path fill="#cce1e5" d="M 89.167969 68.402344 C 91.09375 67.605469 92.058594 65.441406 91.382812 63.46875 L 84.050781 42.039062 C 80.574219 45.691406 76.820312 49.082031 72.855469 52.183594 C 67.441406 56.414062 61.621094 60.117188 55.503906 63.246094 C 48.257812 66.949219 40.671875 69.871094 32.875 72.117188 C 51.8125 77.34375 70.574219 76.074219 89.167969 68.402344 Z M 89.167969 68.402344 " fill-opacity="1" fill-rule="nonzero"/><path fill="#fb82bc" d="M 76.160156 64.117188 C 77.957031 62.613281 79.175781 60.378906 79.128906 58.035156 C 79.082031 55.695312 77.851562 53.40625 75.921875 52.074219 C 75.40625 51.722656 74.824219 51.394531 74.285156 51.039062 C 73.808594 51.425781 73.332031 51.808594 72.851562 52.183594 C 67.441406 56.414062 61.617188 60.117188 55.5 63.246094 C 52.890625 64.582031 50.238281 65.8125 47.546875 66.949219 C 56.046875 70.082031 67.070312 71.714844 76.160156 64.117188 Z M 76.160156 64.117188 " fill-opacity="1" fill-rule="nonzero"/><path fill="#cce1e5" d="M 36.867188 12.765625 C 37.855469 16.894531 41.546875 21.679688 43.613281 25.046875 C 48.335938 22.414062 56.359375 19.144531 56.878906 12.148438 C 50.070312 12.238281 43.238281 12.449219 36.867188 12.765625 Z M 36.867188 12.765625 " fill-opacity="1" fill-rule="nonzero"/><path fill="#fb82bc" d="M 50.765625 20.992188 C 47.496094 21.050781 44.253906 21.125 41.121094 21.214844 C 42.027344 22.601562 42.914062 23.910156 43.613281 25.046875 C 45.671875 23.902344 48.351562 22.632812 50.765625 20.992188 Z M 50.765625 20.992188 " fill-opacity="1" fill-rule="nonzero"/><path fill="#cce1e5" d="M 14.582031 24.601562 C 14.089844 25.242188 13.78125 26.066406 13.929688 26.859375 C 14.96875 32.402344 21.59375 33.308594 25.53125 34.367188 C 26.957031 29.820312 30.917969 21.625 24.503906 20.507812 C 21.9375 20.058594 20.039062 23.609375 20.105469 24.527344 C 19.332031 23.664062 16.125 22.578125 14.582031 24.601562 Z M 14.582031 24.601562 " fill-opacity="1" fill-rule="nonzero"/><path fill="#fb82bc" d="M 20.105469 24.527344 C 19.335938 23.664062 16.125 22.578125 14.582031 24.601562 C 14.089844 25.242188 13.78125 26.066406 13.929688 26.859375 C 14.96875 32.402344 21.59375 33.308594 25.53125 34.367188 C 26.695312 30.65625 29.542969 24.519531 27.070312 21.777344 C 24.960938 21.890625 22.996094 22.011719 21.207031 22.140625 C 20.488281 23.054688 20.074219 24.085938 20.105469 24.527344 Z M 20.105469 24.527344 " fill-opacity="1" fill-rule="nonzero"/><path fill="#fb82bc" d="M 24.179688 97.011719 C 23.65625 97.78125 16.558594 97.398438 16.070312 96.804688 C 15.953125 96.660156 15.863281 96.148438 15.804688 95.449219 C 18.417969 95.097656 20.9375 94.011719 22.953125 92.304688 C 23.644531 91.714844 24.289062 91.046875 24.746094 90.261719 C 25.011719 92.171875 24.617188 96.375 24.179688 97.011719 Z M 24.179688 97.011719 " fill-opacity="1" fill-rule="nonzero"/><path fill="#fb82bc" d="M 40.183594 97.539062 C 39.660156 98.308594 32.5625 97.925781 32.074219 97.332031 C 31.929688 97.152344 31.824219 96.386719 31.765625 95.402344 C 34.265625 95.003906 36.660156 93.941406 38.585938 92.304688 C 39.359375 91.648438 40.070312 90.894531 40.527344 89.996094 C 41.160156 91 40.699219 96.78125 40.183594 97.539062 Z M 40.183594 97.539062 " fill-opacity="1" fill-rule="nonzero"/><path fill="#fb82bc" d="M 94.269531 92.496094 C 94.269531 95.210938 92.070312 97.410156 89.355469 97.410156 C 87.351562 97.410156 85.628906 96.214844 84.867188 94.496094 C 86.691406 95.023438 88.742188 94.789062 90.335938 93.75 C 91.0625 93.273438 91.675781 92.644531 92.152344 91.921875 C 92.667969 91.136719 92.996094 90.28125 93.160156 89.386719 C 93.851562 90.230469 94.269531 91.316406 94.269531 92.496094 Z M 94.269531 92.496094 " fill-opacity="1" fill-rule="nonzero"/><path fill="#bd0000" d="M 51.082031 5.453125 C 52.046875 6.058594 52.863281 6.988281 53.058594 8.113281 C 54.417969 15.941406 46.121094 20.40625 41.449219 23.742188 C 37.324219 18.441406 28.058594 9.578125 35.96875 4.941406 C 39.136719 3.082031 43.394531 6.828125 43.757812 8.078125 C 44.351562 6.558594 48.046875 3.546875 51.082031 5.453125 Z M 51.082031 5.453125 " fill-opacity="1" fill-rule="nonzero"/><path fill="#bd0000" d="M 10.984375 26.28125 C 10.589844 27.023438 10.410156 27.914062 10.699219 28.703125 C 12.699219 34.199219 19.632812 34.007812 23.835938 34.417969 C 24.527344 29.523438 27.191406 20.472656 20.441406 20.410156 C 17.738281 20.386719 16.394531 24.339844 16.625 25.265625 C 15.683594 24.515625 12.21875 23.949219 10.984375 26.28125 Z M 10.984375 26.28125 " fill-opacity="1" fill-rule="nonzero"/></svg>