<svg xmlns="http://www.w3.org/2000/svg" xmlns:xlink="http://www.w3.org/1999/xlink" width="150" zoomAndPan="magnify" viewBox="0 0 112.5 112.499997" height="150" preserveAspectRatio="xMidYMid meet" version="1.0"><defs><clipPath id="553f789462"><path d="M 0 3.011719 L 112.003906 3.011719 L 112.003906 107 L 0 107 Z M 0 3.011719 " clip-rule="nonzero"/></clipPath></defs><path fill="#fb74b4" d="M 82.941406 28.609375 L 82.855469 28.625 C 82.691406 28.671875 82.546875 28.796875 82.417969 29.003906 C 82.21875 29.367188 82.097656 29.695312 82.046875 29.988281 C 81.976562 30.328125 81.953125 30.667969 81.96875 31.007812 C 81.984375 31.246094 82.054688 31.640625 82.183594 32.195312 C 82.21875 32.324219 82.28125 32.519531 82.371094 32.78125 L 82.101562 32.652344 C 81.875 32.550781 81.640625 32.453125 81.398438 32.367188 L 81.03125 32.246094 C 80.785156 32.167969 80.53125 32.101562 80.269531 32.039062 C 79.992188 31.980469 79.699219 31.945312 79.386719 31.9375 L 79.222656 31.941406 C 78.800781 31.972656 78.558594 32.125 78.488281 32.394531 C 78.492188 32.597656 78.636719 32.789062 78.921875 32.964844 C 79.019531 33.027344 79.128906 33.082031 79.257812 33.140625 L 79.585938 33.285156 C 79.578125 33.285156 79.800781 33.359375 80.253906 33.511719 C 80.921875 33.722656 81.4375 33.882812 81.8125 33.996094 L 81.8125 34 C 81.640625 34.101562 81.472656 34.222656 81.308594 34.371094 C 80.855469 34.777344 80.480469 35.257812 80.191406 35.804688 C 79.917969 36.320312 79.820312 36.796875 79.898438 37.238281 C 79.90625 37.355469 80.003906 37.5 80.191406 37.671875 C 80.316406 37.753906 80.429688 37.796875 80.53125 37.796875 C 80.542969 37.796875 80.554688 37.796875 80.566406 37.796875 C 80.910156 37.796875 81.363281 37.566406 81.933594 37.109375 C 82.378906 36.777344 82.78125 36.292969 83.148438 35.65625 C 83.183594 35.59375 83.21875 35.527344 83.257812 35.460938 C 83.464844 35.898438 83.703125 36.269531 83.980469 36.582031 C 84.40625 37.054688 84.832031 37.375 85.261719 37.542969 C 85.589844 37.664062 85.898438 37.722656 86.195312 37.722656 C 86.320312 37.722656 86.445312 37.710938 86.570312 37.691406 C 86.800781 37.617188 86.996094 37.535156 87.15625 37.441406 L 87.371094 37.292969 L 87.53125 37.125 L 87.632812 36.941406 L 87.683594 36.738281 L 87.679688 36.519531 C 87.660156 36.367188 87.601562 36.203125 87.507812 36.027344 L 87.351562 35.75 C 87.234375 35.5625 87.082031 35.371094 86.898438 35.179688 C 86.710938 34.984375 86.496094 34.789062 86.246094 34.589844 C 85.800781 34.234375 85.246094 33.867188 84.589844 33.488281 C 84.804688 33.332031 85.175781 33.070312 85.703125 32.710938 C 85.792969 32.648438 85.871094 32.585938 85.949219 32.523438 C 86.074219 32.417969 86.15625 32.347656 86.199219 32.304688 C 86.261719 32.253906 86.375 32.125 86.542969 31.917969 C 86.65625 31.757812 86.722656 31.613281 86.742188 31.488281 L 86.746094 31.394531 C 86.742188 31.339844 86.726562 31.28125 86.699219 31.21875 C 86.609375 30.988281 86.4375 30.871094 86.1875 30.871094 L 86.179688 30.871094 C 85.558594 30.910156 84.878906 31.359375 84.148438 32.21875 C 84.109375 32.269531 84.070312 32.320312 84.03125 32.371094 C 84.050781 31.683594 84.058594 31.230469 84.050781 31.011719 C 84.050781 30.746094 84.011719 30.410156 83.929688 30.011719 C 83.875 29.808594 83.816406 29.625 83.753906 29.46875 L 83.65625 29.242188 C 83.589844 29.105469 83.515625 28.992188 83.441406 28.898438 C 83.292969 28.714844 83.125 28.617188 82.941406 28.609375 Z M 36.191406 39.738281 L 36.132812 39.742188 C 35.933594 39.777344 35.769531 39.894531 35.636719 40.09375 C 35.589844 40.160156 35.546875 40.230469 35.511719 40.3125 C 35.476562 40.394531 35.445312 40.484375 35.421875 40.585938 L 35.386719 40.738281 C 35.371094 40.78125 35.351562 40.960938 35.335938 41.28125 C 35.339844 41.410156 35.347656 41.539062 35.363281 41.664062 C 35.375 41.859375 35.4375 42.164062 35.558594 42.585938 C 35.640625 42.835938 35.730469 43.054688 35.832031 43.238281 L 35.996094 43.515625 C 36.097656 43.671875 36.210938 43.8125 36.332031 43.945312 C 35.890625 44.050781 35.46875 44.210938 35.0625 44.429688 C 34.8125 44.5625 34.582031 44.730469 34.363281 44.925781 C 34.257812 45.027344 34.160156 45.125 34.074219 45.21875 C 33.878906 45.457031 33.773438 45.601562 33.761719 45.644531 C 33.707031 45.738281 33.664062 45.832031 33.632812 45.921875 C 33.566406 46.113281 33.523438 46.304688 33.507812 46.5 C 33.492188 46.546875 33.503906 46.6875 33.539062 46.914062 C 33.558594 47.003906 33.589844 47.09375 33.628906 47.179688 C 33.6875 47.339844 33.867188 47.53125 34.171875 47.753906 L 34.300781 47.824219 C 34.386719 47.867188 34.476562 47.898438 34.566406 47.917969 C 34.65625 47.9375 34.75 47.949219 34.847656 47.949219 C 35.695312 47.921875 36.46875 47.277344 37.171875 46.015625 C 37.191406 45.976562 37.214844 45.9375 37.238281 45.898438 C 37.238281 45.949219 37.234375 46 37.234375 46.046875 C 37.230469 46.425781 37.265625 46.824219 37.34375 47.242188 C 37.394531 47.453125 37.460938 47.648438 37.535156 47.824219 C 37.609375 48 37.695312 48.160156 37.792969 48.300781 L 37.945312 48.5 C 38.160156 48.75 38.417969 48.929688 38.722656 49.039062 C 38.824219 49.058594 38.90625 49.070312 38.96875 49.070312 C 38.972656 49.070312 38.980469 49.070312 38.984375 49.070312 C 39.117188 49.070312 39.234375 49.042969 39.339844 48.992188 L 39.484375 48.894531 L 39.605469 48.757812 L 39.710938 48.585938 L 39.789062 48.371094 L 39.851562 48.121094 L 39.890625 47.828125 L 39.90625 47.5 L 39.878906 47.097656 L 39.824219 46.710938 L 39.742188 46.335938 C 39.960938 46.371094 40.167969 46.390625 40.359375 46.390625 C 40.398438 46.390625 40.433594 46.386719 40.46875 46.386719 C 40.496094 46.386719 40.523438 46.386719 40.546875 46.386719 C 41.003906 46.386719 41.421875 46.25 41.796875 45.972656 C 42.226562 45.644531 42.472656 45.238281 42.542969 44.761719 C 42.542969 44.675781 42.539062 44.59375 42.527344 44.515625 C 42.488281 44.328125 42.453125 44.214844 42.429688 44.183594 C 42.332031 43.976562 42.179688 43.789062 41.972656 43.621094 L 41.867188 43.542969 C 41.792969 43.496094 41.710938 43.449219 41.625 43.410156 C 41.539062 43.371094 41.445312 43.335938 41.347656 43.304688 C 41.121094 43.234375 40.890625 43.195312 40.65625 43.179688 C 40.980469 42.800781 41.191406 42.453125 41.285156 42.136719 C 41.453125 41.664062 41.453125 41.203125 41.289062 40.761719 C 41.253906 40.6875 41.21875 40.617188 41.171875 40.554688 L 41.101562 40.46875 C 41.050781 40.417969 40.992188 40.371094 40.929688 40.332031 C 40.867188 40.292969 40.796875 40.261719 40.722656 40.238281 C 40.667969 40.214844 40.566406 40.203125 40.425781 40.199219 L 40.222656 40.214844 C 40.085938 40.234375 39.953125 40.273438 39.820312 40.335938 L 39.625 40.4375 C 39.363281 40.597656 39.105469 40.839844 38.859375 41.160156 L 38.671875 41.414062 L 38.464844 41.792969 L 38.285156 42.160156 C 38.207031 42.324219 38.140625 42.488281 38.078125 42.652344 C 37.800781 41.6875 37.554688 41.03125 37.347656 40.691406 C 36.925781 40.066406 36.539062 39.75 36.191406 39.738281 Z M 99.808594 45.492188 L 99.714844 45.496094 C 99.464844 45.515625 99.199219 45.617188 98.917969 45.800781 C 98.667969 45.972656 98.441406 46.179688 98.238281 46.421875 L 97.960938 46.804688 C 97.4375 47.617188 97.148438 48.722656 97.09375 50.117188 C 97.085938 50.316406 97.097656 50.578125 97.125 50.90625 C 96.738281 50.535156 96.371094 50.214844 96.023438 49.941406 L 95.332031 49.449219 L 94.695312 49.097656 L 94.113281 48.886719 L 93.585938 48.816406 L 93.421875 48.824219 C 93.203125 48.847656 93.003906 48.910156 92.820312 49.019531 C 92.597656 49.171875 92.46875 49.277344 92.433594 49.332031 C 92.386719 49.332031 92.277344 49.519531 92.101562 49.894531 L 91.96875 50.355469 C 91.785156 51.300781 92.09375 52.441406 92.894531 53.777344 L 93.335938 54.460938 L 93.691406 54.890625 C 93.945312 55.167969 94.226562 55.425781 94.539062 55.664062 L 95.03125 56.003906 C 95.113281 56.058594 95.199219 56.109375 95.285156 56.160156 C 95.199219 56.207031 95.105469 56.253906 95.007812 56.304688 C 94.78125 56.433594 94.574219 56.570312 94.378906 56.71875 C 93.753906 57.222656 93.324219 57.621094 93.082031 57.910156 C 92.914062 58.101562 92.746094 58.316406 92.578125 58.554688 C 92.160156 59.179688 91.910156 59.582031 91.828125 59.757812 L 91.578125 60.226562 C 91.34375 60.894531 91.222656 61.269531 91.222656 61.355469 C 91.125 61.875 91.089844 62.164062 91.117188 62.21875 C 91.121094 62.382812 91.144531 62.523438 91.1875 62.648438 C 91.328125 63.09375 91.582031 63.453125 91.957031 63.722656 C 92.082031 63.804688 92.21875 63.871094 92.367188 63.917969 C 92.457031 63.964844 92.679688 64 93.039062 64.027344 C 94.277344 63.949219 95.40625 63.382812 96.433594 62.328125 C 97.167969 61.574219 97.988281 60.5 98.886719 59.101562 C 98.988281 59.519531 99.117188 59.894531 99.277344 60.230469 L 99.515625 60.667969 C 99.664062 60.910156 99.882812 61.179688 100.167969 61.476562 C 100.679688 62.015625 101.242188 62.4375 101.859375 62.742188 C 102.472656 63.046875 103.132812 63.234375 103.847656 63.308594 C 104.011719 63.320312 104.160156 63.324219 104.300781 63.324219 C 104.425781 63.324219 104.542969 63.320312 104.648438 63.3125 C 105.21875 63.242188 105.546875 63.183594 105.628906 63.132812 L 105.914062 63.023438 C 106.097656 62.945312 106.265625 62.847656 106.421875 62.734375 C 106.578125 62.625 106.71875 62.496094 106.847656 62.351562 C 107.265625 61.875 107.472656 61.375 107.46875 60.851562 C 107.496094 60.765625 107.441406 60.496094 107.304688 60.046875 L 107.058594 59.488281 L 106.703125 58.953125 L 106.242188 58.445312 L 105.671875 57.957031 L 104.996094 57.496094 C 104.628906 57.269531 104.222656 57.054688 103.773438 56.847656 C 104.519531 56.363281 105.160156 55.890625 105.703125 55.417969 C 106.078125 55.09375 106.40625 54.773438 106.683594 54.453125 L 107.066406 53.976562 C 107.296875 53.660156 107.476562 53.347656 107.609375 53.035156 L 107.8125 52.378906 C 107.917969 51.960938 107.964844 51.582031 107.957031 51.242188 L 107.898438 50.761719 L 107.753906 50.34375 L 107.523438 49.984375 L 107.203125 49.683594 L 106.800781 49.445312 C 106.453125 49.269531 106.042969 49.179688 105.574219 49.175781 L 105.378906 49.179688 C 104.25 49.269531 103.164062 49.667969 102.121094 50.378906 C 102.101562 50.171875 102.082031 49.980469 102.066406 49.800781 C 101.945312 48.875 101.820312 48.214844 101.699219 47.824219 C 101.484375 47.089844 101.183594 46.484375 100.800781 46.011719 C 100.5 45.722656 100.308594 45.574219 100.230469 45.574219 C 100.230469 45.574219 100.230469 45.578125 100.226562 45.578125 C 100.09375 45.519531 99.953125 45.492188 99.808594 45.492188 Z M 99.808594 45.492188 " fill-opacity="1" fill-rule="nonzero"/><path fill="#f652a0" d="M 66.515625 34.253906 L 66.492188 34.253906 C 66.484375 34.253906 66.480469 34.253906 66.472656 34.253906 C 66.117188 34.253906 65.824219 34.597656 65.59375 35.28125 C 65.445312 35.710938 65.386719 36.378906 65.417969 37.273438 C 65.453125 37.875 65.503906 38.300781 65.566406 38.550781 C 65.632812 38.875 65.722656 39.199219 65.835938 39.519531 C 65.707031 39.507812 65.605469 39.503906 65.535156 39.503906 C 65.503906 39.503906 65.476562 39.503906 65.457031 39.507812 L 65.285156 39.507812 C 64.820312 39.519531 64.316406 39.574219 63.777344 39.671875 C 63.417969 39.746094 63.074219 39.847656 62.742188 39.96875 C 62.25 40.15625 61.789062 40.390625 61.363281 40.675781 C 61.125 40.808594 60.871094 41.027344 60.597656 41.324219 C 60.28125 41.734375 60.316406 42.09375 60.707031 42.398438 L 60.917969 42.523438 C 61.078125 42.601562 61.273438 42.664062 61.5 42.710938 C 61.730469 42.761719 61.996094 42.796875 62.292969 42.820312 C 62.425781 42.828125 62.605469 42.832031 62.828125 42.832031 C 63.101562 42.832031 63.390625 42.824219 63.695312 42.800781 L 64.164062 42.757812 C 64.484375 42.726562 64.820312 42.679688 65.167969 42.625 C 65.765625 42.53125 66.402344 42.40625 67.085938 42.246094 C 67.078125 42.300781 67.074219 42.355469 67.066406 42.410156 C 67.042969 42.527344 67.027344 42.847656 67.019531 43.371094 C 67.019531 43.574219 67.03125 43.773438 67.046875 43.96875 C 67.066406 44.160156 67.09375 44.347656 67.128906 44.53125 C 67.148438 44.660156 67.207031 44.890625 67.3125 45.21875 L 67.46875 45.597656 L 67.660156 45.9375 L 67.882812 46.238281 C 68.042969 46.421875 68.222656 46.582031 68.429688 46.714844 L 68.75 46.894531 C 68.976562 47 69.226562 47.078125 69.496094 47.132812 L 69.804688 47.097656 L 70.070312 47.003906 L 70.300781 46.855469 L 70.488281 46.644531 L 70.636719 46.378906 L 70.746094 46.054688 L 70.8125 45.671875 L 70.84375 45.234375 C 70.839844 44.671875 70.820312 44.308594 70.785156 44.148438 C 70.765625 44.015625 70.738281 43.878906 70.707031 43.746094 C 70.617188 43.410156 70.554688 43.207031 70.523438 43.136719 C 70.519531 43.125 70.515625 43.109375 70.511719 43.097656 C 70.914062 43.167969 71.324219 43.203125 71.742188 43.203125 C 71.75 43.203125 71.757812 43.203125 71.761719 43.203125 C 72.601562 43.195312 73.285156 42.976562 73.824219 42.546875 C 74 42.40625 74.152344 42.238281 74.28125 42.050781 L 74.464844 41.746094 L 74.613281 41.410156 C 74.640625 41.277344 74.652344 41.144531 74.65625 41.015625 C 74.675781 40.398438 74.378906 39.820312 73.769531 39.285156 C 73.671875 39.210938 73.5625 39.136719 73.441406 39.070312 L 73.25 38.972656 C 73.117188 38.90625 72.976562 38.847656 72.824219 38.792969 C 72.390625 38.703125 72.039062 38.660156 71.773438 38.660156 C 71.746094 38.660156 71.722656 38.660156 71.699219 38.660156 L 71.566406 38.664062 C 71.542969 38.660156 71.519531 38.660156 71.492188 38.660156 C 71.472656 38.660156 71.449219 38.660156 71.425781 38.664062 C 71.707031 38.277344 71.9375 37.929688 72.125 37.621094 C 72.257812 37.417969 72.402344 37.132812 72.558594 36.757812 C 72.589844 36.699219 72.625 36.539062 72.660156 36.28125 C 72.667969 36.175781 72.664062 36.078125 72.652344 35.984375 C 72.585938 35.660156 72.46875 35.433594 72.296875 35.3125 C 72.140625 35.171875 71.953125 35.101562 71.742188 35.101562 L 71.722656 35.101562 C 70.90625 35.207031 70 36.046875 69.007812 37.621094 C 68.828125 37.957031 68.667969 38.273438 68.527344 38.578125 C 68.464844 38.125 68.40625 37.6875 68.351562 37.265625 C 68.246094 36.671875 68.132812 36.226562 68.019531 35.925781 C 67.769531 35.355469 67.542969 34.960938 67.339844 34.738281 C 67.234375 34.609375 67.125 34.503906 67.015625 34.425781 L 66.851562 34.332031 C 66.738281 34.277344 66.628906 34.253906 66.515625 34.253906 Z M 15.152344 42.445312 L 15.09375 42.449219 C 14.828125 42.449219 14.53125 42.59375 14.199219 42.875 C 13.734375 43.347656 13.414062 43.78125 13.238281 44.175781 C 12.664062 45.242188 12.347656 46.441406 12.296875 47.769531 L 12.277344 48.199219 L 12.304688 48.824219 C 12.066406 48.539062 11.699219 48.128906 11.203125 47.601562 C 10.972656 47.355469 10.398438 46.878906 9.476562 46.167969 C 8.40625 45.40625 7.503906 45.023438 6.765625 45.023438 L 6.726562 45.023438 C 6.714844 45.023438 6.703125 45.023438 6.691406 45.023438 C 6.363281 45.023438 6.011719 45.160156 5.632812 45.433594 C 5.394531 45.675781 5.269531 45.839844 5.253906 45.917969 C 5.1875 46.042969 5.136719 46.183594 5.097656 46.335938 C 4.957031 46.847656 5.175781 47.507812 5.761719 48.3125 C 6.277344 49.007812 7.03125 49.71875 8.019531 50.449219 C 7.703125 50.402344 7.382812 50.367188 7.054688 50.34375 L 6.597656 50.355469 C 6.300781 50.367188 6.015625 50.390625 5.746094 50.429688 C 5.101562 50.546875 4.726562 50.628906 4.632812 50.683594 C 4.402344 50.757812 4.191406 50.847656 3.992188 50.949219 C 3.558594 51.152344 3.128906 51.398438 2.699219 51.683594 C 2.234375 52.050781 1.976562 52.28125 1.921875 52.375 C 1.773438 52.542969 1.640625 52.71875 1.527344 52.90625 C 1.300781 53.191406 1.226562 53.523438 1.300781 53.898438 C 1.472656 54.308594 1.6875 54.59375 1.949219 54.761719 C 1.976562 54.808594 2.175781 54.921875 2.546875 55.101562 C 2.710938 55.171875 2.890625 55.238281 3.09375 55.300781 C 4.332031 55.660156 5.804688 55.839844 7.507812 55.839844 C 7.574219 55.839844 7.640625 55.835938 7.707031 55.835938 C 8.113281 55.832031 8.613281 55.804688 9.207031 55.75 C 8.851562 56.003906 8.492188 56.273438 8.128906 56.5625 C 7.746094 56.910156 7.40625 57.265625 7.105469 57.621094 L 6.683594 58.160156 C 6.425781 58.519531 6.207031 58.882812 6.03125 59.253906 L 5.800781 59.808594 C 5.664062 60.183594 5.570312 60.5625 5.519531 60.941406 L 5.472656 61.519531 L 5.492188 61.785156 C 5.632812 62.707031 6.09375 63.164062 6.878906 63.164062 C 6.992188 63.164062 7.113281 63.15625 7.242188 63.136719 C 7.773438 63.03125 8.210938 62.867188 8.546875 62.652344 C 8.882812 62.480469 9.25 62.238281 9.652344 61.921875 L 10.28125 61.398438 C 10.847656 60.894531 11.472656 60.273438 12.152344 59.527344 L 12.15625 59.527344 C 12.011719 60.328125 11.949219 60.863281 11.972656 61.136719 C 11.976562 61.816406 11.988281 62.207031 12.003906 62.308594 C 12.039062 62.785156 12.101562 63.199219 12.1875 63.554688 C 12.394531 64.457031 12.683594 65.132812 13.058594 65.589844 C 13.332031 65.933594 13.632812 66.109375 13.960938 66.109375 C 14.03125 66.109375 14.105469 66.097656 14.179688 66.082031 C 14.367188 66.066406 14.691406 65.894531 15.140625 65.570312 C 15.238281 65.492188 15.453125 65.238281 15.792969 64.808594 C 16.292969 64.113281 16.628906 63.324219 16.800781 62.441406 C 17.039062 61.3125 17.09375 59.902344 16.960938 58.207031 C 17.199219 58.414062 17.441406 58.609375 17.683594 58.792969 L 18.257812 59.199219 C 18.644531 59.453125 19.039062 59.671875 19.4375 59.859375 C 20.234375 60.207031 20.945312 60.382812 21.574219 60.382812 C 22.402344 60.382812 23.085938 60.078125 23.625 59.472656 C 23.828125 59.164062 23.96875 58.855469 24.050781 58.550781 C 24.132812 58.25 24.15625 57.949219 24.117188 57.65625 L 24.011719 57.214844 C 23.910156 56.925781 23.75 56.640625 23.53125 56.355469 L 23.152344 55.9375 C 22.8125 55.625 22.53125 55.382812 22.316406 55.210938 C 21.945312 54.941406 21.46875 54.6875 20.886719 54.449219 L 20.886719 54.453125 C 21.25 54.230469 21.539062 54.050781 21.75 53.917969 C 21.886719 53.851562 22.433594 53.460938 23.390625 52.742188 C 24.300781 52.066406 24.964844 51.320312 25.382812 50.515625 C 25.859375 49.585938 25.839844 48.796875 25.324219 48.136719 C 24.597656 47.3125 23.710938 46.898438 22.667969 46.898438 C 22.628906 46.898438 22.585938 46.898438 22.542969 46.898438 L 22.507812 46.898438 C 22.5 46.898438 22.496094 46.898438 22.488281 46.898438 C 21.453125 46.898438 20.339844 47.28125 19.144531 48.050781 C 18.707031 48.371094 18.296875 48.710938 17.917969 49.0625 L 17.914062 48.429688 C 17.886719 47.316406 17.78125 46.503906 17.59375 45.996094 C 17.269531 44.945312 16.925781 44.125 16.570312 43.542969 C 16.390625 43.25 16.207031 43.015625 16.019531 42.839844 L 15.734375 42.621094 C 15.546875 42.503906 15.351562 42.445312 15.152344 42.445312 Z M 15.152344 42.445312 " fill-opacity="1" fill-rule="nonzero"/><path fill="#ea8891" d="M 29.03125 34.695312 L 29 35.039062 L 28.917969 35.066406 L 28.878906 34.722656 Z M 28.347656 26.347656 L 28.335938 26.347656 C 27.914062 26.433594 27.5625 26.714844 27.28125 27.191406 C 27.136719 27.453125 27.027344 27.730469 26.949219 28.023438 C 26.910156 28.164062 26.878906 28.304688 26.855469 28.445312 L 26.824219 28.65625 C 26.808594 28.796875 26.800781 28.933594 26.796875 29.070312 C 26.792969 29.082031 26.800781 29.34375 26.824219 29.867188 L 26.882812 30.464844 L 26.984375 31.066406 L 27.121094 31.671875 C 27.1875 31.929688 27.265625 32.1875 27.355469 32.449219 L 27.140625 32.242188 C 26.855469 31.980469 26.550781 31.730469 26.230469 31.488281 C 25.90625 31.246094 25.566406 31.015625 25.207031 30.792969 C 24.527344 30.398438 23.878906 30.1875 23.257812 30.167969 L 23.140625 30.171875 C 22.988281 30.183594 22.835938 30.222656 22.695312 30.28125 C 22.515625 30.367188 22.414062 30.429688 22.378906 30.460938 L 22.28125 30.539062 L 22.128906 30.75 L 22.046875 30.976562 C 22.011719 31.128906 22.023438 31.292969 22.078125 31.460938 C 22.132812 31.628906 22.234375 31.804688 22.378906 31.992188 L 22.625 32.273438 C 22.8125 32.464844 23.046875 32.664062 23.324219 32.871094 L 23.902344 33.246094 C 24.285156 33.484375 24.664062 33.703125 25.035156 33.898438 L 25.589844 34.179688 C 25.957031 34.355469 26.320312 34.507812 26.675781 34.640625 C 26.695312 34.648438 26.714844 34.65625 26.730469 34.664062 C 26.347656 34.824219 25.941406 35.035156 25.511719 35.296875 C 25.1875 35.492188 24.851562 35.714844 24.503906 35.96875 L 24.050781 36.375 C 23.765625 36.640625 23.519531 36.902344 23.3125 37.15625 C 22.6875 37.917969 22.402344 38.613281 22.460938 39.246094 C 22.488281 39.375 22.523438 39.488281 22.566406 39.589844 L 22.640625 39.730469 C 22.695312 39.820312 22.757812 39.890625 22.832031 39.949219 C 22.90625 40.007812 22.988281 40.050781 23.082031 40.078125 C 23.125 40.105469 23.234375 40.117188 23.410156 40.117188 C 23.441406 40.117188 23.472656 40.117188 23.503906 40.117188 C 23.890625 40.058594 24.234375 39.949219 24.535156 39.789062 C 24.535156 39.789062 24.535156 39.789062 24.539062 39.789062 C 24.570312 39.789062 24.789062 39.660156 25.1875 39.394531 L 25.664062 39.054688 C 25.980469 38.8125 26.300781 38.546875 26.617188 38.257812 L 27.089844 37.804688 C 27.28125 37.617188 27.472656 37.417969 27.660156 37.210938 L 27.710938 37.726562 L 27.824219 38.300781 L 27.996094 38.914062 C 28.128906 39.332031 28.304688 39.777344 28.515625 40.242188 C 28.746094 40.683594 28.929688 40.96875 29.070312 41.105469 C 29.242188 41.304688 29.429688 41.476562 29.640625 41.625 C 30.03125 41.828125 30.398438 41.929688 30.742188 41.929688 C 30.929688 41.929688 31.109375 41.902344 31.28125 41.839844 L 31.605469 41.6875 L 31.875 41.476562 L 32.09375 41.207031 L 32.257812 40.878906 L 32.371094 40.488281 L 32.429688 40.039062 L 32.4375 39.53125 L 32.390625 38.960938 L 32.292969 38.332031 C 32.1875 37.890625 32.070312 37.484375 31.929688 37.117188 C 31.792969 36.753906 31.636719 36.425781 31.464844 36.140625 L 31.40625 36.050781 L 32.253906 35.597656 L 33.121094 35.035156 L 33.847656 34.449219 L 34.433594 33.84375 L 34.878906 33.214844 L 35.179688 32.5625 L 35.339844 31.890625 C 35.347656 31.601562 35.304688 31.355469 35.210938 31.15625 C 35.023438 30.691406 34.453125 30.429688 33.5 30.382812 L 33.410156 30.382812 C 33.117188 30.386719 32.71875 30.46875 32.210938 30.636719 C 31.882812 30.75 31.574219 30.890625 31.28125 31.0625 C 30.816406 31.335938 30.398438 31.6875 30.023438 32.117188 C 30.167969 31.070312 30.230469 30.332031 30.222656 29.898438 C 30.222656 29.457031 30.195312 29.058594 30.132812 28.703125 C 30.066406 28.355469 29.984375 28.046875 29.890625 27.773438 L 29.734375 27.394531 C 29.402344 26.699219 28.941406 26.347656 28.347656 26.347656 Z M 48.15625 48.402344 C 46.746094 48.402344 44.628906 49.289062 41.800781 51.0625 C 37.523438 51.441406 35.117188 51.734375 34.585938 51.945312 C 32.96875 52.417969 31.710938 52.964844 30.8125 53.582031 C 29.136719 54.582031 27.65625 56.546875 26.371094 59.476562 C 23.992188 60.910156 22.105469 62.425781 20.710938 64.015625 C 19.765625 65.140625 19.066406 66.167969 18.609375 67.09375 C 18.382812 67.546875 18.203125 68.050781 18.066406 68.613281 C 17.65625 70.292969 17.65625 72.464844 18.0625 75.121094 C 16.761719 77.109375 15.875 78.703125 15.398438 79.90625 C 15.15625 80.355469 14.949219 81.335938 14.777344 82.847656 C 14.691406 83.0625 14.832031 83.90625 15.199219 85.386719 C 15.585938 86.621094 16.238281 87.992188 17.160156 89.5 C 16.277344 91.875 16.050781 93.816406 16.480469 95.332031 C 17.085938 96.632812 18.386719 97.777344 20.382812 98.769531 C 21.800781 101.523438 22.832031 102.976562 23.484375 103.132812 C 25.226562 104.460938 28.128906 105.214844 32.1875 105.390625 C 32.40625 105.402344 32.632812 105.410156 32.871094 105.410156 C 34.328125 105.410156 36.160156 105.164062 38.375 104.671875 C 39.257812 105.625 40.320312 106.316406 41.570312 106.738281 C 42.984375 107.234375 44.570312 107.484375 46.335938 107.484375 C 47.476562 107.484375 48.6875 107.378906 49.976562 107.171875 C 51.8125 108.148438 53.300781 108.714844 54.4375 108.871094 C 54.765625 108.941406 55.179688 108.972656 55.671875 108.972656 C 56.394531 108.972656 57.292969 108.902344 58.367188 108.753906 C 60.367188 108.277344 61.585938 107.902344 62.015625 107.636719 C 63.679688 106.929688 65.390625 105.933594 67.15625 104.660156 C 67.773438 104.730469 68.378906 104.769531 68.964844 104.769531 C 70.972656 104.769531 72.796875 104.335938 74.429688 103.46875 C 76.191406 102.8125 78.777344 100.558594 82.191406 96.710938 C 83.847656 96.054688 85.160156 95.300781 86.121094 94.449219 C 87.398438 93.15625 88.28125 91.769531 88.773438 90.28125 C 89.078125 89.730469 89.269531 88.09375 89.339844 85.363281 C 90.664062 82.308594 91.269531 80.441406 91.160156 79.753906 C 91.207031 78.972656 91.191406 78.394531 91.109375 78.015625 C 90.464844 76.5 90.042969 74.433594 89.84375 71.816406 C 89.753906 71.238281 89.5 70.53125 89.085938 69.6875 C 88.546875 68.296875 86.59375 66.417969 83.222656 64.058594 C 82.28125 61.347656 81.011719 58.9375 79.417969 56.835938 C 77.136719 54.433594 75.042969 52.625 73.140625 51.410156 L 72.636719 51.191406 L 63.105469 49.328125 L 53.738281 50.722656 C 53.695312 50.742188 53.652344 50.761719 53.609375 50.78125 C 53.207031 50.214844 52.726562 49.75 52.175781 49.386719 C 51.78125 49.125 51.347656 48.917969 50.875 48.761719 C 50.6875 48.617188 49.894531 48.5 48.496094 48.410156 L 48.378906 48.410156 C 48.308594 48.40625 48.234375 48.402344 48.15625 48.402344 Z M 48.15625 48.402344 " fill-opacity="1" fill-rule="nonzero"/><path fill="#b44650" d="M 81.972656 43.003906 L 81.90625 43.007812 C 81.722656 43.023438 81.527344 43.113281 81.3125 43.269531 C 81.089844 43.507812 80.949219 43.707031 80.886719 43.867188 C 80.796875 44.0625 80.71875 44.28125 80.660156 44.53125 C 80.589844 44.882812 80.566406 45.238281 80.585938 45.59375 C 80.582031 45.75 80.628906 46.070312 80.726562 46.5625 C 80.789062 46.847656 80.867188 47.140625 80.964844 47.433594 L 81.121094 47.882812 L 81.300781 48.332031 C 81.421875 48.621094 81.558594 48.910156 81.710938 49.203125 C 81.667969 49.171875 81.625 49.144531 81.582031 49.113281 C 80.621094 48.488281 79.691406 48.175781 78.796875 48.175781 L 78.742188 48.175781 C 78.609375 48.175781 78.480469 48.183594 78.351562 48.199219 L 78.203125 48.238281 C 78.109375 48.265625 78.019531 48.296875 77.933594 48.332031 C 77.5625 48.5 77.316406 48.667969 77.203125 48.835938 C 77.09375 48.984375 77.039062 49.070312 77.039062 49.097656 C 76.992188 49.207031 76.980469 49.3125 77 49.40625 C 77.042969 49.582031 77.164062 49.746094 77.359375 49.890625 C 77.5625 50.019531 77.8125 50.128906 78.109375 50.210938 C 78.238281 50.257812 78.535156 50.320312 79 50.398438 L 79.53125 50.464844 C 79.609375 50.476562 79.730469 50.484375 79.890625 50.496094 C 80.171875 50.511719 80.570312 50.53125 81.085938 50.550781 C 80.9375 50.632812 80.796875 50.730469 80.65625 50.835938 C 80.101562 51.363281 79.710938 51.933594 79.484375 52.558594 L 79.382812 52.875 C 79.324219 53.085938 79.285156 53.304688 79.261719 53.53125 C 79.28125 53.847656 79.335938 54.121094 79.425781 54.34375 C 79.515625 54.570312 79.640625 54.746094 79.796875 54.878906 C 80.054688 55.097656 80.300781 55.210938 80.53125 55.210938 C 80.542969 55.210938 80.554688 55.210938 80.5625 55.210938 C 80.984375 55.183594 81.316406 55.027344 81.558594 54.742188 C 81.679688 54.640625 81.878906 54.363281 82.160156 53.90625 C 82.335938 53.601562 82.511719 53.25 82.6875 52.851562 C 82.773438 52.648438 82.855469 52.445312 82.929688 52.234375 L 82.933594 52.234375 C 82.960938 52.292969 82.988281 52.34375 83.015625 52.386719 C 83.207031 52.726562 83.417969 53.03125 83.648438 53.304688 C 83.875 53.597656 84.34375 53.921875 85.054688 54.269531 C 85.320312 54.390625 85.625 54.453125 85.964844 54.453125 C 86.046875 54.453125 86.125 54.449219 86.210938 54.441406 L 86.347656 54.421875 C 86.4375 54.402344 86.519531 54.378906 86.601562 54.34375 C 86.679688 54.308594 86.753906 54.265625 86.828125 54.214844 C 86.96875 54.113281 87.089844 53.976562 87.195312 53.808594 C 87.34375 53.449219 87.351562 53.09375 87.222656 52.742188 C 87.105469 52.417969 86.984375 52.164062 86.855469 51.984375 C 86.769531 51.828125 86.523438 51.523438 86.113281 51.078125 C 86.003906 50.925781 85.460938 50.476562 84.476562 49.738281 C 85.09375 49.296875 85.476562 49.015625 85.625 48.890625 C 85.921875 48.664062 86.175781 48.390625 86.390625 48.074219 C 86.414062 48.042969 86.453125 47.957031 86.503906 47.816406 C 86.519531 47.761719 86.527344 47.707031 86.53125 47.652344 C 86.542969 47.460938 86.515625 47.289062 86.441406 47.144531 C 86.277344 46.886719 85.996094 46.75 85.597656 46.738281 L 85.542969 46.742188 C 85.332031 46.746094 85.101562 46.796875 84.859375 46.886719 C 84.617188 46.984375 84.347656 47.148438 84.050781 47.375 L 83.902344 47.496094 C 83.695312 47.695312 83.507812 47.898438 83.335938 48.105469 C 83.269531 48.183594 83.207031 48.265625 83.144531 48.347656 C 83.15625 48.1875 83.164062 48.027344 83.171875 47.875 C 83.199219 47.386719 83.210938 46.933594 83.207031 46.519531 L 83.195312 45.929688 C 83.183594 45.554688 83.15625 45.214844 83.117188 44.914062 L 83.046875 44.492188 L 82.957031 44.128906 L 82.875 43.890625 C 82.640625 43.300781 82.339844 43.003906 81.972656 43.003906 Z M 43.664062 52.726562 L 43.515625 52.734375 C 43.511719 52.734375 43.503906 52.734375 43.5 52.734375 C 43.347656 52.734375 43.101562 52.785156 42.757812 52.886719 C 42.609375 52.941406 42.347656 53.054688 41.980469 53.226562 C 41.730469 53.332031 41.0625 53.800781 39.976562 54.644531 C 39.859375 54.71875 39.710938 54.78125 39.53125 54.839844 C 39.402344 54.871094 39.285156 54.882812 39.179688 54.882812 C 39.167969 54.882812 39.15625 54.882812 39.148438 54.882812 C 38.296875 54.828125 37.644531 54.796875 37.199219 54.796875 C 37.03125 54.796875 36.894531 54.800781 36.78125 54.808594 C 36.234375 54.847656 35.601562 54.992188 34.890625 55.242188 C 34.3125 55.5 33.777344 55.792969 33.277344 56.128906 C 32.425781 56.734375 31.859375 57.210938 31.578125 57.550781 L 32.734375 57.671875 C 32.980469 57.539062 33.226562 57.410156 33.472656 57.292969 L 33.839844 57.121094 C 34.082031 57.011719 34.328125 56.910156 34.574219 56.816406 C 35.0625 56.632812 35.546875 56.480469 36.035156 56.367188 C 36.449219 56.269531 36.90625 56.207031 37.402344 56.183594 C 37.585938 56.164062 38.417969 56.144531 39.894531 56.125 C 40.183594 56.101562 40.453125 56.042969 40.707031 55.949219 C 40.835938 55.894531 40.96875 55.8125 41.113281 55.707031 C 41.722656 55.121094 42.273438 54.667969 42.761719 54.347656 C 42.902344 54.253906 43.441406 54.023438 44.371094 53.664062 C 44.582031 53.566406 44.753906 53.464844 44.882812 53.363281 C 45.261719 53.011719 44.855469 52.800781 43.664062 52.726562 Z M 62.699219 62.121094 L 62.730469 62.140625 C 62.820312 62.191406 62.921875 62.230469 63.027344 62.257812 Z M 75.808594 57.574219 L 75.777344 57.578125 C 75.691406 57.585938 75.5625 57.625 75.394531 57.699219 C 74.390625 58.203125 73.742188 58.515625 73.453125 58.636719 C 73.054688 58.796875 72.695312 58.917969 72.375 58.996094 C 71.875 59.128906 71.398438 59.226562 70.9375 59.289062 C 70.648438 59.328125 69.988281 59.359375 68.957031 59.386719 C 68.734375 59.40625 68.515625 59.449219 68.308594 59.515625 C 68.015625 59.628906 67.808594 59.734375 67.683594 59.835938 C 66.476562 60.875 65.589844 61.550781 65.023438 61.867188 C 64.636719 62.058594 64.296875 62.179688 63.996094 62.242188 C 63.765625 62.285156 63.5625 62.308594 63.394531 62.308594 C 63.253906 62.308594 63.132812 62.292969 63.035156 62.261719 L 63.152344 62.308594 C 63.289062 62.601562 63.390625 62.769531 63.460938 62.808594 C 63.734375 63.046875 63.917969 63.183594 64.015625 63.210938 C 64.53125 63.472656 65.019531 63.601562 65.472656 63.601562 C 65.546875 63.601562 65.621094 63.597656 65.691406 63.589844 C 66.542969 63.523438 67.355469 63.285156 68.125 62.871094 C 68.476562 62.679688 68.859375 62.4375 69.277344 62.132812 C 69.730469 61.773438 70.203125 61.355469 70.699219 60.878906 C 70.910156 60.707031 71.097656 60.589844 71.261719 60.527344 C 71.414062 60.464844 71.605469 60.421875 71.835938 60.390625 C 72.953125 60.34375 73.632812 60.289062 73.878906 60.234375 C 74.386719 60.121094 74.78125 59.980469 75.0625 59.8125 C 75.402344 59.558594 75.632812 59.355469 75.746094 59.203125 C 75.898438 59.027344 76.007812 58.859375 76.082031 58.695312 C 76.152344 58.53125 76.183594 58.375 76.179688 58.226562 L 76.136719 58.003906 L 76.039062 57.792969 L 75.878906 57.589844 C 75.867188 57.582031 75.84375 57.574219 75.808594 57.574219 Z M 24.050781 64.050781 Z M 24.050781 64.054688 C 24.132812 64.160156 24.183594 64.222656 24.203125 64.238281 C 24.238281 64.277344 24.273438 64.316406 24.308594 64.355469 C 24.378906 64.429688 24.453125 64.5 24.53125 64.566406 C 24.515625 64.515625 24.496094 64.445312 24.472656 64.359375 Z M 38.910156 61.394531 C 38.910156 61.394531 38.910156 61.394531 38.90625 61.394531 L 38.898438 61.394531 L 37.351562 62.605469 C 37.214844 62.714844 36.953125 62.886719 36.558594 63.125 C 35.871094 63.53125 35.316406 63.757812 34.886719 63.804688 C 34.527344 63.890625 34.074219 63.941406 33.519531 63.957031 C 33.496094 63.957031 33.472656 63.957031 33.441406 63.957031 C 33.128906 63.957031 32.398438 63.890625 31.246094 63.757812 C 31.164062 63.757812 31.085938 63.753906 31.015625 63.753906 C 30.820312 63.753906 30.652344 63.765625 30.515625 63.789062 C 30.328125 63.828125 30.132812 63.898438 29.9375 63.996094 C 28.636719 64.679688 27.945312 65.023438 27.871094 65.027344 C 27.632812 65.128906 27.285156 65.199219 26.828125 65.238281 C 26.730469 65.246094 26.632812 65.246094 26.535156 65.246094 C 25.71875 65.246094 25.050781 65.019531 24.53125 64.566406 L 24.53125 64.570312 C 24.785156 65.355469 25.269531 66 25.980469 66.5 C 26.480469 66.847656 27.082031 67.023438 27.789062 67.023438 C 27.863281 67.023438 27.9375 67.019531 28.011719 67.015625 C 28.515625 66.992188 29.089844 66.875 29.734375 66.664062 C 29.816406 66.636719 29.894531 66.609375 29.96875 66.582031 L 31.933594 65.726562 C 32.027344 65.703125 32.164062 65.683594 32.34375 65.667969 C 33.292969 65.640625 33.925781 65.601562 34.242188 65.550781 C 34.644531 65.496094 35.132812 65.324219 35.714844 65.027344 C 36.679688 64.347656 37.210938 63.941406 37.3125 63.808594 C 37.609375 63.539062 37.867188 63.269531 38.089844 63.003906 C 38.308594 62.734375 38.488281 62.46875 38.632812 62.203125 L 38.816406 61.804688 L 38.941406 61.410156 C 38.933594 61.402344 38.921875 61.394531 38.910156 61.394531 Z M 57.660156 52.390625 L 57.574219 52.402344 C 57.324219 52.464844 56.890625 52.773438 56.269531 53.324219 C 56.035156 53.574219 55.832031 53.839844 55.664062 54.125 L 55.429688 54.566406 L 55.246094 55.039062 L 55.109375 55.535156 L 55.019531 56.0625 L 54.980469 56.613281 L 54.984375 57.195312 L 55.035156 57.804688 L 55.089844 58.125 C 55.203125 58.761719 55.390625 59.382812 55.652344 59.988281 C 55.90625 60.585938 56.160156 61.03125 56.410156 61.324219 L 56.40625 61.324219 C 56.019531 61.742188 55.65625 62.253906 55.3125 62.855469 C 55.179688 63.132812 55.054688 63.410156 54.949219 63.691406 C 54.878906 63.832031 54.746094 64.261719 54.558594 64.984375 C 54.425781 65.570312 54.351562 66.167969 54.328125 66.78125 C 54.3125 67.152344 54.3125 67.511719 54.324219 67.855469 C 54.390625 68.691406 54.449219 69.171875 54.503906 69.304688 C 54.628906 69.90625 54.820312 70.445312 55.078125 70.929688 L 55.3125 69.265625 C 55.3125 68.925781 55.339844 68.578125 55.394531 68.222656 L 55.496094 67.6875 C 55.574219 67.320312 55.679688 66.949219 55.816406 66.570312 C 56.195312 65.605469 56.453125 65.015625 56.59375 64.800781 C 56.925781 64.117188 57.4375 63.378906 58.132812 62.585938 C 58.472656 62.097656 59.519531 61.179688 61.277344 59.835938 C 61.410156 59.628906 61.382812 59.515625 61.195312 59.5 L 61.097656 59.503906 C 59.742188 59.574219 58.609375 59.839844 57.710938 60.304688 C 57.5 59.960938 57.296875 59.492188 57.105469 58.90625 C 56.921875 58.378906 56.804688 57.710938 56.742188 56.910156 C 56.734375 56.257812 56.777344 55.683594 56.882812 55.183594 C 56.941406 54.894531 57.046875 54.539062 57.199219 54.113281 C 57.273438 53.894531 57.480469 53.398438 57.8125 52.628906 C 57.84375 52.488281 57.792969 52.410156 57.660156 52.390625 Z M 18.238281 74.238281 L 18.261719 74.585938 C 18.320312 75.277344 18.464844 75.933594 18.691406 76.554688 C 18.875 77.109375 19.222656 77.738281 19.734375 78.445312 C 20.242188 79.078125 20.746094 79.566406 21.253906 79.914062 C 21.390625 80.035156 21.707031 80.214844 22.207031 80.453125 L 22.855469 80.746094 C 22.894531 80.761719 22.921875 80.769531 22.941406 80.769531 C 22.964844 80.769531 22.976562 80.757812 22.980469 80.742188 C 22.957031 80.664062 22.910156 80.582031 22.835938 80.488281 C 22.1875 79.769531 21.75 79.253906 21.515625 78.9375 C 21.097656 78.382812 20.804688 77.976562 20.644531 77.71875 C 20.273438 77.117188 20.039062 76.703125 19.941406 76.484375 C 19.859375 76.324219 19.78125 76.027344 19.714844 75.59375 Z M 56.699219 72.4375 L 56.695312 72.4375 C 55.1875 73.304688 54.046875 73.8125 53.277344 73.960938 C 52.972656 74.042969 52.539062 74.085938 51.976562 74.085938 C 51.445312 74.085938 50.804688 74.046875 50.046875 73.972656 C 49.769531 73.988281 49.542969 74.039062 49.363281 74.125 C 49.242188 74.183594 49.09375 74.289062 48.914062 74.441406 C 48.316406 75.15625 47.640625 75.789062 46.882812 76.347656 C 46.652344 76.5 46.339844 76.644531 45.9375 76.78125 C 45.699219 76.882812 45.042969 77.050781 43.972656 77.292969 C 43.851562 77.363281 43.722656 77.464844 43.582031 77.601562 C 43.21875 78.054688 42.902344 78.421875 42.632812 78.699219 C 42.394531 78.917969 42.132812 79.082031 41.839844 79.195312 C 41.667969 79.234375 41.5 79.253906 41.335938 79.253906 C 40.976562 79.253906 40.632812 79.164062 40.300781 78.988281 C 40.15625 78.898438 40.023438 78.789062 39.902344 78.65625 C 39.621094 78.285156 39.46875 78.035156 39.445312 77.90625 C 39.328125 78.507812 39.28125 78.808594 39.304688 78.808594 C 39.308594 78.808594 39.308594 78.804688 39.3125 78.804688 C 39.332031 79.066406 39.476562 79.339844 39.742188 79.621094 C 40.59375 80.425781 41.402344 80.828125 42.167969 80.828125 C 42.210938 80.828125 42.257812 80.824219 42.300781 80.824219 C 43.394531 80.777344 44.523438 80.089844 45.691406 78.761719 C 46.988281 78.703125 47.972656 78.492188 48.644531 78.128906 C 49.046875 77.902344 49.414062 77.621094 49.75 77.292969 C 49.980469 77.085938 50.371094 76.589844 50.917969 75.808594 C 51.054688 75.652344 51.171875 75.546875 51.269531 75.5 C 51.398438 75.433594 51.574219 75.394531 51.789062 75.375 C 52.828125 75.347656 53.496094 75.308594 53.796875 75.253906 C 54.230469 75.199219 54.671875 75.050781 55.117188 74.808594 C 55.667969 74.5 56.101562 74.109375 56.429688 73.636719 C 56.878906 73.003906 56.972656 72.601562 56.699219 72.4375 Z M 73.300781 66.097656 L 72.769531 66.667969 C 73.398438 66.808594 74.007812 67.027344 74.59375 67.324219 C 75.175781 67.625 75.738281 68.003906 76.273438 68.460938 L 77.0625 69.210938 C 78.085938 70.285156 79.015625 71.679688 79.851562 73.394531 C 80.179688 74.097656 80.457031 74.820312 80.691406 75.554688 C 80.890625 76.097656 81.109375 77.039062 81.34375 78.382812 C 81.4375 78.957031 81.46875 79.671875 81.4375 80.527344 C 81.335938 82.121094 81.199219 83.40625 81.019531 84.390625 C 81.042969 84.542969 81.089844 84.617188 81.15625 84.617188 C 81.199219 84.617188 81.246094 84.59375 81.300781 84.542969 C 81.738281 83.980469 82.09375 83.328125 82.371094 82.585938 C 82.511719 82.210938 82.628906 81.816406 82.726562 81.398438 C 82.9375 80.3125 83.042969 79.632812 83.035156 79.359375 C 83.058594 78.96875 83.066406 78.585938 83.0625 78.210938 L 83.089844 78.117188 C 83.382812 77.242188 83.796875 76.257812 84.335938 75.164062 C 84.507812 74.808594 84.871094 74.296875 85.425781 73.625 C 85.820312 73.175781 86.441406 72.59375 87.285156 71.882812 C 87.34375 71.8125 87.40625 71.71875 87.46875 71.601562 C 87.496094 71.539062 87.511719 71.484375 87.511719 71.441406 L 87.378906 71.351562 C 87.160156 71.257812 86.949219 71.210938 86.738281 71.210938 C 86.710938 71.210938 86.6875 71.214844 86.664062 71.214844 L 86.570312 71.214844 C 85.9375 71.265625 85.5625 71.328125 85.457031 71.40625 C 84.988281 71.582031 84.570312 71.835938 84.195312 72.164062 C 83.828125 72.488281 83.507812 72.851562 83.230469 73.261719 C 83.121094 73.386719 82.898438 73.792969 82.566406 74.480469 C 82.535156 74.375 82.511719 74.300781 82.488281 74.253906 C 82.355469 73.824219 82.199219 73.414062 82.019531 73.015625 L 81.574219 72.089844 L 81 71.207031 L 80.292969 70.359375 C 79.777344 69.808594 79.175781 69.28125 78.488281 68.78125 C 77.109375 67.78125 75.378906 66.886719 73.300781 66.097656 Z M 55.390625 78.570312 L 55.308594 78.929688 C 55.132812 79.878906 55.324219 80.6875 55.882812 81.347656 C 55.96875 81.460938 56.242188 81.691406 56.707031 82.039062 C 56.894531 82.167969 57.089844 82.273438 57.285156 82.363281 C 57.65625 82.539062 58.085938 82.644531 58.578125 82.683594 C 58.65625 82.6875 58.734375 82.6875 58.8125 82.6875 C 59.09375 82.6875 59.363281 82.660156 59.625 82.605469 C 59.941406 82.535156 60.421875 82.382812 61.070312 82.144531 C 61.214844 82.105469 61.363281 82.082031 61.523438 82.078125 C 61.53125 82.078125 61.539062 82.078125 61.550781 82.078125 C 61.65625 82.078125 61.796875 82.097656 61.964844 82.144531 C 62.535156 82.347656 63.054688 82.507812 63.511719 82.625 C 63.597656 82.644531 63.679688 82.664062 63.757812 82.679688 L 63.757812 82.734375 C 63.917969 84.972656 64.660156 86.472656 65.972656 87.226562 L 66.453125 87.472656 L 66.707031 87.5625 C 67.050781 87.660156 67.660156 87.792969 68.539062 87.957031 C 69.390625 88.488281 70.085938 88.796875 70.632812 88.875 C 70.847656 88.90625 71.082031 88.921875 71.332031 88.921875 C 72.015625 88.921875 72.835938 88.804688 73.789062 88.566406 L 73.785156 88.566406 C 73.671875 88.574219 73.558594 88.582031 73.445312 88.582031 C 73.03125 88.582031 72.613281 88.515625 72.1875 88.382812 C 72 88.304688 71.820312 88.207031 71.648438 88.089844 L 70.164062 86.972656 C 70.039062 86.921875 69.894531 86.875 69.726562 86.84375 C 68.984375 86.722656 68.519531 86.640625 68.339844 86.585938 C 67.929688 86.460938 67.597656 86.316406 67.339844 86.144531 C 66.839844 85.84375 66.453125 85.453125 66.175781 84.964844 C 65.804688 84.265625 65.59375 83.804688 65.546875 83.582031 C 65.46875 83.363281 65.398438 83.128906 65.328125 82.882812 C 65.847656 82.878906 66.429688 82.804688 67.074219 82.660156 C 68.046875 82.402344 69.257812 81.5 70.699219 79.960938 C 69.347656 80.824219 68.0625 81.308594 66.847656 81.402344 C 66.699219 81.417969 66.546875 81.425781 66.390625 81.425781 C 65.976562 81.425781 65.542969 81.375 65.085938 81.269531 C 64.6875 81.183594 64.425781 81.117188 64.304688 81.074219 L 62.628906 80.511719 C 62.492188 80.472656 62.328125 80.445312 62.128906 80.425781 C 62.117188 80.421875 62.101562 80.421875 62.085938 80.421875 C 61.96875 80.421875 61.828125 80.441406 61.664062 80.476562 C 60.816406 80.726562 60.304688 80.859375 60.125 80.875 C 59.886719 80.914062 59.660156 80.933594 59.4375 80.933594 C 59.316406 80.933594 59.195312 80.925781 59.078125 80.914062 C 58.597656 80.871094 58.058594 80.679688 57.464844 80.335938 C 57.363281 80.296875 57.140625 80.121094 56.804688 79.8125 C 56.679688 79.679688 56.570312 79.542969 56.472656 79.390625 Z M 28.699219 83.46875 L 28.695312 83.46875 L 27.753906 84.699219 C 27.566406 84.9375 27.382812 85.152344 27.203125 85.351562 C 26.84375 85.75 26.503906 86.066406 26.179688 86.3125 C 25.734375 86.632812 25.332031 86.871094 24.972656 87.019531 C 23.921875 87.34375 23.300781 87.574219 23.109375 87.710938 C 22.949219 87.816406 22.414062 88.335938 21.507812 89.277344 C 21.199219 89.539062 20.917969 89.742188 20.664062 89.882812 C 20.296875 90.09375 19.917969 90.199219 19.527344 90.199219 C 19.007812 90.199219 18.464844 90.015625 17.898438 89.640625 L 18.03125 90.101562 C 18.363281 90.488281 18.710938 90.789062 19.078125 91.003906 C 19.570312 91.273438 20.046875 91.410156 20.511719 91.410156 C 20.59375 91.410156 20.675781 91.40625 20.757812 91.394531 C 20.757812 91.394531 20.761719 91.394531 20.765625 91.394531 C 21.28125 91.394531 21.996094 91.128906 22.902344 90.589844 C 23.550781 90.171875 24.273438 89.449219 25.070312 88.414062 L 26.609375 87.628906 C 26.902344 87.429688 27.132812 87.25 27.300781 87.085938 C 27.769531 86.628906 28.144531 86.023438 28.421875 85.265625 C 28.617188 84.613281 28.71875 84.207031 28.722656 84.039062 L 28.78125 83.585938 C 28.769531 83.515625 28.742188 83.476562 28.699219 83.46875 Z M 84.148438 91.496094 L 84.019531 91.496094 C 83.445312 91.511719 82.902344 91.582031 82.390625 91.695312 C 81.875 91.828125 81.289062 92.066406 80.625 92.414062 C 80.300781 92.558594 79.664062 92.980469 78.714844 93.683594 C 78.351562 93.957031 77.847656 94.394531 77.199219 95.007812 C 77.035156 95.132812 76.894531 95.214844 76.773438 95.257812 C 76.660156 95.300781 76.546875 95.324219 76.433594 95.324219 C 76.429688 95.324219 76.429688 95.324219 76.425781 95.324219 C 75.386719 95.203125 74.578125 95.140625 73.996094 95.140625 C 73.699219 95.140625 73.460938 95.15625 73.285156 95.1875 C 72.851562 95.230469 72.203125 95.445312 71.339844 95.828125 C 70.65625 96.234375 70.109375 96.636719 69.695312 97.042969 C 69.484375 97.246094 69.3125 97.449219 69.167969 97.652344 C 69.058594 97.753906 68.917969 98.054688 68.753906 98.5625 L 69.621094 97.917969 L 69.917969 97.78125 C 70.324219 97.609375 70.753906 97.460938 71.210938 97.339844 C 71.316406 97.304688 71.671875 97.230469 72.28125 97.117188 C 72.816406 97.03125 73.394531 96.988281 74.019531 96.988281 C 74.105469 96.988281 74.195312 96.988281 74.285156 96.992188 L 77.6875 97.171875 C 77.699219 97.171875 77.710938 97.171875 77.722656 97.171875 C 78.015625 97.171875 78.304688 97.113281 78.59375 96.996094 C 78.808594 96.863281 79 96.699219 79.164062 96.507812 C 80.5 94.710938 81.332031 93.714844 81.652344 93.523438 C 82.183594 93.066406 83.160156 92.464844 84.574219 91.710938 C 84.640625 91.617188 84.648438 91.558594 84.601562 91.527344 C 84.585938 91.515625 84.566406 91.511719 84.535156 91.507812 Z M 18.316406 96.371094 L 18.199219 96.660156 C 18.152344 96.679688 18.230469 96.828125 18.4375 97.109375 L 18.875 97.527344 C 19.238281 97.835938 19.753906 98.210938 20.417969 98.648438 C 21.757812 99.351562 22.917969 99.816406 23.898438 100.046875 C 24.578125 100.191406 25.261719 100.277344 25.941406 100.292969 C 25.949219 100.296875 25.976562 100.296875 26.023438 100.296875 C 26.128906 100.296875 26.328125 100.292969 26.628906 100.28125 C 26.949219 100.257812 27.25 100.21875 27.53125 100.152344 C 28.375 99.960938 29.03125 99.582031 29.507812 99.007812 C 29.566406 98.882812 29.5 98.796875 29.300781 98.746094 C 28.90625 98.839844 28.269531 98.933594 27.394531 99.027344 C 26.898438 99.074219 26.410156 99.097656 25.933594 99.097656 C 25.140625 99.082031 24.582031 99.050781 24.257812 99 C 23.824219 98.945312 23.394531 98.871094 22.976562 98.773438 C 22.152344 98.585938 21.390625 98.324219 20.683594 97.988281 C 20.332031 97.816406 19.992188 97.628906 19.667969 97.425781 C 19.347656 97.21875 19.039062 96.992188 18.746094 96.75 Z M 52.347656 51.945312 L 51.660156 52.011719 C 50.4375 52.378906 49.667969 52.703125 49.355469 52.984375 C 48.246094 53.675781 47.023438 54.714844 45.691406 56.097656 C 44.742188 56.984375 44.085938 57.894531 43.714844 58.820312 C 43.492188 59.09375 43.414062 60.238281 43.484375 62.25 C 43.445312 62.507812 43.378906 62.695312 43.277344 62.8125 C 40.46875 63.882812 38.363281 65.382812 36.96875 67.3125 C 36.105469 68.234375 35.457031 70.125 35.023438 72.976562 C 33.242188 75.789062 32.210938 78 31.933594 79.617188 C 31.535156 81.535156 31.761719 84.222656 32.621094 87.675781 C 32 89.800781 31.703125 91.152344 31.730469 91.722656 C 31.71875 93.433594 31.890625 94.875 32.238281 96.046875 C 32.453125 96.796875 32.738281 97.519531 33.085938 98.207031 C 33.4375 98.898438 33.855469 99.558594 34.339844 100.191406 L 35.117188 101.113281 C 36.222656 102.3125 37.59375 103.394531 39.234375 104.355469 L 36.414062 99.621094 C 35.886719 98.535156 35.523438 97.367188 35.320312 96.125 C 35.164062 95.019531 35.242188 93.164062 35.550781 90.554688 L 35.554688 90.554688 C 35.734375 90.5625 35.917969 90.566406 36.105469 90.566406 C 36.894531 90.566406 37.699219 90.496094 38.515625 90.355469 C 38.910156 90.289062 39.300781 90.199219 39.691406 90.097656 L 40.273438 89.929688 C 40.660156 89.808594 41.046875 89.667969 41.433594 89.511719 C 41.761719 89.382812 42.050781 89.238281 42.308594 89.082031 L 42.664062 88.835938 C 42.882812 88.664062 43.066406 88.480469 43.210938 88.28125 C 43.503906 87.886719 43.652344 87.441406 43.652344 86.9375 C 43.621094 86.75 43.527344 86.65625 43.371094 86.65625 C 43.355469 86.65625 43.335938 86.65625 43.316406 86.660156 C 41.640625 87.160156 40.613281 87.441406 40.242188 87.5 C 39.628906 87.59375 39.058594 87.640625 38.527344 87.640625 C 38.257812 87.640625 38 87.628906 37.753906 87.605469 C 37.152344 87.546875 36.585938 87.414062 36.050781 87.203125 C 35.785156 87.097656 35.527344 86.972656 35.277344 86.828125 L 35.027344 86.667969 L 34.542969 83.933594 C 34.453125 82.117188 34.539062 80.785156 34.800781 79.9375 C 34.84375 79.191406 35.757812 77.550781 37.550781 75.019531 L 37.851562 71.179688 C 37.9375 70.546875 38.234375 69.800781 38.742188 68.941406 C 39.074219 68.339844 39.617188 67.742188 40.375 67.148438 C 40.824219 66.703125 42.105469 65.96875 44.222656 64.949219 C 45.929688 60.542969 47.039062 57.960938 47.546875 57.203125 C 48.96875 54.953125 50.78125 53.222656 52.988281 52.011719 Z M 51.113281 92.972656 L 51.101562 92.976562 C 51.058594 92.984375 51.011719 93.023438 50.960938 93.09375 C 50.863281 93.246094 50.636719 93.640625 50.28125 94.269531 C 49.878906 95 49.574219 95.625 49.371094 96.140625 C 49.128906 96.777344 48.941406 97.4375 48.804688 98.121094 C 48.757812 98.347656 48.71875 98.574219 48.683594 98.808594 L 48.636719 99.15625 C 48.621094 99.335938 48.609375 99.53125 48.601562 99.730469 L 48.597656 100.042969 C 48.597656 100.257812 48.605469 100.480469 48.617188 100.714844 C 48.644531 101.183594 48.691406 101.699219 48.765625 102.253906 C 48.863281 102.859375 49.015625 103.453125 49.21875 104.03125 C 49.730469 105.433594 50.296875 106.296875 50.917969 106.617188 L 51.25 105.753906 C 51.101562 105.484375 50.972656 105.1875 50.851562 104.863281 L 50.6875 104.355469 C 50.582031 104.003906 50.492188 103.625 50.417969 103.21875 C 50.339844 102.808594 50.277344 102.375 50.230469 101.910156 L 50.167969 101.195312 L 50.128906 100.4375 L 50.128906 100.09375 C 50.132812 99.246094 50.21875 98.273438 50.386719 97.171875 C 50.445312 96.832031 50.539062 96.367188 50.671875 95.769531 C 50.804688 95.175781 50.980469 94.453125 51.191406 93.605469 L 51.234375 93.359375 C 51.25 93.277344 51.253906 93.199219 51.25 93.132812 C 51.214844 93.03125 51.171875 92.980469 51.113281 92.972656 Z M 51.113281 92.972656 " fill-opacity="1" fill-rule="nonzero"/><g clip-path="url(#553f789462)"><path fill="#36560e" d="M 83.386719 32.65625 C 83.386719 32.65625 83.382812 32.65625 83.378906 32.65625 L 83.347656 32.65625 C 83.277344 32.65625 83.183594 32.671875 83.0625 32.703125 C 82.945312 32.746094 82.824219 32.820312 82.695312 32.929688 C 82.664062 32.949219 82.605469 33.019531 82.515625 33.140625 C 82.484375 33.1875 82.457031 33.238281 82.4375 33.289062 C 82.394531 33.394531 82.375 33.503906 82.375 33.617188 C 82.382812 33.730469 82.40625 33.832031 82.453125 33.917969 C 82.480469 33.976562 82.523438 34.035156 82.574219 34.09375 C 82.589844 34.160156 82.628906 34.246094 82.691406 34.351562 C 82.738281 34.421875 82.789062 34.488281 82.835938 34.539062 C 82.992188 34.710938 83.175781 34.792969 83.382812 34.792969 L 83.386719 34.792969 C 83.425781 34.792969 83.480469 34.785156 83.550781 34.769531 L 83.648438 34.71875 C 83.757812 34.65625 83.855469 34.566406 83.933594 34.457031 C 84.105469 34.210938 84.191406 33.9375 84.195312 33.628906 C 84.199219 33.59375 84.191406 33.507812 84.171875 33.367188 C 84.164062 33.3125 84.148438 33.257812 84.132812 33.210938 C 84.105469 33.121094 84.050781 33.019531 83.960938 32.910156 C 83.804688 32.742188 83.613281 32.65625 83.386719 32.65625 Z M 28.867188 33.230469 C 28.71875 33.230469 28.582031 33.253906 28.453125 33.300781 C 28.355469 33.335938 28.285156 33.367188 28.238281 33.394531 C 28.101562 33.472656 28.027344 33.523438 28.007812 33.546875 C 27.964844 33.585938 27.925781 33.625 27.890625 33.667969 C 27.863281 33.695312 27.820312 33.753906 27.769531 33.851562 C 27.707031 33.976562 27.679688 34.117188 27.683594 34.273438 L 27.691406 34.40625 L 27.699219 34.433594 C 27.71875 34.507812 27.742188 34.578125 27.769531 34.644531 C 27.886719 34.90625 28.085938 35.09375 28.359375 35.207031 L 28.367188 35.210938 C 28.492188 35.261719 28.621094 35.285156 28.75 35.285156 C 28.875 35.285156 29.007812 35.261719 29.140625 35.21875 C 29.273438 35.167969 29.394531 35.105469 29.507812 35.019531 C 29.605469 34.941406 29.667969 34.878906 29.691406 34.84375 C 29.730469 34.792969 29.765625 34.746094 29.789062 34.695312 C 29.835938 34.609375 29.855469 34.511719 29.859375 34.40625 C 29.859375 34.351562 29.851562 34.296875 29.835938 34.242188 C 29.847656 34.199219 29.847656 34.125 29.839844 34.023438 C 29.835938 33.957031 29.820312 33.894531 29.796875 33.835938 C 29.710938 33.609375 29.542969 33.441406 29.304688 33.324219 C 29.160156 33.261719 29.015625 33.230469 28.867188 33.230469 Z M 68.191406 38.902344 L 68.121094 38.90625 C 67.972656 38.910156 67.773438 38.96875 67.527344 39.085938 C 67.4375 39.125 67.292969 39.238281 67.089844 39.425781 C 66.96875 39.554688 66.882812 39.703125 66.832031 39.875 C 66.753906 40.085938 66.710938 40.273438 66.707031 40.433594 L 66.710938 40.636719 L 66.742188 40.828125 L 66.808594 41.015625 L 66.902344 41.191406 C 67.007812 41.339844 67.066406 41.417969 67.074219 41.417969 C 67.339844 41.726562 67.648438 41.878906 67.996094 41.878906 C 68.003906 41.878906 68.007812 41.878906 68.015625 41.878906 C 68.222656 41.875 68.449219 41.824219 68.695312 41.722656 C 68.890625 41.613281 69.070312 41.480469 69.230469 41.320312 C 69.550781 41.015625 69.730469 40.621094 69.769531 40.140625 C 69.769531 39.789062 69.625 39.484375 69.332031 39.226562 C 69.261719 39.175781 69.175781 39.121094 69.070312 39.066406 C 69.011719 39.039062 68.949219 39.015625 68.886719 38.996094 C 68.753906 38.964844 68.636719 38.945312 68.53125 38.945312 C 68.464844 38.945312 68.402344 38.953125 68.347656 38.96875 L 68.351562 38.917969 C 68.324219 38.910156 68.269531 38.90625 68.191406 38.902344 Z M 38.273438 43.148438 L 38.257812 43.148438 L 38.257812 43.152344 C 38.21875 43.148438 38.167969 43.15625 38.101562 43.167969 C 38.046875 43.183594 38.007812 43.199219 37.988281 43.207031 L 37.976562 43.183594 L 37.90625 43.246094 C 37.882812 43.253906 37.832031 43.285156 37.761719 43.34375 C 37.722656 43.375 37.699219 43.394531 37.691406 43.40625 C 37.628906 43.460938 37.578125 43.554688 37.53125 43.679688 C 37.523438 43.707031 37.515625 43.738281 37.511719 43.769531 C 37.507812 43.804688 37.507812 43.84375 37.515625 43.878906 C 37.507812 43.886719 37.503906 43.925781 37.496094 44 C 37.496094 44.074219 37.511719 44.152344 37.542969 44.226562 C 37.59375 44.324219 37.628906 44.378906 37.648438 44.398438 C 37.679688 44.4375 37.710938 44.472656 37.75 44.511719 C 37.835938 44.585938 37.886719 44.628906 37.90625 44.632812 C 37.941406 44.65625 37.976562 44.671875 38.015625 44.6875 C 38.082031 44.710938 38.152344 44.722656 38.226562 44.722656 C 38.234375 44.722656 38.246094 44.722656 38.253906 44.722656 C 38.261719 44.722656 38.269531 44.722656 38.277344 44.722656 C 38.347656 44.722656 38.433594 44.707031 38.53125 44.675781 C 38.640625 44.628906 38.722656 44.578125 38.78125 44.515625 C 38.933594 44.359375 39.015625 44.175781 39.015625 43.96875 C 39.015625 43.730469 38.964844 43.550781 38.867188 43.429688 C 38.710938 43.25 38.515625 43.15625 38.273438 43.148438 Z M 83.101562 49.15625 C 83.089844 49.15625 83.082031 49.15625 83.074219 49.15625 L 83.023438 49.15625 C 82.925781 49.15625 82.785156 49.1875 82.605469 49.242188 C 82.386719 49.347656 82.238281 49.4375 82.164062 49.503906 C 82.046875 49.605469 81.957031 49.699219 81.898438 49.785156 C 81.816406 49.90625 81.753906 50.058594 81.710938 50.238281 C 81.695312 50.351562 81.691406 50.429688 81.699219 50.476562 C 81.707031 50.539062 81.71875 50.601562 81.738281 50.660156 C 81.777344 50.78125 81.847656 50.902344 81.949219 51.027344 C 82.039062 51.132812 82.140625 51.214844 82.25 51.261719 C 82.335938 51.304688 82.441406 51.324219 82.5625 51.324219 C 82.566406 51.324219 82.570312 51.324219 82.578125 51.324219 C 82.699219 51.3125 82.816406 51.289062 82.933594 51.242188 C 82.992188 51.222656 83.050781 51.195312 83.109375 51.164062 C 83.253906 51.082031 83.34375 51.03125 83.371094 51.003906 C 83.480469 50.917969 83.582031 50.808594 83.679688 50.671875 C 83.75 50.59375 83.808594 50.453125 83.863281 50.253906 C 83.878906 50.195312 83.886719 50.136719 83.890625 50.078125 C 83.894531 49.933594 83.890625 49.851562 83.875 49.828125 C 83.863281 49.734375 83.8125 49.621094 83.726562 49.488281 C 83.664062 49.394531 83.558594 49.304688 83.421875 49.226562 C 83.296875 49.179688 83.191406 49.15625 83.101562 49.15625 Z M 58.765625 3.035156 L 58.804688 3.566406 C 58.878906 4.867188 59.285156 6.289062 60.015625 7.835938 C 60.433594 8.675781 60.851562 9.429688 61.273438 10.101562 C 63.519531 13.394531 64.820312 15.359375 65.175781 15.992188 C 65.9375 17.40625 66.378906 18.429688 66.492188 19.058594 L 66.664062 20.171875 L 66.691406 21.054688 C 66.675781 21.648438 66.589844 22.257812 66.429688 22.875 C 66.269531 23.492188 66.042969 24.121094 65.742188 24.761719 C 65.550781 25.167969 65.332031 25.578125 65.085938 25.992188 L 57.605469 33.777344 C 56.6875 34.910156 55.808594 36.34375 54.964844 38.082031 C 53.585938 41.316406 53.214844 46.335938 53.855469 53.144531 L 54.628906 51.632812 C 54.621094 50.402344 54.660156 49.226562 54.742188 48.105469 L 54.894531 46.457031 C 55.019531 45.386719 55.1875 44.367188 55.398438 43.402344 C 55.824219 41.472656 56.421875 39.753906 57.195312 38.246094 C 57.863281 36.816406 58.671875 35.507812 59.628906 34.320312 C 64.675781 29.097656 67.429688 26.109375 67.890625 25.351562 C 67.96875 25.226562 68.042969 25.105469 68.113281 24.988281 C 68.742188 24.6875 69.359375 24.492188 69.964844 24.398438 C 70.488281 24.285156 71.019531 24.203125 71.550781 24.152344 C 73.625 24.039062 75.386719 23.90625 76.835938 23.75 C 77.933594 23.578125 78.855469 23.390625 79.597656 23.1875 C 80.277344 23.015625 81.039062 22.734375 81.878906 22.339844 C 82.453125 22.0625 83.003906 21.753906 83.53125 21.40625 C 85.109375 20.363281 86.464844 19 87.605469 17.308594 C 88.070312 16.699219 88.800781 15.378906 89.796875 13.339844 L 90.6875 11.398438 C 90.765625 11.167969 90.742188 11.050781 90.609375 11.050781 L 90.59375 11.050781 L 90.429688 11.09375 C 88.738281 11.996094 87.625 12.550781 87.085938 12.757812 C 86.371094 13.0625 85.605469 13.351562 84.78125 13.621094 C 83.957031 13.914062 81.011719 14.480469 75.953125 15.324219 C 74.660156 15.660156 73.660156 16.046875 72.960938 16.492188 C 72.234375 16.925781 71.601562 17.414062 71.058594 17.953125 C 71.082031 17.398438 71.0625 16.753906 71.003906 16.019531 C 70.894531 14.015625 70.527344 12.203125 69.90625 10.574219 C 69.601562 9.78125 69.230469 9.054688 68.804688 8.398438 C 68.410156 7.796875 68.039062 7.324219 67.691406 6.980469 C 67.105469 6.390625 66.394531 5.875 65.558594 5.433594 C 63.226562 4.800781 60.964844 4.003906 58.769531 3.035156 Z M 30.054688 16.507812 L 30.027344 16.511719 C 29.964844 16.53125 29.929688 16.632812 29.925781 16.8125 C 29.941406 17.4375 30.011719 18.054688 30.128906 18.664062 C 30.246094 19.273438 30.414062 19.875 30.632812 20.472656 L 31 21.359375 C 31.269531 21.949219 31.585938 22.53125 31.957031 23.105469 C 32.328125 23.683594 32.746094 24.25 33.214844 24.8125 C 33.574219 25.28125 34.363281 26.015625 35.582031 27.007812 C 38.882812 29.265625 40.828125 30.648438 41.40625 31.152344 C 43.035156 32.519531 44.128906 33.507812 44.695312 34.109375 L 44.695312 34.113281 C 44.679688 34.335938 44.667969 34.5625 44.660156 34.800781 L 44.652344 35.433594 C 44.652344 35.867188 44.667969 36.324219 44.699219 36.796875 C 44.726562 37.230469 44.769531 37.660156 44.820312 38.089844 C 45.054688 39.859375 45.421875 41.449219 45.921875 42.855469 C 46.03125 43.199219 46.230469 43.746094 46.519531 44.496094 C 47.902344 47.632812 48.71875 49.613281 48.96875 50.441406 C 49.265625 51.378906 49.386719 52.414062 49.328125 53.539062 L 50.542969 53.925781 C 50.628906 52.960938 50.566406 52.054688 50.355469 51.210938 C 50.222656 50.703125 50.078125 50.242188 49.925781 49.832031 C 48.988281 47.5625 48.476562 46.285156 48.394531 46.003906 C 48.214844 45.5 47.855469 44.414062 47.316406 42.753906 C 46.722656 40.8125 46.34375 39.023438 46.183594 37.390625 C 46.101562 36.6875 46.085938 35.792969 46.132812 34.707031 C 46.285156 34.371094 46.566406 33.863281 46.96875 33.1875 C 47.417969 32.46875 48.160156 31.679688 49.1875 30.824219 C 49.859375 30.261719 50.78125 29.671875 51.953125 29.054688 C 55.582031 27.4375 57.554688 26.496094 57.878906 26.226562 C 58.628906 25.785156 59.324219 25.21875 59.976562 24.53125 C 60.816406 23.539062 61.277344 22.929688 61.355469 22.695312 C 61.605469 22.269531 61.820312 21.824219 61.996094 21.367188 C 62.375 20.199219 62.554688 19.484375 62.542969 19.214844 L 62.613281 18.457031 C 62.585938 18.335938 62.523438 18.265625 62.417969 18.25 L 62.40625 18.25 L 59.578125 20.011719 C 59.34375 20.164062 58.84375 20.425781 58.082031 20.800781 L 51.730469 23.023438 C 51.523438 23.117188 51.316406 23.210938 51.113281 23.316406 C 50.027344 23.867188 49.113281 24.523438 48.371094 25.289062 C 47.523438 26.171875 46.820312 27.234375 46.265625 28.46875 L 45.878906 29.425781 C 45.863281 29.46875 45.847656 29.507812 45.832031 29.546875 C 45.839844 29.175781 45.832031 28.800781 45.8125 28.421875 C 45.808594 27 45.351562 25.664062 44.449219 24.414062 C 43.867188 23.582031 42.890625 22.871094 41.527344 22.273438 C 40.878906 21.992188 39.039062 21.421875 36.003906 20.558594 C 35.265625 20.300781 34.460938 19.945312 33.582031 19.488281 C 33.121094 19.238281 32.605469 18.871094 32.039062 18.386719 C 31.476562 17.902344 30.855469 17.296875 30.183594 16.570312 C 30.140625 16.53125 30.097656 16.511719 30.054688 16.507812 Z M 14.316406 50.589844 L 14.21875 50.59375 C 14.035156 50.601562 13.855469 50.625 13.679688 50.660156 C 13.585938 50.660156 13.335938 50.753906 12.925781 50.933594 C 12.605469 51.097656 12.304688 51.324219 12.023438 51.609375 C 11.398438 52.253906 11.09375 52.949219 11.105469 53.691406 C 11.117188 54.035156 11.1875 54.335938 11.3125 54.59375 C 11.582031 55.078125 11.796875 55.386719 11.964844 55.515625 C 12.1875 55.734375 12.5625 55.957031 13.085938 56.183594 C 13.566406 56.324219 13.929688 56.394531 14.171875 56.394531 C 14.21875 56.394531 14.261719 56.390625 14.300781 56.386719 C 14.609375 56.351562 14.945312 56.21875 15.3125 55.980469 C 15.421875 55.90625 15.527344 55.828125 15.628906 55.738281 C 15.804688 55.566406 15.960938 55.390625 16.097656 55.207031 C 16.542969 54.597656 16.757812 53.914062 16.738281 53.160156 C 16.738281 52.863281 16.6875 52.566406 16.585938 52.273438 C 16.496094 52.011719 16.300781 51.703125 16 51.351562 C 15.546875 50.878906 14.984375 50.625 14.316406 50.589844 Z M 99.609375 53.730469 L 99.554688 53.730469 C 99.347656 53.742188 99.152344 53.785156 98.964844 53.859375 C 98.871094 53.898438 98.78125 53.945312 98.691406 54.003906 C 98.644531 54.019531 98.511719 54.121094 98.300781 54.308594 C 98.160156 54.433594 98.039062 54.59375 97.929688 54.792969 C 97.8125 55.011719 97.742188 55.238281 97.710938 55.472656 C 97.703125 55.617188 97.703125 55.707031 97.710938 55.746094 L 97.832031 56.253906 C 97.898438 56.429688 97.980469 56.566406 98.074219 56.65625 C 98.382812 56.964844 98.769531 57.121094 99.230469 57.121094 C 99.773438 57.101562 100.25 56.949219 100.671875 56.667969 C 101.066406 56.402344 101.308594 56.027344 101.402344 55.539062 C 101.429688 55.097656 101.28125 54.703125 100.960938 54.351562 C 100.617188 53.964844 100.167969 53.761719 99.609375 53.730469 Z M 2.222656 62.449219 L 2.179688 62.460938 C 2.085938 62.542969 2.027344 62.664062 2.003906 62.816406 L 1.761719 64.332031 C 1.609375 65.351562 1.515625 66.238281 1.476562 66.992188 C 1.398438 68.269531 1.511719 69.382812 1.8125 70.328125 C 2.050781 70.953125 2.386719 71.582031 2.824219 72.207031 C 4.613281 74.3125 5.683594 75.699219 6.035156 76.375 C 6.34375 76.914062 6.652344 77.507812 6.964844 78.148438 C 7.117188 78.539062 7.277344 78.933594 7.4375 79.335938 L 7.445312 79.578125 L 7.691406 81.9375 L 8.121094 84.324219 L 8.164062 84.5 C 8.015625 84.292969 7.871094 84.105469 7.734375 83.941406 C 7.433594 83.53125 6.921875 83.039062 6.207031 82.46875 L 5.828125 82.210938 C 4.5 81.554688 3.472656 81.007812 2.746094 80.574219 C 2.367188 80.308594 2.0625 80.070312 1.832031 79.863281 C 1.261719 79.34375 0.78125 78.886719 0.394531 78.488281 L 0.292969 78.453125 L 0.242188 78.464844 C 0.117188 78.515625 0.0390625 78.78125 0.0078125 79.261719 C 0.0390625 79.535156 0.0976562 79.808594 0.175781 80.078125 C 0.410156 80.894531 0.859375 81.699219 1.523438 82.492188 C 2.015625 83.0625 2.484375 83.523438 2.9375 83.871094 C 5.183594 85.457031 6.480469 86.421875 6.832031 86.765625 C 7.328125 87.238281 7.699219 87.609375 7.949219 87.878906 C 8.859375 88.917969 9.5625 89.710938 10.058594 90.253906 C 10.339844 90.878906 10.648438 91.5 10.980469 92.121094 C 10.851562 92.101562 10.660156 92.078125 10.414062 92.046875 C 8.953125 91.976562 8.042969 91.910156 7.691406 91.847656 C 7.234375 91.804688 6.109375 91.546875 4.316406 91.078125 C 4.109375 91.035156 3.925781 91.011719 3.773438 91.011719 L 3.757812 91.011719 C 3.394531 91.3125 3.484375 91.886719 4.019531 92.734375 C 4.578125 93.632812 5.277344 94.328125 6.121094 94.824219 C 6.753906 95.175781 7.335938 95.417969 7.867188 95.542969 L 8.285156 95.652344 C 9.457031 95.863281 10.421875 96.046875 11.175781 96.210938 C 11.933594 96.371094 12.480469 96.507812 12.824219 96.621094 C 13.378906 96.8125 13.921875 97.0625 14.445312 97.378906 C 14.863281 97.917969 15.316406 98.492188 15.808594 99.097656 C 17.730469 101.414062 19.542969 102.667969 21.246094 102.855469 L 18.191406 99.769531 C 17.414062 98.878906 16.683594 97.921875 16.003906 96.902344 C 15.324219 95.882812 14.691406 94.796875 14.109375 93.652344 C 13.523438 92.503906 12.988281 91.292969 12.503906 90.019531 L 11.808594 88.0625 C 11.59375 87.394531 11.390625 86.726562 11.203125 86.066406 C 11.144531 85.6875 11.101562 85.3125 11.066406 84.941406 L 11 83.863281 C 10.980469 83.15625 11.003906 82.472656 11.074219 81.808594 C 11.144531 81.148438 11.261719 80.507812 11.421875 79.890625 C 11.722656 78.703125 12.167969 77.660156 12.75 76.761719 C 13.222656 75.925781 14.3125 74.707031 16.015625 73.101562 C 16.3125 72.722656 16.515625 72.398438 16.628906 72.121094 C 16.789062 71.691406 16.929688 71.265625 17.050781 70.84375 L 17.222656 70.214844 C 17.324219 69.796875 17.410156 69.378906 17.476562 68.96875 L 17.566406 68.355469 C 17.613281 67.945312 17.644531 67.542969 17.660156 67.140625 L 17.664062 66.542969 C 17.644531 66.476562 17.613281 66.441406 17.5625 66.441406 C 17.558594 66.441406 17.554688 66.441406 17.550781 66.441406 L 17.523438 66.445312 C 17.457031 66.453125 17.363281 66.488281 17.25 66.558594 C 16.679688 67.089844 15.757812 67.816406 14.476562 68.746094 C 13.753906 69.25 13.035156 69.695312 12.332031 70.074219 C 11.867188 70.425781 11.5 70.746094 11.234375 71.035156 C 10.414062 72.125 9.765625 73.480469 9.285156 75.105469 C 9.230469 74.046875 9.210938 72.984375 9.230469 71.925781 L 9.316406 69.9375 C 9.402344 68.613281 9.546875 67.289062 9.753906 65.964844 L 8.917969 68.164062 L 8.410156 69.902344 C 8.195312 69.375 7.859375 68.859375 7.40625 68.359375 C 5.132812 66.71875 3.902344 65.695312 3.710938 65.285156 C 3.386719 64.867188 2.925781 63.933594 2.320312 62.492188 C 2.292969 62.46875 2.261719 62.453125 2.222656 62.449219 Z M 93.738281 66.242188 L 93.660156 66.257812 C 93.324219 66.382812 92.886719 67.605469 92.351562 69.925781 C 92.257812 70.421875 92.191406 70.898438 92.15625 71.355469 C 92.121094 71.8125 92.117188 72.246094 92.144531 72.660156 L 92.203125 73.265625 C 92.390625 74.261719 92.613281 74.996094 92.871094 75.46875 C 94.871094 78.527344 96.011719 80.457031 96.292969 81.261719 C 96.679688 82.351562 96.960938 83.335938 97.132812 84.21875 C 97.234375 84.703125 97.320312 85.210938 97.394531 85.734375 C 97.394531 85.738281 97.394531 85.738281 97.394531 85.738281 L 97.390625 85.738281 C 97.265625 86.105469 97.136719 86.464844 97.007812 86.816406 C 96.847656 87.476562 95.914062 89.515625 94.210938 92.9375 C 93.941406 93.457031 93.671875 93.960938 93.394531 94.453125 C 93.695312 93.753906 93.90625 93.238281 94.019531 92.910156 C 94.195312 92.402344 94.296875 92.003906 94.328125 91.722656 C 94.414062 91.199219 94.402344 90.722656 94.296875 90.292969 L 94.226562 89.976562 C 93.855469 88.914062 93.582031 88.089844 93.40625 87.503906 C 93.273438 86.90625 93.203125 86.449219 93.203125 86.125 C 93.183594 85.359375 93.203125 84.746094 93.265625 84.292969 L 94.085938 79.578125 L 94.015625 79.5625 L 93.921875 79.582031 C 93.589844 79.640625 92.746094 81.066406 91.382812 83.867188 C 91.335938 83.882812 91.101562 84.558594 90.679688 85.898438 C 90.519531 86.460938 90.394531 86.996094 90.308594 87.503906 C 90.125 88.582031 90.082031 89.824219 90.183594 91.226562 C 90.3125 92.410156 90.59375 94.140625 91.027344 96.417969 C 91.117188 97.019531 91.175781 97.535156 91.207031 97.960938 L 91.203125 97.960938 C 88.554688 101.761719 85.542969 104.582031 82.179688 106.417969 C 82.195312 106.453125 82.238281 106.472656 82.300781 106.472656 C 82.308594 106.472656 82.320312 106.472656 82.332031 106.472656 L 87.148438 103.953125 L 89.152344 102.609375 C 89.566406 102.316406 89.972656 102.015625 90.363281 101.714844 C 91.644531 100.980469 92.648438 100.488281 93.371094 100.242188 C 94.371094 99.863281 95.039062 99.632812 95.371094 99.546875 C 96.289062 99.285156 97.726562 98.953125 99.675781 98.546875 C 99.949219 98.472656 100.226562 98.390625 100.503906 98.296875 C 101.882812 97.816406 102.851562 97.34375 103.410156 96.871094 C 104.890625 95.816406 106.09375 94.503906 107.027344 92.941406 C 107.542969 92.101562 108.023438 91.070312 108.464844 89.84375 C 108.777344 88.941406 108.804688 88.488281 108.542969 88.488281 L 108.527344 88.488281 C 108.496094 88.488281 108.460938 88.496094 108.421875 88.511719 C 106.46875 90.382812 105.1875 91.550781 104.574219 92.019531 C 103.675781 92.761719 102.882812 93.34375 102.195312 93.773438 C 101.210938 94.316406 100.394531 94.699219 99.75 94.929688 L 96.054688 96.085938 L 96.675781 95.269531 C 97.398438 94.21875 98.011719 93.144531 98.515625 92.039062 C 98.855469 91.273438 99.160156 90.488281 99.433594 89.683594 L 99.433594 89.6875 C 100.4375 88.367188 101.574219 87.058594 102.839844 85.753906 C 104.113281 84.402344 106.347656 82.507812 109.539062 80.082031 C 109.921875 79.746094 110.308594 79.363281 110.691406 78.929688 C 110.8125 78.796875 110.921875 78.648438 111.023438 78.484375 C 111.433594 77.796875 111.691406 77.003906 111.800781 76.113281 C 111.867188 75.34375 111.9375 73.835938 112.011719 71.585938 C 112.007812 71.082031 111.929688 70.800781 111.769531 70.734375 L 111.761719 70.734375 L 108.015625 73.996094 L 103.769531 76.820312 L 102.933594 77.679688 C 102.390625 78.289062 101.886719 78.960938 101.417969 79.699219 C 101.328125 79.839844 101.242188 79.980469 101.15625 80.125 C 101.507812 75.445312 101.644531 72.835938 101.554688 72.289062 C 101.589844 71.734375 101.496094 70.753906 101.28125 69.351562 C 101.175781 68.871094 101.035156 68.507812 100.863281 68.257812 L 100.511719 71.378906 C 100.203125 73.808594 99.832031 76.089844 99.398438 78.222656 L 99.167969 77.742188 C 98.789062 77.058594 98.0625 75.957031 96.980469 74.4375 C 96.652344 73.867188 96.242188 73.074219 95.742188 72.058594 C 95.464844 71.453125 94.875 69.570312 93.964844 66.402344 C 93.910156 66.308594 93.832031 66.253906 93.738281 66.242188 Z M 93.738281 66.242188 " fill-opacity="1" fill-rule="nonzero"/></g></svg>