<svg xmlns="http://www.w3.org/2000/svg" xmlns:xlink="http://www.w3.org/1999/xlink" width="150" zoomAndPan="magnify" viewBox="0 0 112.5 112.499997" height="150" preserveAspectRatio="xMidYMid meet" version="1.0"><defs><clipPath id="2394003beb"><path d="M 0.847656 1.695312 L 111.355469 1.695312 L 111.355469 112 L 0.847656 112 Z M 0.847656 1.695312 " clip-rule="nonzero"/></clipPath></defs><g clip-path="url(#2394003beb)"><path fill="#fb74b4" d="M 105.488281 32.546875 C 107.355469 36.328125 108.761719 40.269531 109.714844 44.375 C 110.667969 48.480469 111.136719 52.640625 111.125 56.859375 C 111.125 87.261719 86.390625 111.996094 55.988281 111.996094 C 25.582031 111.996094 0.847656 87.261719 0.847656 56.859375 C 0.847656 26.453125 25.582031 1.71875 55.988281 1.71875 C 60.128906 1.707031 64.21875 2.164062 68.257812 3.082031 C 72.296875 4 76.179688 5.363281 79.90625 7.164062 C 80.046875 7.234375 80.171875 7.324219 80.273438 7.441406 C 80.378906 7.558594 80.457031 7.691406 80.507812 7.839844 C 80.5625 7.984375 80.582031 8.136719 80.574219 8.292969 C 80.5625 8.449219 80.527344 8.597656 80.457031 8.738281 C 80.390625 8.878906 80.296875 9.003906 80.179688 9.105469 C 80.0625 9.210938 79.933594 9.289062 79.785156 9.339844 C 79.636719 9.390625 79.484375 9.414062 79.328125 9.40625 C 79.171875 9.394531 79.023438 9.355469 78.882812 9.289062 C 75.3125 7.5625 71.597656 6.261719 67.730469 5.382812 C 63.867188 4.503906 59.949219 4.066406 55.988281 4.078125 C 26.882812 4.078125 3.207031 27.753906 3.207031 56.859375 C 3.207031 85.960938 26.882812 109.636719 55.988281 109.636719 C 85.089844 109.636719 108.765625 85.960938 108.765625 56.859375 C 108.777344 52.824219 108.328125 48.839844 107.417969 44.910156 C 106.507812 40.980469 105.15625 37.207031 103.375 33.589844 C 103.304688 33.449219 103.265625 33.300781 103.253906 33.144531 C 103.246094 32.988281 103.265625 32.835938 103.316406 32.6875 C 103.367188 32.539062 103.441406 32.40625 103.546875 32.289062 C 103.648438 32.171875 103.769531 32.078125 103.910156 32.007812 C 104.050781 31.941406 104.199219 31.898438 104.355469 31.890625 C 104.511719 31.878906 104.664062 31.898438 104.8125 31.949219 C 104.960938 32 105.09375 32.078125 105.210938 32.179688 C 105.328125 32.285156 105.421875 32.40625 105.488281 32.546875 Z M 55.957031 11.851562 C 61.183594 11.84375 66.257812 12.726562 71.175781 14.503906 C 71.375 14.578125 71.578125 14.652344 71.777344 14.726562 C 71.925781 14.78125 72.074219 14.808594 72.230469 14.800781 C 72.386719 14.796875 72.539062 14.761719 72.679688 14.699219 C 72.824219 14.632812 72.949219 14.542969 73.054688 14.429688 C 73.164062 14.316406 73.246094 14.1875 73.300781 14.039062 C 73.355469 13.894531 73.378906 13.742188 73.375 13.585938 C 73.371094 13.429688 73.335938 13.277344 73.269531 13.136719 C 73.207031 12.992188 73.117188 12.867188 73.003906 12.761719 C 72.886719 12.65625 72.757812 12.574219 72.609375 12.519531 C 72.398438 12.4375 72.1875 12.359375 71.976562 12.285156 C 66.800781 10.414062 61.460938 9.484375 55.957031 9.492188 C 29.972656 9.492188 8.832031 30.632812 8.832031 56.617188 C 8.832031 82.601562 29.972656 103.742188 55.957031 103.742188 C 81.941406 103.742188 103.082031 82.601562 103.082031 56.617188 C 103.089844 50.890625 102.085938 45.351562 100.066406 39.992188 C 100.011719 39.847656 99.929688 39.714844 99.820312 39.601562 C 99.714844 39.488281 99.589844 39.398438 99.449219 39.335938 C 99.304688 39.269531 99.15625 39.234375 99 39.230469 C 98.84375 39.226562 98.691406 39.25 98.546875 39.304688 C 98.398438 39.359375 98.269531 39.441406 98.15625 39.546875 C 98.039062 39.65625 97.953125 39.78125 97.886719 39.921875 C 97.824219 40.066406 97.789062 40.214844 97.78125 40.371094 C 97.777344 40.527344 97.800781 40.679688 97.859375 40.824219 C 99.777344 45.914062 100.730469 51.179688 100.722656 56.617188 C 100.722656 81.300781 80.640625 101.382812 55.957031 101.382812 C 31.273438 101.382812 11.191406 81.300781 11.191406 56.617188 C 11.191406 31.933594 31.273438 11.851562 55.957031 11.851562 Z M 109.945312 11.886719 L 100.957031 11.886719 L 100.957031 2.898438 C 100.957031 2.742188 100.925781 2.589844 100.867188 2.445312 C 100.808594 2.300781 100.722656 2.175781 100.609375 2.066406 C 100.5 1.953125 100.371094 1.867188 100.226562 1.808594 C 100.082031 1.75 99.933594 1.71875 99.777344 1.71875 L 87.1875 1.71875 C 87.03125 1.71875 86.878906 1.75 86.734375 1.808594 C 86.589844 1.867188 86.464844 1.953125 86.351562 2.066406 C 86.242188 2.175781 86.15625 2.300781 86.097656 2.445312 C 86.039062 2.589844 86.007812 2.742188 86.007812 2.898438 L 86.007812 11.886719 L 77.019531 11.886719 C 76.863281 11.886719 76.710938 11.917969 76.566406 11.976562 C 76.421875 12.035156 76.296875 12.121094 76.183594 12.234375 C 76.074219 12.34375 75.988281 12.472656 75.929688 12.617188 C 75.867188 12.761719 75.839844 12.910156 75.839844 13.066406 L 75.839844 25.65625 C 75.839844 25.8125 75.867188 25.964844 75.929688 26.109375 C 75.988281 26.253906 76.074219 26.378906 76.183594 26.492188 C 76.296875 26.601562 76.421875 26.6875 76.566406 26.746094 C 76.710938 26.808594 76.863281 26.835938 77.019531 26.835938 L 86.007812 26.835938 L 86.007812 35.824219 C 86.007812 35.980469 86.039062 36.132812 86.097656 36.277344 C 86.15625 36.421875 86.242188 36.550781 86.351562 36.660156 C 86.464844 36.769531 86.589844 36.855469 86.734375 36.914062 C 86.878906 36.976562 87.03125 37.003906 87.1875 37.003906 L 99.777344 37.003906 C 99.933594 37.003906 100.082031 36.976562 100.226562 36.914062 C 100.371094 36.855469 100.5 36.769531 100.609375 36.660156 C 100.722656 36.550781 100.808594 36.421875 100.867188 36.277344 C 100.925781 36.132812 100.957031 35.980469 100.957031 35.824219 L 100.957031 26.835938 L 109.945312 26.835938 C 110.101562 26.835938 110.253906 26.808594 110.398438 26.746094 C 110.542969 26.6875 110.667969 26.601562 110.78125 26.492188 C 110.890625 26.378906 110.976562 26.253906 111.035156 26.109375 C 111.09375 25.964844 111.125 25.8125 111.125 25.65625 L 111.125 13.066406 C 111.125 12.910156 111.09375 12.761719 111.035156 12.617188 C 110.976562 12.472656 110.890625 12.34375 110.78125 12.234375 C 110.667969 12.121094 110.542969 12.035156 110.398438 11.976562 C 110.253906 11.917969 110.101562 11.886719 109.945312 11.886719 Z M 109.945312 11.886719 " fill-opacity="1" fill-rule="nonzero"/></g><path fill="#371416" d="M 97.472656 59.09375 L 80.339844 59.09375 C 80.183594 59.09375 80.035156 59.125 79.890625 59.183594 C 79.746094 59.246094 79.617188 59.328125 79.507812 59.441406 C 79.398438 59.550781 79.3125 59.675781 79.25 59.820312 C 79.191406 59.964844 79.160156 60.117188 79.160156 60.273438 C 78.898438 62.855469 79.3125 65.570312 79.710938 68.117188 C 80.199219 71.246094 81.515625 74.484375 80.710938 77.664062 C 80.359375 79.050781 79.605469 80.4375 78.324219 81.167969 C 77.011719 81.914062 75.390625 81.792969 74.046875 81.1875 C 70.996094 79.804688 69.804688 76.289062 69.378906 73.207031 C 68.800781 69.027344 69.261719 64.730469 69.921875 60.589844 C 69.925781 60.578125 69.925781 60.570312 69.925781 60.5625 C 69.972656 60.386719 69.980469 60.207031 69.941406 60.03125 C 69.90625 59.851562 69.832031 59.691406 69.71875 59.546875 C 69.609375 59.402344 69.46875 59.289062 69.304688 59.210938 C 69.140625 59.132812 68.96875 59.09375 68.785156 59.097656 L 58.496094 59.097656 C 58.339844 59.097656 58.1875 59.125 58.042969 59.183594 C 57.898438 59.246094 57.769531 59.332031 57.660156 59.441406 C 57.550781 59.550781 57.464844 59.679688 57.40625 59.824219 C 57.34375 59.96875 57.316406 60.117188 57.316406 60.273438 C 57.054688 62.855469 57.46875 65.570312 57.867188 68.117188 C 58.355469 71.246094 59.671875 74.484375 58.867188 77.664062 C 58.515625 79.050781 57.761719 80.4375 56.480469 81.167969 C 55.164062 81.914062 53.542969 81.792969 52.199219 81.1875 C 49.148438 79.804688 47.960938 76.289062 47.53125 73.207031 C 46.953125 69.027344 47.417969 64.730469 48.078125 60.589844 C 48.078125 60.578125 48.078125 60.570312 48.082031 60.5625 C 48.128906 60.386719 48.132812 60.207031 48.097656 60.03125 C 48.058594 59.851562 47.984375 59.691406 47.875 59.546875 C 47.761719 59.402344 47.625 59.289062 47.460938 59.210938 C 47.296875 59.132812 47.121094 59.09375 46.941406 59.097656 L 36.871094 59.097656 C 36.714844 59.097656 36.5625 59.125 36.417969 59.183594 C 36.273438 59.246094 36.148438 59.332031 36.035156 59.441406 C 35.925781 59.550781 35.839844 59.679688 35.78125 59.824219 C 35.71875 59.96875 35.691406 60.117188 35.691406 60.273438 C 35.4375 62.773438 35.832031 65.394531 36.203125 67.863281 C 36.671875 70.976562 38 74.214844 37.308594 77.382812 C 36.652344 80.378906 34.230469 82.410156 31.125 81.398438 C 27.949219 80.363281 26.542969 76.929688 26.019531 73.902344 C 25.273438 69.605469 26.007812 65.179688 26.691406 60.925781 C 26.714844 60.785156 26.714844 60.644531 26.691406 60.503906 C 26.726562 60.328125 26.722656 60.15625 26.679688 59.984375 C 26.636719 59.816406 26.558594 59.660156 26.445312 59.523438 C 26.335938 59.386719 26.199219 59.28125 26.039062 59.207031 C 25.878906 59.132812 25.710938 59.09375 25.535156 59.097656 L 14.054688 59.097656 C 13.898438 59.097656 13.75 59.125 13.605469 59.1875 C 13.460938 59.246094 13.332031 59.332031 13.222656 59.441406 C 13.113281 59.554688 13.027344 59.679688 12.96875 59.824219 C 12.910156 59.96875 12.878906 60.121094 12.878906 60.273438 C 12.878906 60.429688 12.910156 60.582031 12.96875 60.726562 C 13.027344 60.871094 13.113281 60.996094 13.222656 61.109375 C 13.332031 61.21875 13.460938 61.304688 13.605469 61.363281 C 13.75 61.425781 13.898438 61.453125 14.054688 61.453125 L 24.234375 61.453125 C 23.910156 63.496094 23.613281 65.550781 23.46875 67.613281 C 22.4375 67.613281 21.460938 67.386719 20.535156 66.925781 C 19.253906 66.304688 17.898438 66.011719 16.472656 66.042969 C 16.316406 66.042969 16.167969 66.074219 16.023438 66.132812 C 15.878906 66.191406 15.753906 66.277344 15.644531 66.390625 C 15.53125 66.5 15.449219 66.625 15.390625 66.769531 C 15.328125 66.914062 15.300781 67.066406 15.300781 67.222656 C 15.300781 67.378906 15.328125 67.527344 15.390625 67.671875 C 15.449219 67.816406 15.53125 67.941406 15.644531 68.054688 C 15.753906 68.164062 15.878906 68.25 16.023438 68.308594 C 16.167969 68.371094 16.316406 68.398438 16.472656 68.402344 C 17.570312 68.371094 18.609375 68.601562 19.589844 69.089844 C 20.785156 69.667969 22.050781 69.960938 23.378906 69.96875 C 23.371094 71.191406 23.445312 72.410156 23.605469 73.625 C 24.09375 77.214844 25.554688 81.058594 28.863281 82.953125 C 32.007812 84.753906 35.925781 84.277344 38.132812 81.285156 C 40.574219 77.972656 39.863281 73.714844 39 69.988281 C 38.996094 69.972656 38.992188 69.953125 38.988281 69.933594 C 40.066406 69.839844 41.09375 69.558594 42.066406 69.089844 C 42.96875 68.636719 43.925781 68.410156 44.933594 68.402344 C 44.898438 69.878906 44.960938 71.351562 45.125 72.820312 C 45.558594 76.566406 46.792969 80.539062 50.105469 82.71875 C 53.070312 84.671875 57.171875 84.492188 59.484375 81.636719 C 62.15625 78.335938 61.558594 74.015625 60.667969 70.175781 C 60.539062 69.605469 60.410156 69.019531 60.292969 68.429688 C 61.121094 68.5 61.90625 68.71875 62.648438 69.089844 C 63.933594 69.710938 65.289062 70.003906 66.710938 69.972656 C 66.734375 69.972656 66.757812 69.972656 66.78125 69.972656 C 66.800781 70.921875 66.859375 71.875 66.96875 72.820312 C 67.402344 76.566406 68.640625 80.539062 71.953125 82.71875 C 74.914062 84.671875 79.019531 84.492188 81.328125 81.636719 C 84 78.335938 83.402344 74.015625 82.515625 70.175781 C 82.492188 70.082031 82.472656 69.984375 82.449219 69.890625 C 83.386719 69.765625 84.285156 69.5 85.136719 69.089844 C 86.125 68.628906 87.164062 68.402344 88.253906 68.402344 C 89.34375 68.402344 90.382812 68.628906 91.375 69.089844 C 92.65625 69.710938 94.011719 70.003906 95.4375 69.972656 C 95.59375 69.972656 95.746094 69.945312 95.890625 69.886719 C 96.035156 69.824219 96.164062 69.742188 96.273438 69.628906 C 96.386719 69.519531 96.472656 69.390625 96.53125 69.246094 C 96.59375 69.101562 96.621094 68.949219 96.621094 68.792969 C 96.621094 68.636719 96.59375 68.484375 96.53125 68.339844 C 96.472656 68.195312 96.386719 68.070312 96.273438 67.957031 C 96.164062 67.847656 96.035156 67.761719 95.890625 67.703125 C 95.746094 67.644531 95.59375 67.613281 95.4375 67.613281 C 94.339844 67.644531 93.300781 67.414062 92.320312 66.925781 C 91.027344 66.335938 89.675781 66.042969 88.253906 66.042969 C 86.835938 66.042969 85.480469 66.335938 84.191406 66.925781 C 83.488281 67.273438 82.75 67.488281 81.972656 67.570312 C 81.578125 65.550781 81.398438 63.511719 81.441406 61.453125 L 97.472656 61.453125 C 97.628906 61.453125 97.78125 61.421875 97.921875 61.363281 C 98.066406 61.304688 98.195312 61.21875 98.304688 61.109375 C 98.414062 60.996094 98.5 60.871094 98.558594 60.726562 C 98.617188 60.582031 98.648438 60.429688 98.648438 60.273438 C 98.648438 60.121094 98.617188 59.96875 98.558594 59.824219 C 98.5 59.679688 98.414062 59.554688 98.304688 59.441406 C 98.195312 59.332031 98.066406 59.246094 97.921875 59.1875 C 97.78125 59.125 97.628906 59.097656 97.472656 59.09375 Z M 41.121094 66.925781 C 40.296875 67.335938 39.421875 67.5625 38.503906 67.601562 C 38.105469 65.570312 37.925781 63.523438 37.96875 61.453125 L 45.574219 61.453125 C 45.351562 62.976562 45.164062 64.507812 45.050781 66.042969 C 43.671875 66.03125 42.363281 66.328125 41.121094 66.925781 Z M 63.597656 66.925781 C 62.421875 66.359375 61.183594 66.0625 59.878906 66.046875 C 59.648438 64.523438 59.554688 62.992188 59.59375 61.453125 L 67.417969 61.453125 C 67.105469 63.496094 66.902344 65.550781 66.804688 67.613281 C 66.773438 67.613281 66.746094 67.613281 66.710938 67.613281 C 65.617188 67.644531 64.578125 67.414062 63.597656 66.925781 Z M 72.074219 74.085938 C 71.3125 71.246094 71.199219 68.269531 71.289062 65.359375 C 71.640625 54.21875 76.355469 43.597656 82.753906 34.152344 C 83.546875 32.980469 84.578125 31.828125 83.980469 33.132812 C 83.582031 34.003906 83.183594 34.875 82.789062 35.75 C 77.957031 46.53125 74.875 57.875 77.8125 69.464844 C 78.441406 71.945312 80.367188 78.992188 75.90625 78.945312 C 73.457031 78.917969 72.554688 75.886719 72.074219 74.085938 Z M 50.316406 74.085938 C 49.558594 71.246094 49.445312 68.269531 49.535156 65.359375 C 49.886719 54.21875 54.601562 43.597656 61 34.152344 C 61.792969 32.980469 62.820312 31.828125 62.226562 33.132812 C 61.828125 34.003906 61.429688 34.875 61.035156 35.75 C 56.203125 46.53125 53.121094 57.875 56.054688 69.464844 C 56.683594 71.945312 58.613281 78.992188 54.152344 78.945312 C 51.703125 78.917969 50.800781 75.886719 50.320312 74.085938 Z M 28.5625 74.085938 C 27.804688 71.246094 27.6875 68.269531 27.78125 65.359375 C 28.132812 54.21875 32.847656 43.597656 39.242188 34.152344 C 40.035156 32.980469 41.066406 31.828125 40.472656 33.132812 C 40.070312 34.003906 39.675781 34.875 39.28125 35.75 C 34.449219 46.53125 31.363281 57.875 34.300781 69.464844 C 34.929688 71.945312 36.855469 78.992188 32.398438 78.945312 C 29.949219 78.917969 29.046875 75.886719 28.5625 74.085938 Z M 73.261719 89.148438 C 73.261719 89.414062 73.210938 89.671875 73.109375 89.914062 C 73.007812 90.160156 72.863281 90.378906 72.675781 90.566406 C 72.488281 90.753906 72.273438 90.898438 72.027344 91 C 71.785156 91.101562 71.527344 91.152344 71.261719 91.152344 C 70.996094 91.152344 70.742188 91.101562 70.496094 91 C 70.253906 90.898438 70.035156 90.753906 69.847656 90.566406 C 69.660156 90.378906 69.515625 90.160156 69.414062 89.914062 C 69.3125 89.671875 69.261719 89.414062 69.261719 89.148438 C 69.261719 88.886719 69.3125 88.628906 69.414062 88.382812 C 69.515625 88.140625 69.660156 87.921875 69.847656 87.734375 C 70.035156 87.546875 70.253906 87.402344 70.496094 87.300781 C 70.742188 87.199219 70.996094 87.148438 71.261719 87.148438 C 71.527344 87.148438 71.785156 87.199219 72.027344 87.300781 C 72.273438 87.402344 72.488281 87.546875 72.675781 87.734375 C 72.863281 87.921875 73.007812 88.140625 73.109375 88.382812 C 73.210938 88.628906 73.261719 88.886719 73.261719 89.148438 Z M 90.90625 76.945312 C 90.90625 77.207031 90.855469 77.464844 90.753906 77.710938 C 90.652344 77.953125 90.507812 78.171875 90.320312 78.359375 C 90.132812 78.546875 89.917969 78.691406 89.671875 78.792969 C 89.425781 78.894531 89.171875 78.945312 88.90625 78.945312 C 88.640625 78.945312 88.386719 78.894531 88.140625 78.792969 C 87.894531 78.691406 87.679688 78.546875 87.492188 78.359375 C 87.304688 78.171875 87.160156 77.953125 87.058594 77.710938 C 86.957031 77.464844 86.90625 77.207031 86.90625 76.945312 C 86.90625 76.679688 86.957031 76.421875 87.058594 76.179688 C 87.160156 75.933594 87.304688 75.71875 87.492188 75.53125 C 87.679688 75.339844 87.894531 75.195312 88.140625 75.097656 C 88.386719 74.996094 88.640625 74.945312 88.90625 74.945312 C 89.171875 74.945312 89.425781 74.996094 89.671875 75.097656 C 89.917969 75.195312 90.132812 75.339844 90.320312 75.53125 C 90.507812 75.71875 90.652344 75.933594 90.753906 76.179688 C 90.855469 76.421875 90.90625 76.679688 90.90625 76.945312 Z M 48.410156 88.332031 C 48.410156 88.597656 48.359375 88.851562 48.257812 89.097656 C 48.15625 89.34375 48.011719 89.558594 47.824219 89.746094 C 47.636719 89.933594 47.421875 90.078125 47.175781 90.179688 C 46.929688 90.28125 46.675781 90.332031 46.410156 90.332031 C 46.144531 90.332031 45.890625 90.28125 45.644531 90.179688 C 45.398438 90.078125 45.183594 89.933594 44.996094 89.746094 C 44.808594 89.558594 44.664062 89.34375 44.5625 89.097656 C 44.460938 88.851562 44.410156 88.597656 44.410156 88.332031 C 44.410156 88.066406 44.460938 87.8125 44.5625 87.566406 C 44.664062 87.320312 44.808594 87.105469 44.996094 86.917969 C 45.183594 86.730469 45.398438 86.585938 45.644531 86.484375 C 45.890625 86.382812 46.144531 86.332031 46.410156 86.332031 C 46.675781 86.332031 46.929688 86.382812 47.175781 86.484375 C 47.421875 86.585938 47.636719 86.730469 47.824219 86.917969 C 48.011719 87.105469 48.15625 87.320312 48.257812 87.566406 C 48.359375 87.8125 48.410156 88.066406 48.410156 88.332031 Z M 32.527344 88.332031 C 32.527344 88.597656 32.476562 88.851562 32.375 89.097656 C 32.273438 89.34375 32.128906 89.558594 31.941406 89.746094 C 31.753906 89.933594 31.535156 90.078125 31.292969 90.179688 C 31.046875 90.28125 30.789062 90.332031 30.527344 90.332031 C 30.261719 90.332031 30.003906 90.28125 29.761719 90.179688 C 29.515625 90.078125 29.300781 89.933594 29.113281 89.746094 C 28.921875 89.558594 28.777344 89.34375 28.679688 89.097656 C 28.578125 88.851562 28.527344 88.597656 28.527344 88.332031 C 28.527344 88.066406 28.578125 87.8125 28.679688 87.566406 C 28.777344 87.320312 28.921875 87.105469 29.113281 86.917969 C 29.300781 86.730469 29.515625 86.585938 29.761719 86.484375 C 30.003906 86.382812 30.261719 86.332031 30.527344 86.332031 C 30.789062 86.332031 31.046875 86.382812 31.292969 86.484375 C 31.535156 86.585938 31.753906 86.730469 31.941406 86.917969 C 32.128906 87.105469 32.273438 87.320312 32.375 87.566406 C 32.476562 87.8125 32.527344 88.066406 32.527344 88.332031 Z M 60.496094 95.921875 C 60.496094 96.183594 60.445312 96.441406 60.34375 96.6875 C 60.242188 96.929688 60.097656 97.148438 59.910156 97.335938 C 59.722656 97.523438 59.503906 97.667969 59.261719 97.769531 C 59.015625 97.871094 58.757812 97.921875 58.496094 97.921875 C 58.230469 97.921875 57.972656 97.871094 57.730469 97.769531 C 57.484375 97.667969 57.269531 97.523438 57.082031 97.335938 C 56.894531 97.148438 56.75 96.929688 56.648438 96.6875 C 56.546875 96.441406 56.496094 96.183594 56.496094 95.921875 C 56.496094 95.65625 56.546875 95.398438 56.648438 95.15625 C 56.75 94.910156 56.894531 94.695312 57.082031 94.503906 C 57.269531 94.316406 57.484375 94.171875 57.730469 94.070312 C 57.972656 93.96875 58.230469 93.921875 58.496094 93.921875 C 58.757812 93.921875 59.015625 93.972656 59.261719 94.070312 C 59.503906 94.171875 59.722656 94.316406 59.910156 94.503906 C 60.097656 94.695312 60.242188 94.910156 60.34375 95.15625 C 60.445312 95.398438 60.496094 95.65625 60.496094 95.921875 Z M 60.496094 95.921875 " fill-opacity="1" fill-rule="nonzero"/></svg>