<svg xmlns="http://www.w3.org/2000/svg" xmlns:xlink="http://www.w3.org/1999/xlink" width="150" zoomAndPan="magnify" viewBox="0 0 112.5 112.499997" height="150" preserveAspectRatio="xMidYMid meet" version="1.0"><defs><clipPath id="1f6dc82ba9"><path d="M 1.113281 1.113281 L 112 1.113281 L 112 112 L 1.113281 112 Z M 1.113281 1.113281 " clip-rule="nonzero"/></clipPath></defs><g clip-path="url(#1f6dc82ba9)"><path fill="#f652a0" d="M 111.996094 56.554688 C 111.996094 58.371094 111.910156 60.183594 111.730469 61.992188 C 111.550781 63.796875 111.285156 65.589844 110.933594 67.371094 C 110.578125 69.152344 110.136719 70.914062 109.609375 72.648438 C 109.082031 74.386719 108.472656 76.09375 107.777344 77.773438 C 107.082031 79.449219 106.308594 81.089844 105.449219 82.691406 C 104.59375 84.292969 103.664062 85.847656 102.652344 87.359375 C 101.644531 88.867188 100.566406 90.324219 99.414062 91.726562 C 98.261719 93.132812 97.042969 94.476562 95.757812 95.757812 C 94.476562 97.042969 93.132812 98.261719 91.726562 99.414062 C 90.324219 100.566406 88.867188 101.644531 87.359375 102.652344 C 85.847656 103.664062 84.292969 104.59375 82.691406 105.449219 C 81.089844 106.308594 79.449219 107.082031 77.773438 107.777344 C 76.09375 108.472656 74.386719 109.082031 72.648438 109.609375 C 70.914062 110.136719 69.152344 110.578125 67.371094 110.933594 C 65.589844 111.285156 63.796875 111.550781 61.992188 111.730469 C 60.183594 111.910156 58.371094 111.996094 56.554688 111.996094 C 54.742188 111.996094 52.929688 111.910156 51.121094 111.730469 C 49.316406 111.550781 47.519531 111.285156 45.742188 110.933594 C 43.960938 110.578125 42.199219 110.136719 40.460938 109.609375 C 38.726562 109.082031 37.015625 108.472656 35.339844 107.777344 C 33.664062 107.082031 32.023438 106.308594 30.421875 105.449219 C 28.820312 104.59375 27.265625 103.664062 25.753906 102.652344 C 24.246094 101.644531 22.789062 100.566406 21.386719 99.414062 C 19.980469 98.261719 18.636719 97.042969 17.351562 95.757812 C 16.070312 94.476562 14.851562 93.132812 13.699219 91.726562 C 12.546875 90.324219 11.46875 88.867188 10.457031 87.359375 C 9.449219 85.847656 8.515625 84.292969 7.660156 82.691406 C 6.804688 81.089844 6.03125 79.449219 5.335938 77.773438 C 4.640625 76.09375 4.03125 74.386719 3.503906 72.648438 C 2.976562 70.914062 2.535156 69.152344 2.179688 67.371094 C 1.828125 65.589844 1.558594 63.796875 1.382812 61.992188 C 1.203125 60.183594 1.113281 58.371094 1.113281 56.554688 C 1.113281 54.742188 1.203125 52.929688 1.382812 51.121094 C 1.558594 49.316406 1.828125 47.519531 2.179688 45.742188 C 2.535156 43.960938 2.976562 42.199219 3.503906 40.460938 C 4.03125 38.726562 4.640625 37.015625 5.335938 35.339844 C 6.03125 33.664062 6.804688 32.023438 7.660156 30.421875 C 8.515625 28.820312 9.449219 27.265625 10.457031 25.753906 C 11.46875 24.246094 12.546875 22.789062 13.699219 21.386719 C 14.851562 19.980469 16.070312 18.636719 17.351562 17.351562 C 18.636719 16.070312 19.980469 14.851562 21.386719 13.699219 C 22.789062 12.546875 24.246094 11.46875 25.753906 10.457031 C 27.265625 9.449219 28.820312 8.515625 30.421875 7.660156 C 32.023438 6.804688 33.664062 6.03125 35.339844 5.335938 C 37.015625 4.640625 38.726562 4.03125 40.460938 3.503906 C 42.199219 2.976562 43.960938 2.535156 45.742188 2.179688 C 47.519531 1.828125 49.316406 1.558594 51.121094 1.382812 C 52.929688 1.203125 54.742188 1.113281 56.554688 1.113281 C 58.371094 1.113281 60.183594 1.203125 61.992188 1.382812 C 63.796875 1.558594 65.589844 1.828125 67.371094 2.179688 C 69.152344 2.535156 70.914062 2.976562 72.648438 3.503906 C 74.386719 4.03125 76.09375 4.640625 77.773438 5.335938 C 79.449219 6.03125 81.089844 6.804688 82.691406 7.660156 C 84.292969 8.515625 85.847656 9.449219 87.359375 10.457031 C 88.867188 11.46875 90.324219 12.546875 91.726562 13.699219 C 93.132812 14.851562 94.476562 16.070312 95.757812 17.351562 C 97.042969 18.636719 98.261719 19.980469 99.414062 21.386719 C 100.566406 22.789062 101.644531 24.246094 102.652344 25.753906 C 103.664062 27.265625 104.59375 28.820312 105.449219 30.421875 C 106.308594 32.023438 107.082031 33.664062 107.777344 35.339844 C 108.472656 37.015625 109.082031 38.726562 109.609375 40.460938 C 110.136719 42.199219 110.578125 43.960938 110.933594 45.742188 C 111.285156 47.519531 111.550781 49.316406 111.730469 51.121094 C 111.910156 52.929688 111.996094 54.742188 111.996094 56.554688 Z M 111.996094 56.554688 " fill-opacity="1" fill-rule="nonzero"/></g><path fill="#fb74b4" d="M 73.234375 45.058594 L 81.019531 52.84375 L 75.777344 58.085938 L 45.398438 27.707031 L 22.828125 50.28125 L 37.480469 64.933594 L 22.066406 80.351562 L 53.636719 111.921875 C 54.601562 111.972656 55.578125 111.996094 56.554688 111.996094 C 87.175781 111.996094 111.996094 87.175781 111.996094 56.554688 C 111.996094 54.554688 111.890625 52.582031 111.683594 50.640625 L 89.667969 28.621094 Z M 73.234375 45.058594 " fill-opacity="1" fill-rule="nonzero"/><path fill="#ffffff" d="M 38.214844 51.542969 C 41.054688 48.046875 41.984375 47.238281 41.984375 47.238281 C 41.984375 47.238281 54.503906 36.871094 45.753906 28.121094 C 39.152344 21.527344 27.488281 23.421875 21.894531 30.433594 C 17.761719 35.621094 15.550781 42.179688 14.40625 48.640625 C 12.636719 58.632812 13.566406 69.050781 19.699219 77.5625 C 24.367188 84.039062 33.746094 88.316406 41.566406 85.496094 C 49.429688 82.660156 48.855469 72.683594 43.597656 67.429688 C 39.425781 63.253906 33.773438 57.46875 38.214844 51.542969 Z M 38.214844 51.542969 " fill-opacity="1" fill-rule="nonzero"/><path fill="#fb74b4" d="M 41.738281 77.878906 C 41.480469 79.03125 40.835938 79.738281 39.640625 80.167969 C 38.632812 80.53125 37.535156 80.714844 36.378906 80.714844 C 32.007812 80.714844 27.039062 78.054688 24.296875 74.25 C 21.921875 70.953125 20.367188 67.089844 19.683594 62.769531 C 19.050781 58.757812 19.148438 54.335938 19.984375 49.632812 C 21.152344 43.046875 23.285156 37.78125 26.324219 33.96875 C 28.382812 31.386719 31.976562 29.722656 35.472656 29.722656 C 37.234375 29.722656 39.753906 30.140625 41.746094 32.132812 C 43.082031 33.46875 43.21875 34.472656 43.1875 35.195312 C 43.070312 38.019531 39.894531 41.585938 38.363281 42.882812 L 38.289062 42.9375 L 38.253906 42.972656 C 37.769531 43.394531 36.550781 44.605469 33.8125 47.976562 L 33.746094 48.058594 L 33.679688 48.148438 C 30.421875 52.488281 30.050781 57.660156 32.625 62.71875 C 34.445312 66.296875 37.417969 69.265625 39.589844 71.433594 C 41.289062 73.132812 42.191406 75.839844 41.738281 77.878906 Z M 41.738281 77.878906 " fill-opacity="1" fill-rule="nonzero"/><path fill="#ffffff" d="M 37.40625 59.890625 C 37.40625 59.890625 39.425781 55.851562 43.597656 58.679688 C 47.773438 61.503906 53.292969 67.5625 50.597656 78.597656 C 47.90625 89.632812 46.828125 91.25 46.828125 91.25 L 48.308594 97.445312 C 48.308594 97.445312 48.984375 98.925781 52.753906 82.769531 C 56.523438 66.617188 51.542969 57.332031 45.617188 55.988281 C 39.695312 54.640625 38.183594 53.914062 36.8125 52.894531 L 34.988281 54.289062 " fill-opacity="1" fill-rule="nonzero"/><path fill="#ffffff" d="M 90.53125 29.742188 C 87.101562 26.308594 75.992188 19.375 67.246094 28.125 C 58.496094 36.875 71.015625 47.238281 71.015625 47.238281 C 71.015625 47.238281 71.945312 48.050781 74.785156 51.546875 C 79.226562 57.46875 73.574219 63.257812 69.402344 67.429688 C 65.226562 71.605469 61.863281 83.71875 72.765625 85.738281 C 83.667969 87.757812 92.285156 83.046875 97.800781 69.046875 C 103.320312 55.042969 93.960938 33.171875 90.53125 29.742188 Z M 90.53125 29.742188 " fill-opacity="1" fill-rule="nonzero"/><path fill="#fb74b4" d="M 92.527344 66.964844 C 87.742188 79.109375 81.59375 80.515625 77.390625 80.515625 C 76.261719 80.515625 75.054688 80.394531 73.796875 80.164062 C 71.617188 79.757812 71.367188 78.957031 71.246094 78.574219 C 70.621094 76.558594 71.933594 72.90625 73.40625 71.433594 C 75.574219 69.265625 78.546875 66.292969 80.371094 62.714844 C 82.941406 57.660156 82.570312 52.488281 79.316406 48.144531 L 79.25 48.058594 L 79.179688 47.972656 C 76.445312 44.605469 75.222656 43.390625 74.742188 42.96875 L 74.667969 42.902344 L 74.636719 42.878906 C 73.105469 41.582031 69.929688 38.015625 69.8125 35.195312 C 69.78125 34.472656 69.917969 33.46875 71.253906 32.132812 C 72.996094 30.390625 74.894531 29.542969 77.058594 29.542969 C 80.878906 29.542969 84.867188 32.097656 86.503906 33.722656 C 87.378906 34.722656 90.21875 39.980469 92.152344 47.273438 C 94.261719 55.234375 94.398438 62.230469 92.527344 66.964844 Z M 92.527344 66.964844 " fill-opacity="1" fill-rule="nonzero"/><path fill="#ffffff" d="M 75.589844 59.890625 C 75.589844 59.890625 73.570312 55.851562 69.398438 58.679688 C 65.226562 61.503906 59.707031 67.5625 62.398438 78.597656 C 65.089844 89.632812 66.167969 91.25 66.167969 91.25 L 64.6875 97.445312 C 64.6875 97.445312 64.011719 98.925781 60.242188 82.769531 C 56.476562 66.617188 61.457031 57.332031 67.378906 55.988281 C 73.300781 54.640625 74.8125 53.914062 76.183594 52.894531 L 78.007812 54.289062 " fill-opacity="1" fill-rule="nonzero"/></svg>