<svg xmlns="http://www.w3.org/2000/svg" xmlns:xlink="http://www.w3.org/1999/xlink" width="1268" zoomAndPan="magnify" viewBox="0 0 950.88 428.99999" height="572" preserveAspectRatio="xMidYMid meet" version="1.0"><defs><filter x="0%" y="0%" width="100%" height="100%" id="808d4bfe71"><feColorMatrix values="0 0 0 0 1 0 0 0 0 1 0 0 0 0 1 0 0 0 1 0" color-interpolation-filters="sRGB"/></filter><clipPath id="d917b4b31a"><path d="M 0 0.0273438 L 950.761719 0.0273438 L 950.761719 428.972656 L 0 428.972656 Z M 0 0.0273438 " clip-rule="nonzero"/></clipPath><clipPath id="961c366206"><path d="M 0 403 L 72 403 L 72 428.972656 L 0 428.972656 Z M 0 403 " clip-rule="nonzero"/></clipPath><mask id="41cafa60b0"><g filter="url(#808d4bfe71)"><rect x="-95.088" width="1141.056" fill="#000000" y="-42.899999" height="514.799988" fill-opacity="0.2"/></g></mask><clipPath id="d936fe550b"><path d="M 0 0.207031 L 70.492188 0.207031 L 70.492188 25.703125 L 0 25.703125 Z M 0 0.207031 " clip-rule="nonzero"/></clipPath><clipPath id="57dee8fb4c"><rect x="0" width="72" y="0" height="26"/></clipPath><mask id="704ca41253"><g filter="url(#808d4bfe71)"><rect x="-95.088" width="1141.056" fill="#000000" y="-42.899999" height="514.799988" fill-opacity="0.15"/></g></mask><clipPath id="47d440fcba"><path d="M 0.953125 0.582031 L 71.445312 0.582031 L 71.445312 26.078125 L 0.953125 26.078125 Z M 0.953125 0.582031 " clip-rule="nonzero"/></clipPath><clipPath id="87ea4d6335"><rect x="0" width="73" y="0" height="27"/></clipPath><mask id="aea63304dd"><g filter="url(#808d4bfe71)"><rect x="-95.088" width="1141.056" fill="#000000" y="-42.899999" height="514.799988" fill-opacity="0.15"/></g></mask><clipPath id="192bc94c92"><path d="M 0.558594 0.429688 L 71.046875 0.429688 L 71.046875 25.925781 L 0.558594 25.925781 Z M 0.558594 0.429688 " clip-rule="nonzero"/></clipPath><clipPath id="ec33ec7e83"><rect x="0" width="72" y="0" height="27"/></clipPath><clipPath id="9238a68c3b"><path d="M 0 0.0273438 L 72 0.0273438 L 72 27 L 0 27 Z M 0 0.0273438 " clip-rule="nonzero"/></clipPath><mask id="729f792c5f"><g filter="url(#808d4bfe71)"><rect x="-95.088" width="1141.056" fill="#000000" y="-42.899999" height="514.799988" fill-opacity="0.22"/></g></mask><clipPath id="399c00b68d"><path d="M 0 0.0273438 L 70.492188 0.0273438 L 70.492188 25.523438 L 0 25.523438 Z M 0 0.0273438 " clip-rule="nonzero"/></clipPath><clipPath id="3347b6a05f"><rect x="0" width="72" y="0" height="27"/></clipPath><mask id="23bb2260b4"><g filter="url(#808d4bfe71)"><rect x="-95.088" width="1141.056" fill="#000000" y="-42.899999" height="514.799988" fill-opacity="0.2"/></g></mask><clipPath id="e12262e0c2"><path d="M 0.519531 0.417969 L 71.007812 0.417969 L 71.007812 25.914062 L 0.519531 25.914062 Z M 0.519531 0.417969 " clip-rule="nonzero"/></clipPath><clipPath id="6523d55452"><rect x="0" width="72" y="0" height="27"/></clipPath><mask id="42933ddbf3"><g filter="url(#808d4bfe71)"><rect x="-95.088" width="1141.056" fill="#000000" y="-42.899999" height="514.799988" fill-opacity="0.21"/></g></mask><clipPath id="1257eb34ec"><path d="M 0.589844 0.792969 L 71.078125 0.792969 L 71.078125 26.289062 L 0.589844 26.289062 Z M 0.589844 0.792969 " clip-rule="nonzero"/></clipPath><clipPath id="bfa749280d"><rect x="0" width="72" y="0" height="27"/></clipPath><mask id="f95227cad4"><g filter="url(#808d4bfe71)"><rect x="-95.088" width="1141.056" fill="#000000" y="-42.899999" height="514.799988" fill-opacity="0.15"/></g></mask><clipPath id="d86ec8792a"><path d="M 0.191406 0.441406 L 70.679688 0.441406 L 70.679688 25.9375 L 0.191406 25.9375 Z M 0.191406 0.441406 " clip-rule="nonzero"/></clipPath><clipPath id="f2844f7db9"><rect x="0" width="72" y="0" height="27"/></clipPath><mask id="15f9dc21c9"><g filter="url(#808d4bfe71)"><rect x="-95.088" width="1141.056" fill="#000000" y="-42.899999" height="514.799988" fill-opacity="0.1"/></g></mask><clipPath id="d0f2f494fb"><path d="M 0.550781 0.910156 L 48.546875 0.910156 L 48.546875 42.15625 L 0.550781 42.15625 Z M 0.550781 0.910156 " clip-rule="nonzero"/></clipPath><clipPath id="136c58ad68"><rect x="0" width="50" y="0" height="43"/></clipPath><mask id="fa57b7e50c"><g filter="url(#808d4bfe71)"><rect x="-95.088" width="1141.056" fill="#000000" y="-42.899999" height="514.799988" fill-opacity="0.11"/></g></mask><clipPath id="e11ac54436"><path d="M 1 0.597656 L 46 0.597656 L 46 39.59375 L 1 39.59375 Z M 1 0.597656 " clip-rule="nonzero"/></clipPath><clipPath id="e48d052f18"><path d="M 0.804688 5 L 46.550781 5 L 46.550781 35 L 0.804688 35 Z M 0.804688 5 " clip-rule="nonzero"/></clipPath><clipPath id="d6564ec92e"><rect x="0" width="48" y="0" height="40"/></clipPath><mask id="95db1c1521"><g filter="url(#808d4bfe71)"><rect x="-95.088" width="1141.056" fill="#000000" y="-42.899999" height="514.799988" fill-opacity="0.21"/></g></mask><clipPath id="7379cb23ea"><path d="M 0.253906 0.628906 L 53 0.628906 L 53 60.441406 L 0.253906 60.441406 Z M 0.253906 0.628906 " clip-rule="nonzero"/></clipPath><clipPath id="9397257b6b"><rect x="0" width="54" y="0" height="61"/></clipPath><mask id="2fd78e2ddf"><g filter="url(#808d4bfe71)"><rect x="-95.088" width="1141.056" fill="#000000" y="-42.899999" height="514.799988" fill-opacity="0.1"/></g></mask><clipPath id="97c3cb212c"><path d="M 0.835938 0.589844 L 48.832031 0.589844 L 48.832031 41.835938 L 0.835938 41.835938 Z M 0.835938 0.589844 " clip-rule="nonzero"/></clipPath><clipPath id="a09c0f2df2"><rect x="0" width="50" y="0" height="43"/></clipPath></defs><g clip-path="url(#d917b4b31a)"><path fill="#ffffff" d="M 0 0.0273438 L 950.878906 0.0273438 L 950.878906 428.972656 L 0 428.972656 Z M 0 0.0273438 " fill-opacity="1" fill-rule="nonzero"/><path fill="#f1ece4" d="M 0 0.0273438 L 950.878906 0.0273438 L 950.878906 428.972656 L 0 428.972656 Z M 0 0.0273438 " fill-opacity="1" fill-rule="nonzero"/></g><g clip-path="url(#961c366206)"><g mask="url(#41cafa60b0)"><g transform="matrix(1, 0, 0, 1, 0, 403)"><g clip-path="url(#57dee8fb4c)"><g clip-path="url(#d936fe550b)"><path fill="#545454" d="M 17.015625 17.402344 L 14.578125 0.234375 L 11.785156 19.128906 L 9.292969 6.835938 L 7.566406 16.742188 L 7.109375 14.761719 L 2.539062 14.761719 C 2.488281 14.609375 2.386719 14.457031 2.234375 14.304688 C 1.980469 14.050781 1.625 13.898438 1.269531 13.898438 C 0.914062 13.898438 0.558594 14.050781 0.304688 14.304688 C 0.152344 14.507812 0 14.863281 0 15.21875 C 0 15.574219 0.152344 15.929688 0.40625 16.183594 C 0.660156 16.4375 1.015625 16.589844 1.371094 16.589844 C 1.726562 16.589844 2.082031 16.4375 2.335938 16.183594 C 2.488281 16.03125 2.589844 15.878906 2.640625 15.675781 L 6.398438 15.675781 L 7.71875 20.296875 L 9.292969 12.222656 L 11.734375 25.933594 L 14.578125 8.207031 L 16.050781 18.265625 L 70.144531 18.265625 C 70.855469 18.214844 70.753906 17.453125 70.195312 17.402344 Z M 1.777344 14.8125 C 1.675781 14.710938 1.523438 14.609375 1.320312 14.609375 C 1.167969 14.609375 1.015625 14.660156 0.914062 14.8125 C 0.8125 14.914062 0.710938 15.066406 0.710938 15.269531 C 0.710938 15.421875 0.761719 15.574219 0.914062 15.726562 C 1.015625 15.828125 1.167969 15.878906 1.320312 15.878906 C 1.472656 15.878906 1.675781 15.828125 1.777344 15.726562 C 1.878906 15.625 1.980469 15.472656 1.980469 15.269531 C 1.980469 15.066406 1.878906 14.914062 1.777344 14.8125 Z M 1.777344 14.8125 " fill-opacity="1" fill-rule="evenodd"/></g></g></g></g></g><g mask="url(#704ca41253)"><g transform="matrix(1, 0, 0, 1, 116, 107)"><g clip-path="url(#87ea4d6335)"><g clip-path="url(#47d440fcba)"><path fill="#545454" d="M 17.96875 17.777344 L 15.53125 0.609375 L 12.738281 19.503906 L 10.25 7.210938 L 8.519531 17.117188 L 8.0625 15.136719 L 3.492188 15.136719 C 3.441406 14.980469 3.339844 14.828125 3.1875 14.675781 C 2.933594 14.421875 2.578125 14.269531 2.222656 14.269531 C 1.867188 14.269531 1.511719 14.421875 1.257812 14.675781 C 1.105469 14.878906 0.953125 15.238281 0.953125 15.59375 C 0.953125 15.949219 1.105469 16.304688 1.359375 16.558594 C 1.613281 16.8125 1.96875 16.964844 2.324219 16.964844 C 2.679688 16.964844 3.035156 16.8125 3.289062 16.558594 C 3.441406 16.40625 3.542969 16.253906 3.59375 16.050781 L 7.351562 16.050781 L 8.671875 20.671875 L 10.25 12.59375 L 12.6875 26.308594 L 15.53125 8.582031 L 17.003906 18.640625 L 71.097656 18.640625 C 71.808594 18.589844 71.707031 17.828125 71.148438 17.777344 Z M 2.730469 15.1875 C 2.628906 15.085938 2.476562 14.980469 2.273438 14.980469 C 2.121094 14.980469 1.96875 15.035156 1.867188 15.1875 C 1.765625 15.289062 1.664062 15.441406 1.664062 15.644531 C 1.664062 15.796875 1.714844 15.949219 1.867188 16.101562 C 1.96875 16.203125 2.121094 16.253906 2.273438 16.253906 C 2.425781 16.253906 2.628906 16.203125 2.730469 16.101562 C 2.832031 16 2.933594 15.847656 2.933594 15.644531 C 2.933594 15.441406 2.832031 15.289062 2.730469 15.1875 Z M 2.730469 15.1875 " fill-opacity="1" fill-rule="evenodd"/></g></g></g></g><g mask="url(#aea63304dd)"><g transform="matrix(1, 0, 0, 1, 872, 146)"><g clip-path="url(#ec33ec7e83)"><g clip-path="url(#192bc94c92)"><path fill="#545454" d="M 17.574219 17.625 L 15.136719 0.457031 L 12.339844 19.351562 L 9.851562 7.058594 L 8.125 16.964844 L 7.667969 14.984375 L 3.097656 14.984375 C 3.046875 14.832031 2.945312 14.679688 2.792969 14.527344 C 2.539062 14.273438 2.183594 14.121094 1.828125 14.121094 C 1.472656 14.121094 1.117188 14.273438 0.863281 14.527344 C 0.710938 14.730469 0.558594 15.085938 0.558594 15.441406 C 0.558594 15.796875 0.710938 16.152344 0.964844 16.40625 C 1.21875 16.660156 1.574219 16.8125 1.929688 16.8125 C 2.285156 16.8125 2.640625 16.660156 2.894531 16.40625 C 3.046875 16.253906 3.148438 16.101562 3.199219 15.898438 L 6.957031 15.898438 L 8.277344 20.519531 L 9.851562 12.445312 L 12.289062 26.15625 L 15.136719 8.429688 L 16.609375 18.488281 L 70.699219 18.488281 C 71.410156 18.4375 71.308594 17.675781 70.75 17.625 Z M 2.335938 15.035156 C 2.234375 14.933594 2.082031 14.832031 1.878906 14.832031 C 1.726562 14.832031 1.574219 14.882812 1.472656 15.035156 C 1.371094 15.136719 1.269531 15.289062 1.269531 15.492188 C 1.269531 15.644531 1.320312 15.796875 1.472656 15.949219 C 1.574219 16.050781 1.726562 16.101562 1.878906 16.101562 C 2.03125 16.101562 2.234375 16.050781 2.335938 15.949219 C 2.4375 15.847656 2.539062 15.695312 2.539062 15.492188 C 2.539062 15.289062 2.4375 15.136719 2.335938 15.035156 Z M 2.335938 15.035156 " fill-opacity="1" fill-rule="evenodd"/></g></g></g></g><g clip-path="url(#9238a68c3b)"><g mask="url(#729f792c5f)"><g transform="matrix(1, 0, 0, 1, 0, 0.000000000000042931)"><g clip-path="url(#3347b6a05f)"><g clip-path="url(#399c00b68d)"><path fill="#545454" d="M 17.015625 17.222656 L 14.578125 0.0546875 L 11.785156 18.949219 L 9.292969 6.65625 L 7.566406 16.5625 L 7.109375 14.582031 L 2.539062 14.582031 C 2.488281 14.429688 2.386719 14.277344 2.234375 14.125 C 1.980469 13.871094 1.625 13.71875 1.269531 13.71875 C 0.914062 13.71875 0.558594 13.871094 0.304688 14.125 C 0.152344 14.328125 0 14.683594 0 15.039062 C 0 15.394531 0.152344 15.75 0.40625 16.003906 C 0.660156 16.257812 1.015625 16.410156 1.371094 16.410156 C 1.726562 16.410156 2.082031 16.257812 2.335938 16.003906 C 2.488281 15.851562 2.589844 15.699219 2.640625 15.496094 L 6.398438 15.496094 L 7.71875 20.117188 L 9.292969 12.039062 L 11.734375 25.753906 L 14.578125 8.027344 L 16.050781 18.085938 L 70.144531 18.085938 C 70.855469 18.035156 70.753906 17.273438 70.195312 17.222656 Z M 1.777344 14.632812 C 1.675781 14.53125 1.523438 14.429688 1.320312 14.429688 C 1.167969 14.429688 1.015625 14.480469 0.914062 14.632812 C 0.8125 14.734375 0.710938 14.886719 0.710938 15.089844 C 0.710938 15.242188 0.761719 15.394531 0.914062 15.546875 C 1.015625 15.648438 1.167969 15.699219 1.320312 15.699219 C 1.472656 15.699219 1.675781 15.648438 1.777344 15.546875 C 1.878906 15.445312 1.980469 15.292969 1.980469 15.089844 C 1.980469 14.886719 1.878906 14.734375 1.777344 14.632812 Z M 1.777344 14.632812 " fill-opacity="1" fill-rule="evenodd"/></g></g></g></g></g><g mask="url(#23bb2260b4)"><g transform="matrix(1, 0, 0, 1, 313, 300)"><g clip-path="url(#6523d55452)"><g clip-path="url(#e12262e0c2)"><path fill="#545454" d="M 17.535156 17.613281 L 15.097656 0.445312 L 12.300781 19.339844 L 9.8125 7.046875 L 8.085938 16.953125 L 7.628906 14.972656 L 3.058594 14.972656 C 3.007812 14.820312 2.90625 14.667969 2.753906 14.515625 C 2.5 14.261719 2.144531 14.109375 1.789062 14.109375 C 1.433594 14.109375 1.078125 14.261719 0.824219 14.515625 C 0.671875 14.71875 0.519531 15.074219 0.519531 15.429688 C 0.519531 15.785156 0.671875 16.140625 0.925781 16.394531 C 1.179688 16.648438 1.535156 16.800781 1.890625 16.800781 C 2.246094 16.800781 2.601562 16.648438 2.855469 16.394531 C 3.007812 16.242188 3.109375 16.089844 3.160156 15.886719 L 6.917969 15.886719 L 8.238281 20.507812 L 9.8125 12.429688 L 12.25 26.144531 L 15.097656 8.417969 L 16.570312 18.476562 L 70.660156 18.476562 C 71.371094 18.425781 71.269531 17.664062 70.710938 17.613281 Z M 2.296875 15.023438 C 2.195312 14.921875 2.042969 14.820312 1.839844 14.820312 C 1.6875 14.820312 1.535156 14.871094 1.433594 15.023438 C 1.332031 15.125 1.230469 15.277344 1.230469 15.480469 C 1.230469 15.632812 1.28125 15.785156 1.433594 15.9375 C 1.535156 16.039062 1.6875 16.089844 1.839844 16.089844 C 1.992188 16.089844 2.195312 16.039062 2.296875 15.9375 C 2.398438 15.835938 2.5 15.683594 2.5 15.480469 C 2.5 15.277344 2.398438 15.125 2.296875 15.023438 Z M 2.296875 15.023438 " fill-opacity="1" fill-rule="evenodd"/></g></g></g></g><g mask="url(#42933ddbf3)"><g transform="matrix(1, 0, 0, 1, 706, 25)"><g clip-path="url(#bfa749280d)"><g clip-path="url(#1257eb34ec)"><path fill="#545454" d="M 17.605469 17.988281 L 15.167969 0.820312 L 12.371094 19.714844 L 9.882812 7.421875 L 8.15625 17.328125 L 7.699219 15.347656 L 3.128906 15.347656 C 3.078125 15.195312 2.976562 15.042969 2.824219 14.890625 C 2.570312 14.636719 2.214844 14.484375 1.859375 14.484375 C 1.503906 14.484375 1.148438 14.636719 0.894531 14.890625 C 0.742188 15.09375 0.589844 15.449219 0.589844 15.804688 C 0.589844 16.160156 0.742188 16.515625 0.996094 16.769531 C 1.25 17.023438 1.605469 17.175781 1.960938 17.175781 C 2.316406 17.175781 2.671875 17.023438 2.925781 16.769531 C 3.078125 16.617188 3.179688 16.464844 3.230469 16.261719 L 6.988281 16.261719 L 8.308594 20.882812 L 9.882812 12.804688 L 12.320312 26.519531 L 15.167969 8.792969 L 16.640625 18.851562 L 70.730469 18.851562 C 71.441406 18.800781 71.339844 18.039062 70.78125 17.988281 Z M 2.367188 15.398438 C 2.265625 15.296875 2.113281 15.195312 1.910156 15.195312 C 1.757812 15.195312 1.605469 15.246094 1.503906 15.398438 C 1.402344 15.5 1.300781 15.652344 1.300781 15.855469 C 1.300781 16.007812 1.351562 16.160156 1.503906 16.3125 C 1.605469 16.414062 1.757812 16.464844 1.910156 16.464844 C 2.0625 16.464844 2.265625 16.414062 2.367188 16.3125 C 2.46875 16.210938 2.570312 16.058594 2.570312 15.855469 C 2.570312 15.652344 2.46875 15.5 2.367188 15.398438 Z M 2.367188 15.398438 " fill-opacity="1" fill-rule="evenodd"/></g></g></g></g><g mask="url(#f95227cad4)"><g transform="matrix(1, 0, 0, 1, 530, 377)"><g clip-path="url(#f2844f7db9)"><g clip-path="url(#d86ec8792a)"><path fill="#545454" d="M 17.207031 17.636719 L 14.765625 0.46875 L 11.972656 19.363281 L 9.484375 7.070312 L 7.757812 16.976562 L 7.300781 14.996094 L 2.730469 14.996094 C 2.679688 14.84375 2.578125 14.691406 2.425781 14.539062 C 2.171875 14.285156 1.816406 14.132812 1.460938 14.132812 C 1.105469 14.132812 0.75 14.285156 0.496094 14.539062 C 0.34375 14.742188 0.191406 15.097656 0.191406 15.453125 C 0.191406 15.808594 0.34375 16.164062 0.597656 16.417969 C 0.851562 16.671875 1.207031 16.824219 1.5625 16.824219 C 1.917969 16.824219 2.273438 16.671875 2.527344 16.417969 C 2.679688 16.265625 2.78125 16.113281 2.832031 15.910156 L 6.589844 15.910156 L 7.910156 20.53125 L 9.484375 12.457031 L 11.921875 26.167969 L 14.765625 8.441406 L 16.238281 18.5 L 70.332031 18.5 C 71.042969 18.449219 70.941406 17.6875 70.382812 17.636719 Z M 1.96875 15.046875 C 1.867188 14.945312 1.714844 14.84375 1.511719 14.84375 C 1.359375 14.84375 1.207031 14.894531 1.105469 15.046875 C 1.003906 15.148438 0.902344 15.300781 0.902344 15.503906 C 0.902344 15.65625 0.953125 15.808594 1.105469 15.960938 C 1.207031 16.0625 1.359375 16.113281 1.511719 16.113281 C 1.664062 16.113281 1.867188 16.0625 1.96875 15.960938 C 2.070312 15.859375 2.171875 15.707031 2.171875 15.503906 C 2.171875 15.300781 2.070312 15.148438 1.96875 15.046875 Z M 1.96875 15.046875 " fill-opacity="1" fill-rule="evenodd"/></g></g></g></g><g mask="url(#15f9dc21c9)"><g transform="matrix(1, 0, 0, 1, 453, 12)"><g clip-path="url(#136c58ad68)"><g clip-path="url(#d0f2f494fb)"><path fill="#ff3131" d="M 45.191406 4.496094 C 40.417969 -0.277344 32.617188 -0.277344 27.851562 4.496094 L 24.667969 7.683594 L 21.480469 4.496094 C 16.707031 -0.277344 8.902344 -0.277344 4.140625 4.496094 C -0.484375 9.121094 -0.621094 16.605469 3.726562 21.40625 L 14.949219 21.40625 L 16.582031 12.871094 C 16.65625 12.46875 17 12.175781 17.414062 12.152344 C 17.828125 12.125 18.195312 12.394531 18.304688 12.785156 L 22.296875 26.375 L 24.472656 17.546875 C 24.570312 17.167969 24.898438 16.886719 25.289062 16.875 C 25.679688 16.851562 26.035156 17.09375 26.167969 17.472656 L 27.867188 22.296875 L 30.992188 12.761719 C 31.113281 12.394531 31.46875 12.136719 31.859375 12.152344 C 32.25 12.164062 32.589844 12.417969 32.6875 12.796875 L 35.070312 21.40625 L 45.605469 21.40625 C 49.964844 16.605469 49.820312 9.121094 45.191406 4.496094 Z M 33.53125 22.527344 L 31.75 16.105469 L 28.71875 25.335938 C 28.597656 25.703125 28.269531 25.949219 27.890625 25.949219 L 27.878906 25.949219 C 27.5 25.949219 27.167969 25.714844 27.035156 25.347656 L 25.460938 20.867188 L 23.214844 29.988281 C 23.117188 30.378906 22.773438 30.660156 22.371094 30.660156 L 22.347656 30.660156 C 21.957031 30.660156 21.601562 30.402344 21.492188 30.027344 L 17.621094 16.789062 L 16.535156 22.457031 C 16.449219 22.871094 16.082031 23.175781 15.667969 23.175781 L 5.460938 23.175781 L 24.65625 42.371094 L 41.992188 25.03125 L 43.847656 23.175781 L 34.375 23.175781 C 33.984375 23.175781 33.640625 22.90625 33.53125 22.527344 Z M 33.53125 22.527344 " fill-opacity="1" fill-rule="nonzero"/></g></g></g></g><g mask="url(#fa57b7e50c)"><g transform="matrix(1, 0, 0, 1, 47, 205)"><g clip-path="url(#d6564ec92e)"><g clip-path="url(#e11ac54436)"><path fill="#e95060" d="M 33.511719 0.601562 C 29.4375 0.601562 25.84375 2.652344 23.675781 5.789062 C 21.511719 2.652344 17.914062 0.601562 13.839844 0.601562 C 7.222656 0.601562 1.859375 6.011719 1.859375 12.6875 C 1.859375 27.898438 23.675781 39.589844 23.675781 39.589844 C 23.675781 39.589844 45.496094 27.898438 45.496094 12.6875 C 45.496094 6.011719 40.128906 0.601562 33.511719 0.601562 " fill-opacity="1" fill-rule="nonzero"/></g><g clip-path="url(#e48d052f18)"><path fill="#ffffff" d="M 22.628906 34.449219 C 22.210938 34.449219 21.855469 34.144531 21.785156 33.730469 L 19.292969 18.695312 L 18.042969 22.117188 C 17.917969 22.457031 17.601562 22.683594 17.242188 22.683594 L 1.65625 22.683594 C 1.1875 22.683594 0.804688 22.296875 0.804688 21.824219 C 0.804688 21.347656 1.1875 20.960938 1.65625 20.960938 L 16.648438 20.960938 L 18.804688 15.054688 C 18.9375 14.6875 19.304688 14.453125 19.683594 14.496094 C 20.066406 14.53125 20.378906 14.824219 20.445312 15.210938 L 22.582031 28.105469 L 25.867188 6.058594 C 25.929688 5.636719 26.289062 5.324219 26.710938 5.324219 C 26.714844 5.324219 26.71875 5.324219 26.722656 5.324219 C 27.152344 5.332031 27.507812 5.65625 27.558594 6.085938 L 29.492188 22.59375 L 29.851562 21.539062 C 29.972656 21.195312 30.292969 20.960938 30.65625 20.960938 L 45.695312 20.960938 C 46.167969 20.960938 46.550781 21.347656 46.550781 21.824219 C 46.550781 22.296875 46.167969 22.683594 45.695312 22.683594 L 31.265625 22.683594 L 29.882812 26.695312 C 29.753906 27.074219 29.382812 27.3125 28.988281 27.269531 C 28.59375 27.226562 28.277344 26.910156 28.234375 26.515625 L 26.609375 12.652344 L 23.46875 33.71875 C 23.40625 34.136719 23.054688 34.445312 22.632812 34.449219 C 22.632812 34.449219 22.628906 34.449219 22.628906 34.449219 " fill-opacity="1" fill-rule="nonzero"/></g></g></g></g><g mask="url(#95db1c1521)"><g transform="matrix(1, 0, 0, 1, 855, 296)"><g clip-path="url(#9397257b6b)"><g clip-path="url(#7379cb23ea)"><path fill="#545454" d="M 49.003906 4.46875 C 46.636719 2.214844 43.46875 0.957031 40.199219 0.96875 C 36.824219 0.980469 33.65625 2.300781 31.265625 4.6875 L 26.714844 9.242188 L 22.277344 4.804688 C 17.332031 -0.140625 9.28125 -0.296875 4.292969 4.601562 C -0.75 9.542969 -0.78125 17.667969 4.203125 22.648438 L 28.304688 46.753906 C 31.058594 49.503906 31.183594 53.984375 28.488281 56.785156 C 25.726562 59.65625 21.144531 59.6875 18.34375 56.886719 L 12.371094 50.914062 C 12.121094 50.664062 12.09375 50.265625 12.3125 49.980469 C 13.195312 48.820312 13.679688 47.347656 13.570312 45.761719 C 13.355469 42.625 10.792969 40.105469 7.65625 39.941406 C 4.019531 39.75 1.007812 42.675781 1.054688 46.28125 C 1.101562 49.621094 3.820312 52.375 7.160156 52.460938 C 8.234375 52.488281 9.253906 52.242188 10.148438 51.789062 C 10.417969 51.648438 10.75 51.707031 10.964844 51.921875 L 17.132812 58.09375 C 18.851562 59.8125 21.105469 60.667969 23.363281 60.667969 C 25.621094 60.667969 27.878906 59.808594 29.59375 58.09375 C 33.03125 54.65625 33.03125 49.066406 29.59375 45.628906 L 5.410156 21.441406 C 1.125 17.15625 1.125 10.183594 5.410156 5.898438 C 9.695312 1.609375 16.671875 1.609375 20.957031 5.898438 L 26.089844 11.03125 C 26.261719 11.203125 26.488281 11.285156 26.714844 11.277344 C 26.941406 11.285156 27.167969 11.203125 27.339844 11.03125 L 32.371094 6 C 34.460938 3.914062 37.277344 2.683594 40.226562 2.679688 C 43.171875 2.671875 45.941406 3.816406 48.023438 5.898438 C 50.101562 7.976562 51.246094 10.742188 51.242188 13.6875 C 51.238281 16.640625 50.007812 19.457031 47.921875 21.546875 L 46.292969 23.171875 C 46.160156 23.304688 45.976562 23.382812 45.789062 23.382812 L 40.941406 23.382812 C 40.671875 23.382812 40.425781 23.230469 40.304688 22.988281 L 37.964844 18.304688 C 37.703125 17.78125 36.953125 17.78125 36.691406 18.304688 L 32.667969 26.347656 C 32.40625 26.871094 31.65625 26.871094 31.394531 26.347656 L 30.019531 23.597656 C 29.757812 23.074219 29.011719 23.074219 28.75 23.597656 L 27.375 26.347656 C 27.113281 26.871094 26.363281 26.871094 26.101562 26.347656 L 22.082031 18.304688 C 21.820312 17.777344 21.070312 17.777344 20.808594 18.304688 L 18.46875 22.984375 C 18.347656 23.226562 18.101562 23.378906 17.832031 23.378906 L 13.542969 23.378906 C 13.074219 23.378906 12.667969 23.738281 12.652344 24.207031 C 12.640625 24.691406 13.027344 25.085938 13.507812 25.085938 L 18.886719 25.085938 C 19.15625 25.085938 19.40625 24.933594 19.523438 24.695312 L 20.808594 22.121094 C 21.070312 21.59375 21.820312 21.59375 22.082031 22.121094 L 26.101562 30.164062 C 26.363281 30.6875 27.113281 30.6875 27.375 30.164062 L 28.75 27.414062 C 29.011719 26.890625 29.757812 26.890625 30.019531 27.414062 L 31.394531 30.164062 C 31.65625 30.691406 32.40625 30.691406 32.667969 30.164062 L 36.6875 22.121094 C 36.949219 21.597656 37.699219 21.597656 37.960938 22.121094 L 39.246094 24.695312 C 39.367188 24.933594 39.613281 25.085938 39.882812 25.085938 L 46.433594 25.085938 C 46.433594 25.085938 46.433594 25.085938 46.4375 25.085938 C 46.492188 25.085938 46.542969 25.082031 46.589844 25.074219 C 46.59375 25.074219 46.597656 25.070312 46.601562 25.070312 C 46.652344 25.0625 46.699219 25.046875 46.746094 25.027344 C 46.753906 25.027344 46.757812 25.027344 46.761719 25.023438 C 46.808594 25.003906 46.851562 24.980469 46.894531 24.953125 C 46.898438 24.949219 46.902344 24.949219 46.910156 24.945312 C 46.953125 24.914062 46.996094 24.882812 47.035156 24.84375 C 47.039062 24.839844 47.039062 24.839844 47.039062 24.839844 L 49.105469 22.773438 C 51.550781 20.332031 52.976562 17.019531 52.949219 13.5625 C 52.921875 10.105469 51.519531 6.867188 49.003906 4.46875 Z M 2.761719 46.195312 C 2.761719 43.683594 4.808594 41.640625 7.320312 41.640625 C 9.832031 41.640625 11.878906 43.683594 11.878906 46.195312 C 11.878906 48.710938 9.832031 50.753906 7.320312 50.753906 C 4.808594 50.753906 2.761719 48.710938 2.761719 46.195312 Z M 2.761719 46.195312 " fill-opacity="1" fill-rule="nonzero"/></g></g></g></g><g mask="url(#2fd78e2ddf)"><g transform="matrix(1, 0, 0, 1, 324, 369)"><g clip-path="url(#a09c0f2df2)"><g clip-path="url(#97c3cb212c)"><path fill="#ff3131" d="M 45.476562 4.175781 C 40.703125 -0.597656 32.898438 -0.597656 28.136719 4.175781 L 24.949219 7.363281 L 21.765625 4.175781 C 16.988281 -0.597656 9.1875 -0.597656 4.425781 4.175781 C -0.203125 8.800781 -0.335938 16.289062 4.011719 21.085938 L 15.230469 21.085938 L 16.867188 12.550781 C 16.941406 12.148438 17.28125 11.855469 17.699219 11.832031 C 18.113281 11.804688 18.480469 12.074219 18.589844 12.464844 L 22.582031 26.054688 L 24.753906 17.226562 C 24.851562 16.847656 25.183594 16.566406 25.574219 16.554688 C 25.964844 16.53125 26.316406 16.777344 26.453125 17.152344 L 28.148438 21.976562 L 31.273438 12.441406 C 31.398438 12.074219 31.75 11.816406 32.140625 11.832031 C 32.53125 11.84375 32.875 12.097656 32.972656 12.476562 L 35.351562 21.085938 L 45.890625 21.085938 C 50.25 16.289062 50.101562 8.800781 45.476562 4.175781 Z M 33.816406 22.207031 L 32.03125 15.785156 L 29.003906 25.015625 C 28.882812 25.382812 28.550781 25.628906 28.175781 25.628906 L 28.160156 25.628906 C 27.785156 25.628906 27.453125 25.394531 27.320312 25.03125 L 25.746094 20.546875 L 23.496094 29.667969 C 23.398438 30.058594 23.058594 30.339844 22.65625 30.339844 L 22.628906 30.339844 C 22.238281 30.339844 21.886719 30.085938 21.777344 29.707031 L 17.90625 16.46875 L 16.820312 22.136719 C 16.734375 22.550781 16.367188 22.855469 15.953125 22.855469 L 5.746094 22.855469 L 7.601562 24.710938 L 24.9375 42.050781 L 44.132812 22.855469 L 34.65625 22.855469 C 34.265625 22.855469 33.925781 22.585938 33.816406 22.207031 Z M 33.816406 22.207031 " fill-opacity="1" fill-rule="nonzero"/></g></g></g></g></svg>