<svg id="Layer_1" data-name="Layer 1" xmlns="http://www.w3.org/2000/svg" xmlns:xlink="http://www.w3.org/1999/xlink" viewBox="0 0 621.89 329.49"><defs><style>.cls-1,.cls-6{fill:none;}.cls-2{font-size:203.68px;fill:#eecde3;}.cls-10,.cls-2,.cls-3,.cls-5,.cls-6{font-family:PerfectlyVintages, Perfectly Vintages;}.cls-3,.cls-5,.cls-6{font-size:203.71px;}.cls-4{letter-spacing:0.02em;}.cls-5,.cls-9{fill:#1d1d1b;}.cls-6{stroke:#1d1d1b;stroke-miterlimit:10;}.cls-10,.cls-7{fill:#33afc1;}.cls-8{fill:#fff;fill-rule:evenodd;}.cls-10{font-size:52.29px;}.cls-11{letter-spacing:-0.02em;}.cls-12{letter-spacing:0.01em;}.cls-13{letter-spacing:-0.01em;}.cls-14{letter-spacing:-0.02em;}.cls-15{letter-spacing:0em;}.cls-16{letter-spacing:0.01em;}.cls-17{letter-spacing:-0.02em;}.cls-18{clip-path:url(#clip-path);}.cls-19{fill:#efc9e1;}</style><clipPath id="clip-path" transform="translate(-6.11 -65.31)"><rect class="cls-1" x="263.28" y="180.47" width="26" height="20"/></clipPath></defs><text class="cls-2" transform="translate(230.19 235.19) scale(1.1 1)">b</text><text x="-6.11" y="-65.31"/><text class="cls-3" transform="matrix(1.1, 0, -0.05, 1, 119.21, 235.32)">a<tspan class="cls-4" x="103.64" y="0">b</tspan><tspan x="223.2" y="0">a</tspan></text><text class="cls-5" transform="matrix(1.1, 0, -0.05, 1, 119.21, 235.32)">a<tspan class="cls-4" x="103.64" y="0">b</tspan><tspan x="223.2" y="0">a</tspan></text><text class="cls-3" transform="matrix(1.1, 0, -0.05, 1, 119.21, 235.32)">a<tspan class="cls-4" x="103.64" y="0">b</tspan><tspan x="223.2" y="0">a</tspan></text><text class="cls-6" transform="matrix(1.1, 0, -0.05, 1, 119.21, 235.32)">a<tspan class="cls-4" x="103.64" y="0">b</tspan><tspan x="223.2" y="0">a</tspan></text><text class="cls-5" transform="matrix(1.1, 0, -0.05, 1, 119.21, 235.32)">a<tspan class="cls-4" x="103.64" y="0">b</tspan><tspan x="223.2" y="0">a</tspan></text><text x="-6.11" y="-65.31"/><path class="cls-7" d="M107,134.11c-4.54,2-7.32,11.95-3.46,16.57,4.18,5,14.83,2.13,20.9-2,7.67-5.23,9.95-13.76,11.13-18.45,3.92-15.53,3.1-44.77-20.25-58.65C88,55.33,55.68,75.48,50.8,78.63c-32,20.66-34.16,57.37-34.33,61.22-.88,20.51,7.07,45.68,25.82,56,8.28,4.54,12.09,2.57,26.54,9.81C83.6,213,92.32,217.4,95.91,227.41c5,14.07-2.84,31.47-9.8,40.07-.23.29-.42.52-.56.68-6.63,8-16.52,14.18-24.51,15.93-12.48,2.74-26.93-4-35.56-17.18-1.92-3.8-3.89-9.13-1.42-12.44s6.88-1.8,9.52-5.13c2.91-3.69,2.09-11.34-2.88-15.08-4.55-3.42-11.75-2.94-17.07,1.46a32,32,0,0,0-4,5.89,30.79,30.79,0,0,0-3,9.13,41.39,41.39,0,0,0,1.27,18.51c.69,2.44,5.93,21.83,20.18,31.39,18,12.06,58.84,10.46,83.39-16,18.47-19.92,22.27-48,14.3-67.51-5.31-13-16.05-22.62-21.71-26.39a66.25,66.25,0,0,0-10.77-5.67c-4.25-1.69-6.37-2.63-8.75-2.69-7.61-.22-10.75,3.37-17.65,2a17,17,0,0,1-3.29-1c-4.1-1.76-9-5.91-8.19-8.76,1.42-4.87,19-3.76,19.83-7.67.29-1.34-2-2-3.26-3.63C66.26,156,67.49,115.94,68.48,108h0a9.36,9.36,0,0,0,.38-2.61,7.94,7.94,0,0,0-.69-2.54,11.89,11.89,0,0,1-.46-3.61A24,24,0,0,1,97,88.32c6.7,2.48,10.53,7.34,12.9,10.35a46.57,46.57,0,0,1,5.6,9.63,55.81,55.81,0,0,1,5.2,14.48c1,5.33,2.3,11.93-.59,13.78C116.79,138.68,111.64,132.11,107,134.11Z" transform="translate(-6.11 -65.31)"/><path class="cls-8" d="M69.19,98.15c-2.68,3-1.74,5.88-5.91,10.16-1,1-3.32,3.19-5.44,4.92l-3.46,2.83c-1.11.92-1.27,1.07-2.34,1.91-1.66,1.29-2.86,2.13-4.22,3.22S45,123.64,44,124.53a7.05,7.05,0,0,0-1.65,1.82,2.1,2.1,0,0,0,0,1.9,15.39,15.39,0,0,0,2.06,3.1c1,1.22,2.17,2.64,3,3.68A8,8,0,0,1,49,137.44a3.15,3.15,0,0,1-.38,2.35,19.75,19.75,0,0,1-1.9,3,12.26,12.26,0,0,1-1.38,1.49,4.32,4.32,0,0,0-1,1.42,4.41,4.41,0,0,0-.31,2.16,4.19,4.19,0,0,0,1.18,2.25,10.5,10.5,0,0,0,3,2.31,18,18,0,0,0,4.53,1.46,29.53,29.53,0,0,0,5,.65,13.73,13.73,0,0,0,3.32-.32c.84-.19,1.49-.39,1.73-.22s.1.68-.43,1a5.51,5.51,0,0,1-3,.36c-1.52-.08-3.64-.34-5.65-.51s-3.89-.24-5.18-.42-2-.47-2.58-.45a2.19,2.19,0,0,0-1.63.85,4.56,4.56,0,0,0-1,2,2.79,2.79,0,0,0,.37,2,8,8,0,0,0,1.85,2.24c.83.71,1.87,1.29,2.46,1.75a1.76,1.76,0,0,1,.8,1.18,4.06,4.06,0,0,1-.11,1.52,13.56,13.56,0,0,1-1,2.94c-.61,1.32-1.56,3-2.16,4.11A13.72,13.72,0,0,0,44.48,175a8,8,0,0,0-.43,2.92,7.81,7.81,0,0,0,1.07,3.38,10.35,10.35,0,0,0,2.37,2.73,8.9,8.9,0,0,0,3.08,1.65,24.2,24.2,0,0,0,5.36,1,51.86,51.86,0,0,0,7.28,0c2.5-.15,4.9-.45,6.95-.78s3.79-.72,5.69-1.08,4-.7,6.31-1.07,4.77-.74,7-1a35.63,35.63,0,0,1,6.63-.26,41.06,41.06,0,0,1,7.79,1.12,11.82,11.82,0,0,1,3.1,1.3c.67.41.55.47,1.23.88a9.33,9.33,0,0,0,3.29,1.39c.7.12,1.18.11,1.59.51a1.45,1.45,0,0,1,.47,1.06c-.17.08-2.13-3-3.18-6.59-.41-1.43-.14-1.38-1.07-7.37-.36-2.32-.64-4.24-1-6.3-.48-3-1.1-6.1-1.1-6.1-11-5.12-11.64-7.49-11.64-7.49-.74-2.66,1.29-3.73.37-7.78-.52-2.33-1.31-2.49-1.66-5s.36-2.83.25-6.18a32.14,32.14,0,0,0-.79-5.76c-.79-4-1.43-4.65-.79-5.77,1-1.67,3.3-1.88,3.5-3.45,0-.28-.07-.3-.23-1.25s-.31-2-.47-3.19C95.25,115,95,113,94.73,111l-.7-1.44,0-1.47c-.21-.81-.46-1.92-.69-3.24,0,0-.12-.68-.22-1.35-.36-2.65-.3-5.27-.54-6.16C91.46,93.35,75.34,91.13,69.19,98.15Z" transform="translate(-6.11 -65.31)"/><line class="cls-9" x1="36.58" y1="262.64" x2="437.93" y2="262.64"/><path class="cls-9" d="M42.68,328c133.2-4.11,268.16-4.14,401.36,0-133.2,4.13-268.16,4.1-401.36,0Z" transform="translate(-6.11 -65.31)"/><text class="cls-10" transform="matrix(1.11, 0.01, -0.07, 1, 59.52, 315.28)"><tspan class="cls-11">H</tspan><tspan class="cls-12" x="37.17" y="0">e</tspan><tspan x="63.01" y="0">a</tspan><tspan class="cls-13" x="89.61" y="0">l</tspan><tspan class="cls-14" x="103.78" y="0">t</tspan><tspan class="cls-15" x="120.32" y="0">h &amp; </tspan><tspan class="cls-16" x="215.42" y="0">C</tspan><tspan x="245.93" y="0">a</tspan><tspan class="cls-17" x="272.53" y="0">r</tspan><tspan x="294.77" y="0">e</tspan></text><g class="cls-18"><path class="cls-19" d="M274.93,184.73c.25-.49.43-.89.65-1.26a5.3,5.3,0,0,1,3.74-2.81,6.27,6.27,0,0,1,4,.68,5.7,5.7,0,0,1,3,4.1,8,8,0,0,1-.32,4.26c-.05.16-.13.31-.2.49h-6.18c-.15-.27-.32-.58-.48-.89s-.46-.89-.68-1.34-.43-.69-.89-.66a.92.92,0,0,0-.83.74c-.42,1.14-.86,2.27-1.29,3.4,0,.1-.08.19-.15.37a3,3,0,0,1-.2-.4c-.52-1.54-1-3.09-1.55-4.63,0-.1,0-.2-.09-.3a.85.85,0,0,0-.8-.61.84.84,0,0,0-.82.57l-1.13,2.79-.42,1h-.73c-.61,0-1.22,0-1.83,0a.78.78,0,0,0-.8.8.8.8,0,0,0,.68.84,1.67,1.67,0,0,0,.38,0c.9,0,1.81,0,2.71,0a1,1,0,0,0,1.05-.71c.24-.63.5-1.24.8-2l.32.89,1.5,4.52a.85.85,0,0,0,.78.7.83.83,0,0,0,.9-.63c.35-.89.68-1.8,1-2.69.2-.55.41-1.1.65-1.74a8.19,8.19,0,0,1,.42.84,1.17,1.17,0,0,0,1.27.8c2.87,0,5.75,0,8.63,0,.21,0,.42,0,.63,0a.61.61,0,0,1,.55.59.63.63,0,0,1-.54.6,2.77,2.77,0,0,1-.5,0h-3.6a.72.72,0,0,0-.64.29,26,26,0,0,1-6.89,5.9c-.58.37-1.19.7-1.79,1a.64.64,0,0,1-.7,0,28.66,28.66,0,0,1-8.49-6.7,11.45,11.45,0,0,1-2.57-5,7,7,0,0,1,.81-5.31,5.84,5.84,0,0,1,4.61-2.71,5.2,5.2,0,0,1,5.32,2.83,5.86,5.86,0,0,1,.32.61C274.7,184.24,274.78,184.43,274.93,184.73Z" transform="translate(-6.11 -65.31)"/></g></svg>