<svg xmlns="http://www.w3.org/2000/svg" xmlns:xlink="http://www.w3.org/1999/xlink" width="50" zoomAndPan="magnify" viewBox="0 0 37.5 37.499999" height="50" preserveAspectRatio="xMidYMid meet" version="1.0"><defs><clipPath id="b77ea2e9d4"><path d="M 0 0 L 37.007812 0 L 37.007812 37.007812 L 0 37.007812 Z M 0 0 " clip-rule="nonzero"/></clipPath><clipPath id="61269e26af"><path d="M 5 12 L 32.316406 12 L 32.316406 33 L 5 33 Z M 5 12 " clip-rule="nonzero"/></clipPath><clipPath id="2fce117cc3"><path d="M 13 0.90625 L 32 0.90625 L 32 19 L 13 19 Z M 13 0.90625 " clip-rule="nonzero"/></clipPath><clipPath id="15b7cb6a6b"><path d="M 23 27 L 30 27 L 30 36.433594 L 23 36.433594 Z M 23 27 " clip-rule="nonzero"/></clipPath></defs><g clip-path="url(#b77ea2e9d4)"><path fill="#ffffff" d="M 0 0 L 37.007812 0 L 37.007812 37.007812 L 0 37.007812 Z M 0 0 " fill-opacity="1" fill-rule="nonzero"/><path fill="#ffffff" d="M 0 0 L 37.007812 0 L 37.007812 37.007812 L 0 37.007812 Z M 0 0 " fill-opacity="1" fill-rule="nonzero"/></g><path fill="#15b6db" d="M 28.890625 9.917969 C 28.890625 13.488281 26.101562 16.386719 22.660156 16.386719 C 19.21875 16.386719 16.421875 13.488281 16.421875 9.917969 C 16.421875 6.34375 19.21875 3.453125 22.660156 3.453125 C 26.101562 3.453125 28.890625 6.34375 28.890625 9.917969 Z M 28.890625 9.917969 " fill-opacity="1" fill-rule="nonzero"/><g clip-path="url(#61269e26af)"><path fill="#000000" d="M 31.6875 19.425781 C 29.933594 18.871094 29.136719 18.578125 27.414062 18.113281 C 27.222656 18.0625 27.027344 18.175781 26.976562 18.367188 C 26.921875 18.558594 27.035156 18.757812 27.226562 18.808594 C 28.515625 19.15625 29.273438 19.402344 30.4375 19.78125 C 28.269531 20.429688 25.808594 20.992188 23.722656 21.605469 C 23.628906 21.636719 23.542969 21.683594 23.464844 21.734375 L 8.171875 13.664062 C 10.242188 14.257812 12.125 14.78125 14.566406 15.441406 C 15.03125 15.5625 15.210938 14.871094 14.753906 14.75 C 13.664062 14.453125 7.339844 12.714844 6.273438 12.363281 C 5.457031 12.152344 4.953125 12.84375 5.300781 13.449219 C 16.03125 32.769531 15.667969 32.152344 15.796875 32.335938 C 15.867188 32.386719 16.3125 33.214844 16.859375 32.445312 C 17.070312 32.175781 20.199219 25.863281 20.636719 24.859375 L 20.695312 24.707031 C 21.398438 25.769531 21.480469 25.859375 21.699219 26.226562 C 22.003906 26.75 22.417969 27.460938 23.148438 27.460938 C 23.15625 27.460938 23.160156 27.460938 23.167969 27.460938 C 23.429688 27.453125 23.679688 27.324219 23.828125 27.121094 C 24.113281 26.75 23.96875 26.171875 23.945312 25.816406 L 23.746094 22.570312 C 23.742188 22.441406 23.8125 22.332031 23.925781 22.296875 C 26.292969 21.597656 29.382812 20.910156 31.734375 20.125 C 32.128906 20.042969 32.113281 19.460938 31.6875 19.425781 Z M 16.367188 31.894531 C 16.285156 31.773438 17.042969 33.109375 6.519531 14.164062 L 20.128906 24.167969 C 20.128906 24.179688 20.117188 24.199219 20.117188 24.207031 C 19.53125 25.613281 16.441406 31.78125 16.367188 31.894531 Z M 23.148438 26.738281 C 22.746094 26.738281 22.601562 26.21875 21.15625 24.097656 C 21.054688 23.925781 20.972656 23.824219 20.792969 23.761719 L 8.121094 14.449219 L 23.058594 22.335938 C 23.039062 22.425781 23.023438 22.511719 23.027344 22.605469 C 23.246094 26.101562 23.210938 25.757812 23.25 26.101562 C 23.285156 26.382812 23.34375 26.75 23.148438 26.738281 Z M 23.148438 26.738281 " fill-opacity="1" fill-rule="nonzero"/></g><path fill="#000000" d="M 20.164062 12.894531 C 20.359375 12.894531 20.523438 12.734375 20.523438 12.535156 C 20.523438 11.253906 21.566406 10.210938 22.84375 10.210938 C 24.125 10.210938 25.167969 11.246094 25.167969 12.535156 C 25.167969 12.734375 25.328125 12.894531 25.527344 12.894531 C 25.726562 12.894531 25.886719 12.734375 25.886719 12.535156 C 25.886719 11.414062 25.277344 10.292969 24.070312 9.757812 C 24.496094 9.40625 24.777344 8.882812 24.78125 8.285156 C 24.800781 6.582031 22.734375 5.664062 21.492188 6.882812 C 20.707031 7.652344 20.679688 8.972656 21.617188 9.753906 C 20.550781 10.230469 19.800781 11.292969 19.800781 12.535156 C 19.800781 12.734375 19.964844 12.894531 20.164062 12.894531 Z M 21.996094 7.394531 C 22.769531 6.640625 24.074219 7.195312 24.0625 8.277344 C 24.050781 9.359375 22.738281 9.902344 21.976562 9.125 C 21.515625 8.648438 21.503906 7.878906 21.996094 7.394531 Z M 21.996094 7.394531 " fill-opacity="1" fill-rule="nonzero"/><g clip-path="url(#2fce117cc3)"><path fill="#000000" d="M 22.660156 18.921875 C 27.453125 18.921875 31.351562 14.882812 31.351562 9.917969 C 31.351562 4.953125 27.453125 0.914062 22.660156 0.914062 C 17.867188 0.914062 13.964844 4.953125 13.964844 9.917969 C 13.964844 14.882812 17.867188 18.921875 22.660156 18.921875 Z M 22.660156 1.632812 C 27.054688 1.632812 30.632812 5.351562 30.632812 9.917969 C 30.632812 14.488281 27.054688 18.203125 22.660156 18.203125 C 18.261719 18.203125 14.6875 14.488281 14.6875 9.917969 C 14.6875 5.351562 18.261719 1.632812 22.660156 1.632812 Z M 22.660156 1.632812 " fill-opacity="1" fill-rule="nonzero"/></g><g clip-path="url(#15b7cb6a6b)"><path fill="#000000" d="M 27.644531 31.578125 C 27.660156 31.367188 27.65625 31.144531 27.636719 30.914062 C 27.484375 29.351562 26.472656 27.90625 25.054688 27.230469 C 24.875 27.144531 24.660156 27.21875 24.574219 27.398438 C 24.488281 27.578125 24.566406 27.792969 24.746094 27.878906 C 25.9375 28.449219 26.792969 29.667969 26.917969 30.984375 C 26.921875 31.03125 26.925781 31.082031 26.929688 31.136719 C 26.390625 30.875 25.855469 30.785156 25.375 30.871094 C 24.621094 31.007812 24.03125 31.625 23.996094 32.3125 C 23.957031 33.070312 24.632812 33.792969 25.4375 33.855469 C 26.128906 33.90625 26.847656 33.515625 27.253906 32.859375 C 27.34375 32.710938 27.417969 32.550781 27.480469 32.382812 C 28.386719 33.230469 28.871094 34.523438 28.691406 35.761719 C 28.664062 35.957031 28.800781 36.140625 28.996094 36.167969 C 29.011719 36.171875 29.03125 36.171875 29.046875 36.171875 C 29.222656 36.171875 29.378906 36.042969 29.402344 35.863281 C 29.636719 34.257812 28.925781 32.566406 27.644531 31.578125 Z M 26.640625 32.480469 C 26.378906 32.90625 25.914062 33.164062 25.492188 33.136719 C 25.074219 33.105469 24.695312 32.722656 24.714844 32.347656 C 24.734375 31.953125 25.128906 31.644531 25.5 31.578125 C 25.582031 31.5625 25.660156 31.558594 25.738281 31.558594 C 26.15625 31.558594 26.5625 31.738281 26.84375 31.90625 C 26.851562 31.910156 26.859375 31.914062 26.867188 31.917969 C 26.820312 32.109375 26.75 32.300781 26.640625 32.480469 Z M 26.640625 32.480469 " fill-opacity="1" fill-rule="nonzero"/></g></svg>