<svg xmlns="http://www.w3.org/2000/svg" xmlns:xlink="http://www.w3.org/1999/xlink" width="50" zoomAndPan="magnify" viewBox="0 0 37.5 37.499999" height="50" preserveAspectRatio="xMidYMid meet" version="1.0"><defs><clipPath id="c417b33e60"><path d="M 0 0 L 37.007812 0 L 37.007812 37.007812 L 0 37.007812 Z M 0 0 " clip-rule="nonzero"/></clipPath><clipPath id="c5d5ab076f"><path d="M 2 7 L 35.429688 7 L 35.429688 32.566406 L 2 32.566406 Z M 2 7 " clip-rule="nonzero"/></clipPath><clipPath id="5ea0bba166"><path d="M 7 3.699219 L 9 3.699219 L 9 9 L 7 9 Z M 7 3.699219 " clip-rule="nonzero"/></clipPath></defs><g clip-path="url(#c417b33e60)"><path fill="#ffffff" d="M 0 0 L 37.007812 0 L 37.007812 37.007812 L 0 37.007812 Z M 0 0 " fill-opacity="1" fill-rule="nonzero"/><path fill="#ffffff" d="M 0 0 L 37.007812 0 L 37.007812 37.007812 L 0 37.007812 Z M 0 0 " fill-opacity="1" fill-rule="nonzero"/></g><path fill="#10a0c2" d="M 18.25 20.984375 C 19.105469 21.941406 19.226562 23.183594 20.167969 23.191406 C 20.171875 23.191406 20.175781 23.191406 20.175781 23.191406 C 20.699219 23.191406 20.488281 23.058594 23.59375 21.097656 C 24.101562 20.753906 25.101562 20.265625 25.167969 19.542969 C 25.183594 19.367188 25.148438 19.109375 24.886719 18.867188 C 24.683594 18.675781 24.378906 18.605469 24.070312 18.679688 C 23.78125 18.746094 23.832031 18.738281 20.84375 20.546875 C 20.59375 20.699219 20.582031 20.730469 20.335938 20.304688 C 20.125 19.929688 19.859375 19.546875 19.464844 19.402344 C 19.070312 19.261719 18.601562 19.390625 18.328125 19.722656 C 17.976562 20.148438 18.070312 20.785156 18.25 20.984375 Z M 18.25 20.984375 " fill-opacity="1" fill-rule="nonzero"/><path fill="#10a0c2" d="M 16.457031 26.472656 C 17.046875 26.628906 17.0625 26.648438 17.148438 26.648438 C 17.3125 26.648438 17.464844 26.542969 17.507812 26.375 C 17.5625 26.179688 17.449219 25.972656 17.25 25.917969 L 16.65625 25.753906 C 16.457031 25.699219 16.253906 25.816406 16.199219 26.015625 C 16.144531 26.214844 16.261719 26.417969 16.457031 26.472656 Z M 16.457031 26.472656 " fill-opacity="1" fill-rule="nonzero"/><path fill="#10a0c2" d="M 12.476562 25.378906 L 14.730469 26 C 14.921875 26.050781 15.132812 25.941406 15.1875 25.738281 C 15.242188 25.539062 15.125 25.335938 14.925781 25.28125 L 12.675781 24.660156 C 12.472656 24.605469 12.269531 24.722656 12.21875 24.921875 C 12.164062 25.121094 12.277344 25.324219 12.476562 25.378906 Z M 12.476562 25.378906 " fill-opacity="1" fill-rule="nonzero"/><g clip-path="url(#c5d5ab076f)"><path fill="#10a0c2" d="M 4.484375 21.78125 C 5.996094 22.917969 7.90625 23.449219 9.929688 23.066406 C 9.558594 23.472656 8.871094 24.1875 8.417969 24.511719 C 7.441406 25.214844 7.730469 25.992188 8.707031 26.359375 C 8.679688 26.703125 8.574219 27.039062 8.429688 27.246094 C 8.039062 27.789062 8.1875 28.371094 9.015625 28.582031 C 13.03125 29.605469 26.308594 31.96875 29.222656 32.546875 C 29.304688 32.601562 29.398438 32.628906 29.5 32.628906 C 29.949219 32.628906 30.566406 32.191406 31.132812 31.796875 C 31.820312 31.3125 32.558594 31.191406 32.742188 30.265625 C 33.441406 26.757812 33.519531 26.714844 34.429688 20.207031 L 35.378906 13.40625 C 35.453125 12.882812 35.648438 11.488281 34.6875 10.871094 C 34.316406 10.628906 33.148438 10.628906 32.65625 10.671875 C 32.527344 10.636719 31.363281 10.527344 29.988281 10.375 C 29.925781 9.074219 29.304688 8.132812 28.503906 8.132812 C 27.765625 8.132812 27.183594 8.933594 27.046875 10.0625 L 20.015625 9.316406 C 19.878906 8.171875 19.300781 7.371094 18.5625 7.371094 C 17.890625 7.371094 17.355469 8.039062 17.160156 9.011719 L 14.941406 8.773438 C 14.5625 8.742188 14.210938 8.851562 14.007812 9.0625 C 13.578125 9.488281 13.742188 10.269531 13.886719 10.957031 C 13.984375 11.425781 13.984375 11.402344 14.003906 12.078125 C 12.5625 10.523438 10.613281 9.882812 8.5 9.96875 C 7.394531 10.015625 6.476562 10.441406 5.554688 10.917969 C 1.449219 13.085938 0.652344 18.835938 4.484375 21.78125 Z M 8.855469 25.113281 C 9.566406 24.605469 10.65625 23.445312 11.25 22.679688 C 14.578125 21.34375 16.699219 17.808594 15.355469 14.246094 C 25.625 15.265625 30.335938 16.417969 31.289062 16.519531 C 30.421875 20.898438 29.820312 23.601562 28.007812 27.035156 L 27.878906 27.277344 C 26.644531 29.644531 25.898438 29.917969 23.574219 29.261719 C 23.261719 29.1875 22.800781 28.992188 19.117188 28.214844 C 15.683594 27.488281 12.386719 26.644531 9.15625 25.726562 C 8.308594 25.484375 8.539062 25.339844 8.855469 25.113281 Z M 9.199219 27.859375 C 9.058594 27.824219 8.992188 27.789062 8.972656 27.785156 C 9.027344 27.648438 9.324219 27.378906 9.429688 26.574219 C 13.703125 27.777344 16.480469 28.417969 18.960938 28.941406 C 22.660156 29.722656 23.042969 29.898438 23.371094 29.980469 C 25.953125 30.707031 27.082031 30.414062 28.542969 27.625 L 28.667969 27.382812 C 30.40625 24.09375 31.039062 21.554688 31.851562 17.523438 C 32.042969 18.578125 32.070312 19.636719 31.917969 20.640625 C 31.265625 24.945312 29.945312 29.613281 29.382812 30.890625 C 29.230469 31.234375 29.109375 31.515625 29.046875 31.753906 C 25.546875 31.074219 13.058594 28.84375 9.199219 27.859375 Z M 28.503906 8.878906 C 28.808594 8.878906 29.164062 9.457031 29.234375 10.296875 L 27.792969 10.140625 C 27.894531 9.359375 28.246094 8.878906 28.503906 8.878906 Z M 18.5625 8.113281 C 18.828125 8.113281 19.132812 8.558594 19.253906 9.234375 L 17.898438 9.089844 C 18.042969 8.480469 18.339844 8.113281 18.5625 8.113281 Z M 14.539062 9.585938 C 14.703125 9.414062 15.363281 9.605469 17.078125 9.753906 C 17.074219 10.054688 17.089844 10.328125 17.171875 10.695312 C 16.796875 10.921875 16.550781 11.304688 16.550781 11.742188 C 16.550781 12.4375 17.171875 13 17.9375 13 C 18.703125 13 19.328125 12.4375 19.328125 11.742188 C 19.328125 11.050781 18.703125 10.484375 17.9375 10.484375 C 17.921875 10.484375 17.90625 10.488281 17.886719 10.488281 C 17.847656 10.292969 17.820312 10.074219 17.820312 9.832031 L 27.03125 10.808594 C 27.042969 11.039062 27.066406 11.257812 27.113281 11.457031 C 25.96875 12.148438 26.511719 13.761719 27.878906 13.761719 C 28.644531 13.761719 29.269531 13.199219 29.269531 12.507812 C 29.269531 11.824219 28.652344 11.226562 27.828125 11.253906 C 27.804688 11.140625 27.789062 11.019531 27.777344 10.890625 L 32.121094 11.351562 C 31.980469 12.121094 31.867188 12.898438 31.761719 13.652344 C 31.660156 14.347656 31.550781 15.0625 31.421875 15.78125 C 30.441406 15.707031 25.542969 14.488281 15 13.460938 C 14.921875 13.3125 14.839844 13.167969 14.75 13.027344 C 14.765625 12.507812 14.761719 11.972656 14.722656 11.425781 C 14.691406 10.984375 14.332031 9.789062 14.539062 9.585938 Z M 5.898438 11.578125 C 7.027344 11 7.730469 10.707031 8.890625 10.707031 C 12.613281 10.707031 14.925781 13.4375 15.019531 16.28125 C 15.1875 20.882812 9.261719 24.4375 4.933594 21.1875 C 1.53125 18.574219 2.285156 13.488281 5.898438 11.578125 Z M 5.898438 11.578125 " fill-opacity="1" fill-rule="nonzero"/></g><path fill="#10a0c2" d="M 5.164062 19.433594 C 8.097656 22.890625 13.730469 20.449219 13.585938 16.3125 C 13.546875 15.261719 13.128906 14.25 12.402344 13.460938 C 11.492188 12.457031 10.246094 11.980469 8.882812 11.980469 C 7.976562 11.980469 7.402344 12.226562 6.609375 12.636719 C 4.777344 13.613281 3.820312 15.726562 4.308594 17.726562 C 4.464844 18.347656 4.757812 18.9375 5.164062 19.433594 Z M 6.957031 13.296875 C 7.476562 13.027344 7.960938 12.804688 8.511719 12.75 L 8.511719 13.460938 C 8.511719 13.667969 8.679688 13.832031 8.882812 13.832031 C 9.089844 13.832031 9.257812 13.667969 9.257812 13.460938 L 9.257812 12.742188 C 9.761719 12.78125 10.230469 12.894531 10.660156 13.089844 C 11.109375 13.292969 11.511719 13.585938 11.855469 13.960938 C 12.410156 14.570312 12.75 15.332031 12.824219 16.128906 L 11.925781 16.128906 C 11.71875 16.128906 11.554688 16.296875 11.554688 16.503906 C 11.554688 16.710938 11.71875 16.875 11.925781 16.875 L 12.8125 16.875 C 12.59375 18.574219 11.089844 20.054688 9.257812 20.300781 L 9.257812 19.546875 C 9.257812 19.339844 9.089844 19.171875 8.882812 19.171875 C 8.679688 19.171875 8.511719 19.339844 8.511719 19.546875 L 8.511719 20.328125 C 6.628906 20.21875 5.042969 18.824219 4.933594 16.875 L 5.839844 16.875 C 6.046875 16.875 6.214844 16.710938 6.214844 16.503906 C 6.214844 16.296875 6.046875 16.128906 5.839844 16.128906 L 4.96875 16.128906 C 5.148438 14.890625 5.917969 13.847656 6.957031 13.296875 Z M 6.957031 13.296875 " fill-opacity="1" fill-rule="nonzero"/><path fill="#10a0c2" d="M 8.753906 17.105469 C 9.117188 17.035156 9.484375 17.019531 9.851562 17.050781 C 10.054688 17.074219 10.238281 16.921875 10.257812 16.71875 C 10.277344 16.511719 10.128906 16.332031 9.921875 16.3125 C 9.660156 16.285156 9.394531 16.28125 9.132812 16.304688 C 9.183594 15.875 9.175781 15.4375 9.109375 15.015625 C 9.078125 14.8125 8.894531 14.675781 8.683594 14.707031 C 8.480469 14.738281 8.339844 14.929688 8.375 15.132812 C 8.453125 15.632812 8.433594 16.160156 8.320312 16.65625 C 8.257812 16.921875 8.492188 17.15625 8.753906 17.105469 Z M 8.753906 17.105469 " fill-opacity="1" fill-rule="nonzero"/><path fill="#10a0c2" d="M 4.976562 6.175781 C 4.847656 6.015625 4.613281 5.988281 4.453125 6.117188 C 4.292969 6.246094 4.269531 6.480469 4.398438 6.640625 C 4.53125 6.773438 4.605469 7.003906 4.867188 7.003906 C 5.179688 7.003906 5.355469 6.644531 5.15625 6.398438 Z M 4.976562 6.175781 " fill-opacity="1" fill-rule="nonzero"/><path fill="#10a0c2" d="M 6.144531 8.808594 C 6.214844 8.902344 6.324219 8.949219 6.433594 8.949219 C 6.742188 8.949219 6.921875 8.585938 6.722656 8.34375 L 5.804688 7.203125 C 5.675781 7.042969 5.441406 7.015625 5.28125 7.144531 C 5.121094 7.273438 5.097656 7.507812 5.226562 7.667969 Z M 6.144531 8.808594 " fill-opacity="1" fill-rule="nonzero"/><g clip-path="url(#5ea0bba166)"><path fill="#10a0c2" d="M 7.734375 3.808594 C 7.53125 3.839844 7.390625 4.03125 7.421875 4.234375 L 8.058594 8.351562 C 8.089844 8.554688 8.28125 8.695312 8.484375 8.664062 C 8.6875 8.632812 8.828125 8.441406 8.796875 8.238281 L 8.160156 4.121094 C 8.125 3.917969 7.933594 3.777344 7.734375 3.808594 Z M 7.734375 3.808594 " fill-opacity="1" fill-rule="nonzero"/></g><path fill="#10a0c2" d="M 11.9375 5.871094 L 12.019531 5.707031 C 12.113281 5.523438 12.039062 5.296875 11.855469 5.207031 C 11.671875 5.113281 11.449219 5.1875 11.355469 5.371094 L 11.273438 5.53125 C 11.179688 5.714844 11.253906 5.941406 11.4375 6.035156 C 11.617188 6.125 11.84375 6.054688 11.9375 5.871094 Z M 11.9375 5.871094 " fill-opacity="1" fill-rule="nonzero"/><path fill="#10a0c2" d="M 11.265625 6.378906 C 11.082031 6.285156 10.855469 6.359375 10.765625 6.542969 L 9.964844 8.132812 C 9.839844 8.382812 10.019531 8.675781 10.296875 8.675781 C 10.433594 8.675781 10.5625 8.597656 10.628906 8.46875 L 11.429688 6.878906 C 11.523438 6.695312 11.449219 6.472656 11.265625 6.378906 Z M 11.265625 6.378906 " fill-opacity="1" fill-rule="nonzero"/></svg>