<svg xmlns="http://www.w3.org/2000/svg" xmlns:xlink="http://www.w3.org/1999/xlink" width="50" zoomAndPan="magnify" viewBox="0 0 37.5 37.499999" height="50" preserveAspectRatio="xMidYMid meet" version="1.0"><defs><clipPath id="ca0cbe81b5"><path d="M 0 0 L 37.007812 0 L 37.007812 37.007812 L 0 37.007812 Z M 0 0 " clip-rule="nonzero"/></clipPath><clipPath id="07eaadb07a"><path d="M 3.699219 22 L 12 22 L 12 31.660156 L 3.699219 31.660156 Z M 3.699219 22 " clip-rule="nonzero"/></clipPath><clipPath id="41b77de559"><path d="M 26 29 L 29 29 L 29 31.660156 L 26 31.660156 Z M 26 29 " clip-rule="nonzero"/></clipPath><clipPath id="be61644864"><path d="M 28 21 L 33.304688 21 L 33.304688 23 L 28 23 Z M 28 21 " clip-rule="nonzero"/></clipPath><clipPath id="e22fe658ce"><path d="M 18 5.015625 L 20 5.015625 L 20 8 L 18 8 Z M 18 5.015625 " clip-rule="nonzero"/></clipPath></defs><g clip-path="url(#ca0cbe81b5)"><path fill="#ffffff" d="M 0 0 L 37.007812 0 L 37.007812 37.007812 L 0 37.007812 Z M 0 0 " fill-opacity="1" fill-rule="nonzero"/><path fill="#ffffff" d="M 0 0 L 37.007812 0 L 37.007812 37.007812 L 0 37.007812 Z M 0 0 " fill-opacity="1" fill-rule="nonzero"/></g><path fill="#f4b68c" d="M 4.160156 23.664062 L 6.523438 30.601562 L 14.007812 28.050781 C 14.007812 28.050781 16.925781 28.742188 19.078125 28.316406 C 21.234375 27.886719 24.378906 26.101562 24.554688 25.269531 C 24.65625 24.800781 24.398438 24.273438 24.890625 23.269531 C 25.222656 22.597656 24.347656 21.347656 24.453125 20.976562 C 24.699219 20.125 24.859375 19.496094 24.007812 18.484375 C 23.152344 17.472656 23.476562 17.828125 23.609375 16.867188 C 23.742188 15.90625 23.140625 14.59375 22.039062 14.507812 C 20.9375 14.421875 18.128906 16.300781 17.59375 15.410156 C 17.0625 14.515625 18.132812 10.933594 17.425781 9.410156 C 16.71875 7.890625 15.441406 8.632812 15.476562 10.765625 C 15.511719 12.898438 14.011719 16.246094 13.082031 16.945312 C 12.148438 17.648438 12.238281 20.382812 11.050781 21.167969 C 9.859375 21.953125 4.160156 23.664062 4.160156 23.664062 " fill-opacity="1" fill-rule="nonzero"/><g clip-path="url(#07eaadb07a)"><path fill="#15b6db" d="M 8.46875 22.054688 L 11.269531 29.605469 L 6.195312 31.335938 L 3.710938 23.28125 L 8.46875 22.054688 " fill-opacity="1" fill-rule="nonzero"/></g><path fill="#252525" d="M 8.546875 23.605469 C 8.65625 23.929688 8.484375 24.28125 8.160156 24.390625 C 7.839844 24.5 7.488281 24.328125 7.378906 24.003906 C 7.269531 23.683594 7.441406 23.332031 7.761719 23.222656 C 8.085938 23.113281 8.4375 23.285156 8.546875 23.605469 " fill-opacity="1" fill-rule="nonzero"/><g clip-path="url(#41b77de559)"><path fill="#15b6db" d="M 28.519531 31.984375 C 28.464844 31.984375 28.410156 31.964844 28.363281 31.929688 L 26.425781 30.40625 C 26.316406 30.316406 26.296875 30.160156 26.382812 30.046875 C 26.46875 29.9375 26.628906 29.917969 26.738281 30.003906 L 28.675781 31.53125 C 28.785156 31.617188 28.804688 31.777344 28.71875 31.886719 C 28.667969 31.949219 28.59375 31.984375 28.519531 31.984375 " fill-opacity="1" fill-rule="nonzero"/></g><g clip-path="url(#be61644864)"><path fill="#15b6db" d="M 29.15625 22.261719 C 29.019531 22.261719 28.910156 22.160156 28.902344 22.023438 C 28.894531 21.882812 29 21.761719 29.140625 21.753906 L 33.015625 21.546875 C 33.160156 21.539062 33.277344 21.644531 33.285156 21.785156 C 33.292969 21.925781 33.183594 22.046875 33.046875 22.054688 L 29.167969 22.261719 C 29.164062 22.261719 29.160156 22.261719 29.15625 22.261719 " fill-opacity="1" fill-rule="nonzero"/></g><path fill="#15b6db" d="M 27.167969 13.167969 C 27.109375 13.167969 27.054688 13.148438 27.003906 13.109375 C 26.898438 13.019531 26.882812 12.859375 26.972656 12.75 L 28.714844 10.664062 C 28.804688 10.554688 28.964844 10.542969 29.074219 10.632812 C 29.179688 10.722656 29.195312 10.882812 29.105469 10.988281 L 27.363281 13.078125 C 27.3125 13.136719 27.242188 13.167969 27.167969 13.167969 " fill-opacity="1" fill-rule="nonzero"/><path fill="#15b6db" d="M 9.738281 14.316406 C 9.667969 14.316406 9.597656 14.285156 9.550781 14.230469 L 7.550781 11.960938 C 7.457031 11.855469 7.464844 11.691406 7.570312 11.601562 C 7.675781 11.507812 7.839844 11.519531 7.929688 11.625 L 9.929688 13.894531 C 10.023438 14 10.011719 14.160156 9.90625 14.25 C 9.859375 14.292969 9.800781 14.316406 9.738281 14.316406 " fill-opacity="1" fill-rule="nonzero"/><g clip-path="url(#e22fe658ce)"><path fill="#15b6db" d="M 18.929688 7.429688 C 18.789062 7.429688 18.675781 7.320312 18.675781 7.179688 L 18.640625 5.277344 C 18.636719 5.136719 18.75 5.019531 18.886719 5.015625 C 19.027344 5.015625 19.144531 5.125 19.148438 5.265625 L 19.183594 7.171875 C 19.183594 7.3125 19.074219 7.425781 18.933594 7.429688 L 18.929688 7.429688 " fill-opacity="1" fill-rule="nonzero"/></g></svg>